<?xml version="1.0" encoding="utf-8"?>
<!-- Generator: Adobe Illustrator 25.0.1, SVG Export Plug-In . SVG Version: 6.00 Build 0)  -->
<svg version="1.1" id="Camada_1" xmlns="http://www.w3.org/2000/svg" xmlns:xlink="http://www.w3.org/1999/xlink" x="0px" y="0px"
	 viewBox="0 0 28.3 28.3" style="enable-background:new 0 0 28.3 28.3;" xml:space="preserve">
<path d="M23.2,7.2C23.2,7.2,23.2,7.2,23.2,7.2L23.2,7.2C23.2,7.2,23.2,7.2,23.2,7.2c0-0.6-0.4-1-1-1c-0.5,0-1,0.4-1,1c0,0,0,0,0,0
	v11.7c0,3.6-2.6,6.8-6.1,7.2c-4.2,0.5-7.9-2.8-7.9-6.9V7.4c0-2.4,1.6-4.6,4-5.1c3.2-0.6,6,1.8,6,4.9V19c0,1.6-1.2,3.1-2.9,3.2
	c-1.7,0.1-3.1-1.3-3.1-3c0,0,0-9,0-12c0,0,0,0,0,0s0,0,0,0c0,0,0,0,0,0h0c0-0.5-0.4-1-1-1s-1,0.4-1,1h0c0,2.9,0,11.8,0,11.8
	c0,2.4,1.6,4.6,4,5.1c3.2,0.6,6-1.8,6-4.9V7.5c0-3.6-2.6-6.8-6.1-7.2C8.8-0.3,5.2,3,5.2,7.2v11.7c0,4.5,3.2,8.6,7.7,9.2
	c5.6,0.8,10.3-3.5,10.3-8.9L23.2,7.2C23.2,7.2,23.2,7.2,23.2,7.2z"/>
</svg>
