<?xml version="1.0" encoding="utf-8"?>
<!-- Generator: Adobe Illustrator 24.0.0, SVG Export Plug-In . SVG Version: 6.00 Build 0)  -->
<svg version="1.1" id="caterogy" focusable="false"
	 xmlns="http://www.w3.org/2000/svg" xmlns:xlink="http://www.w3.org/1999/xlink" x="0px" y="0px" viewBox="0 0 978 978"
	 style="enable-background:new 0 0 978 978;" xml:space="preserve">
<path d="M896.3,434.6H815v-81.5c0-45-36.5-81.5-81.5-81.5H538.7c-49.2,0-96.4-19.5-131.2-54.3l0,0c-34.8-34.8-82-54.3-131.2-54.3
	H81.5C36.5,163,0,199.5,0,244.5v489c0,45,36.5,81.5,81.5,81.5h679.2c28,0,54.2-14.4,69.1-38.4l135.7-217.3
	C999.4,505.1,960.3,434.6,896.3,434.6z M81.5,254.7c0-5.6,4.6-10.2,10.2-10.2h150.8c49.2,0,96.4,19.5,131.2,54.3l0,0
	c34.8,34.8,82,54.3,131.2,54.3h218.4c5.6,0,10.2,4.6,10.2,10.2v71.3H258.1c-28.5,0-55,14.9-69.8,39.4L81.5,651V254.7z M760.6,733.5
	H122.2l131.1-217.3h643.2L760.6,733.5z"/>
</svg>
