<?xml version="1.0" encoding="utf-8"?>
<!-- Generator: Adobe Illustrator 24.0.0, SVG Export Plug-In . SVG Version: 6.00 Build 0)  -->
<svg version="1.1" id="Layer_1" xmlns="http://www.w3.org/2000/svg" xmlns:xlink="http://www.w3.org/1999/xlink" x="0px" y="0px"
	 viewBox="0 0 978 978" style="enable-background:new 0 0 978 978;" xml:space="preserve">
<g>
	<g>
		<path d="M945.1,200.4l-68.6,0v-71c0-16.2-11.9-30-28-32.5c-2.8-0.4-69.6-10.1-150,4.5C609,117.8,537.5,158.1,489,218.9
			c-48.5-60.8-120-101-209.6-117.4c-80.4-14.6-147.2-4.9-150-4.5c-16.1,2.4-28,16.2-28,32.5v71H32.8C14.7,200.4,0,215.1,0,233.3
			v618.4c0,10.6,5.1,20.6,13.8,26.8s19.8,7.7,29.8,4.2c2.5-0.9,248.4-84.8,431.7-1.1c8.7,3.9,18.6,3.9,27.2,0
			c182.9-83.4,429.3,0.3,431.7,1.1c3.5,1.2,7.2,1.8,10.8,1.8c6.7,0,13.4-2.1,19-6.1c8.7-6.2,13.8-16.1,13.8-26.8V233.3
			C977.9,215.1,963.3,200.4,945.1,200.4z M65.6,807.7V266.1h35.7v437c0,9.5,4.2,18.6,11.4,24.8c7.2,6.2,16.8,9,26.2,7.6
			c1.8-0.3,144.4-19.8,248.5,51.6C259.2,765.3,130.8,790.6,65.6,807.7z M456.2,757.6c-45.9-41.4-105.6-69.5-176.8-82.4
			c-34.3-6.2-66.1-8.1-91.5-8.1c-7.5,0-14.5,0.2-20.9,0.4V159.6h0c63.1-2.8,216.5,3.9,289.2,127.1V757.6z M521.8,286.7
			C594.2,164,747.9,157,810.9,159.7v507.8c-27.6-1.1-67.9-0.4-112.3,7.6c-71.2,13-131,41-176.8,82.4L521.8,286.7L521.8,286.7z
			 M590.3,787.2c104.2-71.5,246.8-51.9,248.6-51.7c9.5,1.4,19-1.4,26.3-7.6c7.2-6.2,11.4-15.3,11.4-24.9v-437h35.7v541.7
			C847.1,790.6,718.7,765.2,590.3,787.2z"/>
	</g>
</g>
</svg>
