<?xml version="1.0" encoding="utf-8"?>
<svg version="1.1" id="svg10" xmlns:cc="http://creativecommons.org/ns#" xmlns:dc="http://purl.org/dc/elements/1.1/" xmlns:rdf="http://www.w3.org/1999/02/22-rdf-syntax-ns#" xmlns:svg="http://www.w3.org/2000/svg" xmlns="http://www.w3.org/2000/svg" xmlns:xlink="http://www.w3.org/1999/xlink" x="0px" y="0px" viewBox="0 0 150 27.3" style="enable-background:new 0 0 150 27.3;" xml:space="preserve">
	<path fill="#FFFFFF" d="M12.9,0.1c1.3,0,2.5,0.1,3.5,0.4c1.1,0.2,2,0.6,2.8,1.1C20,2.1,20.6,2.7,21,3.6c0.4,0.9,0.6,2,0.6,3.1 c0,1.4-0.3,2.6-1,3.4c-0.6,0.9-1.6,1.7-2.8,2.3c1.7,0.5,3,1.4,3.7,2.6c0.8,1.2,1.3,2.7,1.3,4.3c0,1.4-0.3,2.6-0.8,3.5 c-0.5,1-1.3,1.9-2.2,2.5c-0.9,0.6-2,1.1-3.1,1.4c-1.2,0.3-2.4,0.5-3.5,0.5L0,27.3V0.1H12.9z M12.1,11.1c1.1,0,2-0.3,2.7-0.8 c0.7-0.5,1-1.4,1-2.5c0-0.6-0.1-1.2-0.3-1.6s-0.5-0.7-0.9-1c-0.4-0.2-0.8-0.4-1.3-0.5c-0.5-0.1-1-0.1-1.6-0.1H6v6.4 C6,11.1,12.1,11.1,12.1,11.1z M12.4,22.7c0.6,0,1.2-0.1,1.7-0.2c0.5-0.1,1-0.3,1.4-0.6s0.7-0.6,1-1.1c0.2-0.5,0.4-1.1,0.4-1.8 c0-1.4-0.4-2.4-1.2-3.1c-0.8-0.6-1.9-0.9-3.1-0.9H6v7.6L12.4,22.7L12.4,22.7z"/>
	<path fill="#FFFFFF" d="M31.4,22c0.8,0.8,2,1.2,3.5,1.2c1.1,0,2.1-0.3,2.9-0.8c0.8-0.6,1.3-1.2,1.5-1.8h4.8c-0.8,2.4-2,4-3.5,5.1 c-1.6,1-3.4,1.6-5.7,1.6c-1.6,0-3-0.3-4.2-0.8c-1.3-0.5-2.3-1.2-3.1-2.2c-0.9-0.9-1.6-2-2-3.2c-0.5-1.3-0.7-2.7-0.7-4.2 c0-1.5,0.2-2.9,0.7-4.1s1.2-2.4,2.1-3.3c0.9-0.9,2-1.7,3.1-2.2c1.3-0.5,2.6-0.8,4.1-0.8c1.7,0,3.1,0.3,4.4,1 c1.3,0.7,2.3,1.5,3.1,2.7c0.8,1.1,1.4,2.4,1.8,3.7c0.2,1.4,0.3,2.8,0.2,4.3H30C30,19.7,30.6,21.2,31.4,22z M37.6,11.6 c-0.7-0.7-1.8-1.1-3.1-1.1c-0.9,0-1.6,0.2-2.2,0.5c-0.6,0.3-1,0.7-1.4,1.1c-0.4,0.4-0.6,0.9-0.7,1.4c-0.1,0.5-0.2,0.9-0.2,1.3H39 C38.8,13.3,38.3,12.3,37.6,11.6z M28.9,1.3h11v2.7h-11V1.3z"/>
	<path fill="#FFFFFF" d="M52,0v10.2h0.1c0.7-1.2,1.6-2,2.7-2.5S56.8,7,57.9,7c1.5,0,2.7,0.2,3.5,0.6c0.9,0.4,1.7,1,2.2,1.7 c0.5,0.7,0.9,1.6,1.1,2.6c0.2,1,0.3,2.1,0.3,3.3v12.1h-5.4V16.1c0-1.7-0.3-2.9-0.8-3.6c-0.5-0.8-1.4-1.2-2.6-1.2 c-1.5,0-2.6,0.5-3.1,1.3c-0.7,0.9-1,2.4-1,4.3v10.3h-5.4V0H52z"/> 
	<path fill="#FFFFFF" d="M68.9,9.9C69.5,9,70.2,8.5,71,7.9c0.9-0.5,1.9-0.9,3-1.1c1.1-0.2,2.2-0.3,3.2-0.3c1,0,2,0.1,3.1,0.2 c1,0.1,2,0.4,2.8,0.8c0.9,0.4,1.5,1,2.1,1.7c0.5,0.7,0.8,1.7,0.8,2.9v10.3c0,0.9,0.1,1.8,0.2,2.6c0.1,0.8,0.4,1.5,0.7,1.9h-5.5 c-0.2-0.2-0.3-0.6-0.4-0.9c-0.1-0.3-0.1-0.7-0.1-1c-0.9,0.9-1.9,1.5-3.1,1.9c-1.2,0.4-2.4,0.5-3.5,0.5c-1,0-1.8-0.1-2.7-0.4 c-0.8-0.2-1.5-0.6-2.2-1.1c-0.6-0.5-1.1-1.1-1.5-1.9c-0.3-0.8-0.5-1.6-0.5-2.7s0.2-2.1,0.6-2.8c0.4-0.7,0.9-1.3,1.5-1.8 c0.6-0.4,1.4-0.8,2.2-1s1.6-0.4,2.5-0.5c0.8-0.1,1.6-0.2,2.4-0.3c0.8-0.1,1.5-0.2,2.1-0.3c0.6-0.2,1.1-0.4,1.5-0.7 c0.4-0.3,0.5-0.7,0.5-1.3c0-0.6-0.1-1.1-0.3-1.4c-0.2-0.3-0.5-0.6-0.8-0.8c-0.3-0.2-0.7-0.3-1.1-0.4C78,10,77.5,10,77,10 c-1.1,0-1.9,0.2-2.5,0.7c-0.6,0.5-1,1.3-1.1,2.3H68C68,11.8,68.4,10.7,68.9,9.9z M79.6,17.6c-0.3,0.1-0.7,0.2-1.1,0.3 c-0.4,0.1-0.8,0.1-1.3,0.2c-0.4,0.1-0.9,0.1-1.3,0.2c-0.4,0.1-0.8,0.2-1.2,0.3c-0.4,0.1-0.8,0.3-1,0.5c-0.3,0.2-0.5,0.5-0.7,0.8 c-0.3,0.4-0.3,0.8-0.3,1.3c0,0.5,0.1,0.9,0.3,1.2c0.2,0.3,0.4,0.6,0.7,0.8c0.3,0.2,0.7,0.3,1.1,0.4c0.4,0.1,0.8,0.1,1.3,0.1 c1.1,0,1.9-0.2,2.5-0.5c0.6-0.4,1-0.8,1.3-1.3c0.3-0.5,0.5-1,0.5-1.5c0.1-0.5,0.1-0.9,0.1-1.2v-2.1C80.2,17.3,79.9,17.5,79.6,17.6 z"/>
	<path fill="#FFFFFF" d="M94.1,7.4v2.8h0.1c0.7-1.2,1.6-2,2.7-2.5c1.1-0.5,2.3-0.8,3.3-0.8c1.5,0,2.7,0.2,3.5,0.6c1,0.4,1.7,1,2.2,1.7 c0.5,0.7,0.9,1.6,1.2,2.6c0.2,1,0.3,2.1,0.3,3.3v12.1h-5.4V16c0-1.7-0.3-2.9-0.8-3.6c-0.5-0.8-1.4-1.3-2.8-1.3 c-1.5,0-2.6,0.6-3.2,1.5c-0.7,0.9-1,2.4-1,4.3v10.3h-5.4V7.4C88.8,7.4,94.1,7.4,94.1,7.4z"/>
	<path fill="#FFFFFF" d="M119.5,10.5c-0.9,0-1.6,0.2-2.2,0.6c-0.6,0.4-1.1,0.9-1.5,1.6c-0.4,0.6-0.6,1.3-0.8,2.1 c-0.2,0.8-0.2,1.5-0.2,2.3c0,0.7,0.1,1.5,0.2,2.2c0.2,0.8,0.4,1.4,0.8,2c0.4,0.6,0.8,1.1,1.4,1.5c0.6,0.4,1.3,0.6,2.2,0.6 c1.3,0,2.3-0.4,3.1-1.1c0.7-0.7,1.2-1.7,1.3-3h5.2c-0.4,2.7-1.4,4.6-3.1,6c-1.7,1.4-3.8,2.1-6.5,2.1c-1.5,0-2.9-0.3-4-0.8 c-1.3-0.5-2.3-1.2-3.1-2.1c-0.9-0.9-1.6-2-2.1-3.1c-0.5-1.3-0.7-2.6-0.7-4c0-1.6,0.2-3,0.7-4.2c0.5-1.3,1.1-2.5,2-3.4 c0.9-1,2-1.7,3.1-2.3c1.3-0.5,2.7-0.8,4.2-0.8c1.2,0,2.3,0.2,3.3,0.5c1.1,0.3,2.1,0.8,2.9,1.4c0.9,0.6,1.6,1.4,2.1,2.4 c0.5,0.9,0.8,2.1,0.9,3.3h-5.3C123.1,11.7,121.8,10.5,119.5,10.5z"/>
	<path fill="#FFFFFF" d="M137.1,22c0.8,0.8,2.1,1.2,3.5,1.2c1.1,0,2.1-0.3,2.9-0.8c0.8-0.6,1.3-1.2,1.5-1.8h4.7c-0.8,2.4-2,4-3.5,5.1 c-1.6,1-3.4,1.6-5.7,1.6c-1.6,0-3-0.3-4.2-0.8c-1.3-0.5-2.3-1.2-3.1-2.2c-0.9-0.9-1.6-2-2-3.2c-0.5-1.3-0.7-2.7-0.7-4.2 c0-1.5,0.2-2.9,0.7-4.1c0.5-1.3,1.2-2.4,2.1-3.3c0.9-0.9,2-1.7,3.1-2.2c1.3-0.5,2.7-0.8,4.1-0.8c1.7,0,3.1,0.3,4.3,1 c1.3,0.7,2.3,1.5,3.1,2.7c0.8,1.1,1.4,2.4,1.8,3.7c0.4,1.4,0.5,2.9,0.4,4.4h-14.3C135.7,19.7,136.3,21.2,137.1,22L137.1,22z M143.4,11.6c-0.7-0.7-1.8-1.1-3.1-1.1c-0.9,0-1.6,0.2-2.2,0.5c-0.6,0.3-1.1,0.7-1.4,1.1c-0.3,0.4-0.6,0.9-0.7,1.4 c-0.1,0.5-0.2,0.9-0.2,1.3h8.9C144.5,13.3,144,12.3,143.4,11.6L143.4,11.6z"/>
</svg>
