<?xml version="1.0" encoding="utf-8"?>
<!-- Generator: Adobe Illustrator 26.0.3, SVG Export Plug-In . SVG Version: 6.00 Build 0)  -->
<svg version="1.1" id="medium" xmlns="http://www.w3.org/2000/svg" xmlns:xlink="http://www.w3.org/1999/xlink" x="0px" y="0px"
	 viewBox="0 0 150 22.9" style="enable-background:new 0 0 150 22.9;" xml:space="preserve">
<style type="text/css">
	.st0{fill:#FFFFFF;}
</style>
<path class="st0" d="M22.5,11.6c0,6.3-5,11.3-11.2,11.3S0,17.9,0,11.6C0,5.3,5,0.2,11.2,0.2C17.5,0.2,22.5,5.3,22.5,11.6z"/>
<path class="st0" d="M34.8,11.6c0,5.9-2.5,10.7-5.6,10.7c-3.1,0-5.6-4.8-5.6-10.7c0-5.9,2.5-10.7,5.6-10.7
	C32.3,0.9,34.8,5.7,34.8,11.6z"/>
<path class="st0" d="M39.9,11.6c0,5.3-0.9,9.6-2,9.6s-2-4.3-2-9.6c0-5.3,0.9-9.6,2-9.6S39.9,6.3,39.9,11.6z"/>
<path class="st0" d="M70.9,1.2L70.9,1.2l0-0.2h-6.4l-5.9,14L52.7,1h-6.9v0.2l0,0c1.2,0.3,1.8,0.7,1.8,2.1v16.6
	c0,1.4-0.6,1.8-1.8,2.1l0,0v0.2h4.7V22l0,0c-1.2-0.3-1.8-0.7-1.8-2.1V4.3l7.6,18h0.4l7.9-18.5v16.6c-0.1,1.1-0.7,1.5-1.7,1.7l0,0
	v0.2h8.1V22l0,0c-1.1-0.2-1.7-0.6-1.8-1.7l0-17h0C69.1,1.9,69.7,1.5,70.9,1.2L70.9,1.2z"/>
<path class="st0" d="M74.5,13.1h9.5v0c0-2.3-0.7-4.1-2-5.3c-1.1-1.1-2.7-1.6-4.4-1.6h0c-0.9,0-2,0.2-2.8,0.6c-0.9,0.4-1.7,1-2.3,1.8
	c-1,1.3-1.7,3-1.8,5c0,0.1,0,0.1,0,0.2c0,0.1,0,0.1,0,0.2c0,0.1,0,0.2,0,0.3c0,0.2,0,0.3,0,0.5c0.1,4.5,2.5,8,6.8,8
	c3.7,0,5.9-2.7,6.5-6.4l-0.3-0.1c-1,2-2.7,3.2-4.6,3C76.4,19.1,74.4,16.4,74.5,13.1L74.5,13.1z M77.6,7.1c0.6,0,1,0.2,1.4,0.5
	c0.8,0.7,1.1,2.3,1.1,4.6h-5.5C74.8,9.3,75.8,7.1,77.6,7.1z"/>
<path class="st0" d="M101.2,22c-1.2-0.3-1.8-0.7-1.8-2.2V0l-7.1,2.1v0.3l0,0c1-0.1,1.6,0.1,2,0.4c0.3,0.3,0.4,0.7,0.4,1.3v2.7
	c-0.7-0.4-1.5-0.7-2.5-0.7c-2,0-3.9,0.9-5.3,2.4c-1.4,1.6-2.1,3.9-2.1,6.5c0,4.6,2.3,7.7,5.7,7.7c2,0,3.6-1.1,4.3-2.9v2.5h6.4
	L101.2,22L101.2,22z M94.9,19.1c-0.3,0.7-1,1.2-1.8,1.2c-0.9,0-1.7-0.6-2.2-1.7c-0.6-1.2-0.9-2.8-0.9-4.8c0-4.1,1.3-6.7,3.2-6.7
	c0.8,0,1.5,0.4,1.8,1.1V19.1z"/>
<path class="st0" d="M107.3,2.7c0-1.4-1.1-2.5-2.5-2.5c-1.4,0-2.6,1.1-2.6,2.5s1.1,2.5,2.6,2.5C106.2,5.2,107.3,4.1,107.3,2.7
	L107.3,2.7z"/>
<path class="st0" d="M109,22c-1.2-0.3-1.8-0.7-1.8-2.2h0V6.2L100.8,8v0.2l0,0c1.4,0.1,1.8,0.6,1.8,2.2v11.8h6.4L109,22L109,22z"/>
<path class="st0" d="M125.3,22c-1.2-0.3-1.8-0.7-1.8-2.2V6.2l-6.1,1.8v0.2l0,0c1.1,0.1,1.5,0.6,1.5,2.2v8.6
	c-0.4,0.7-1.1,1.2-1.9,1.2c-1.4,0-2.1-0.9-2.1-2.6V6.2L108.5,8v0.2l0,0c1.4,0.1,1.8,0.6,1.8,2.2v7.3c0,0.5,0,1,0.1,1.5l0.1,0.5
	c0.5,1.9,2,2.9,4.2,2.9c1.9,0,3.5-1.2,4.2-3v2.5h6.4L125.3,22L125.3,22z"/>
<path class="st0" d="M150,22.3V22l0,0c-1.3-0.3-1.8-0.8-1.8-2v-9.3c0-2.9-1.6-4.6-4.4-4.6c-2,0-3.7,1.1-4.3,2.9
	c-0.5-1.9-2-2.9-4.2-2.9c-1.9,0-3.4,1-4.1,2.7V6.2L125,7.9v0.3l0,0c1.4,0.1,1.8,0.6,1.8,2.2v11.9h5.9V22l0,0c-1-0.2-1.3-0.7-1.3-1.8
	V9.6c0.3-0.6,0.8-1.4,1.9-1.4c1.3,0,2,0.9,2,2.7v11.3h5.9V22l0,0c-1-0.2-1.3-0.7-1.3-1.8v-9.5c0-0.4,0-0.7-0.1-1.1
	c0.3-0.7,0.9-1.5,2-1.5c1.3,0,2,0.9,2,2.7v11.3H150z"/>
</svg>
