<?xml version="1.0" encoding="utf-8"?>
<!-- Generator: Adobe Illustrator 26.1.0, SVG Export Plug-In . SVG Version: 6.00 Build 0)  -->
<svg version="1.1" id="behance" xmlns="http://www.w3.org/2000/svg" xmlns:xlink="http://www.w3.org/1999/xlink" x="0px" y="0px"
	 viewBox="0 0 24 24" style="enable-background:new 0 0 24 24;" xml:space="preserve">
<style type="text/css">
	.st0{fill:#1769FF;}
</style>
<path class="st0" d="M9.7,11.4c1.3-0.6,2-1.6,2-3.1c0-2.9-2.2-3.7-4.7-3.7H0v14.8h7.2c2.7,0,5.2-1.3,5.2-4.3
	C12.4,13.2,11.5,11.9,9.7,11.4z M3.2,7.1h3c1.2,0,2.2,0.3,2.2,1.7c0,1.3-0.8,1.8-2,1.8H3.2V7.1z M6.7,16.9H3.2v-4.1h3.5
	c1.4,0,2.3,0.6,2.3,2.1C9.1,16.4,8,16.9,6.7,16.9z"/>
<rect x="15.7" y="5.1" class="st0" width="6" height="1.5"/>
<path class="st0" d="M24,13.9c0-3.2-1.8-5.8-5.2-5.8c-3.3,0-5.5,2.5-5.5,5.7c0,3.3,2.1,5.6,5.5,5.6c2.6,0,4.2-1.2,5-3.6h-2.6
	c-0.3,0.9-1.4,1.4-2.3,1.4c-1.7,0-2.6-1-2.6-2.7H24C24,14.3,24,14.1,24,13.9z M16.3,12.6c0.1-1.4,1-2.3,2.4-2.3
	c1.5,0,2.2,0.9,2.3,2.3H16.3z"/>
</svg>
