<?xml version="1.0" encoding="utf-8"?>
<!-- Generator: Adobe Illustrator 26.1.0, SVG Export Plug-In . SVG Version: 6.00 Build 0)  -->
<svg version="1.1" id="linkedin" xmlns="http://www.w3.org/2000/svg" xmlns:xlink="http://www.w3.org/1999/xlink" x="0px" y="0px"
	 viewBox="0 0 75 24" style="enable-background:new 0 0 75 24;" xml:space="preserve">
<style type="text/css">
	.st0{fill:none;}
	.st1{fill-rule:evenodd;clip-rule:evenodd;fill:#0073B0;}
	.st2{fill:#0073B1;}
</style>
<path class="st0" d="M73.7,2.6h-16c-0.8,0-1.4,0.6-1.4,1.3V20c0,0.7,0.5,1.3,1.2,1.3h16c0.8,0,1.6-0.6,1.6-1.3V3.9
	C75,3.2,74.4,2.6,73.7,2.6"/>
<path class="st1" d="M73.7,2.6h-16c-0.8,0-1.4,0.6-1.4,1.3V20c0,0.7,0.5,1.3,1.2,1.3h16c0.8,0,1.6-0.6,1.6-1.3V3.9
	C75,3.2,74.4,2.6,73.7,2.6z M63.4,9.7h2.5v1.2l0,0c0.4-0.7,1.5-1.4,3-1.4c2.7,0,3.5,1.4,3.5,4.1v5h-2.7v-4.5c0-1.2-0.5-2.2-1.6-2.2
	c-1.3,0-2,0.9-2,2.4v4.3h-2.7C63.4,18.7,63.4,9.7,63.4,9.7z M58.9,18.7h2.7V9.8h-2.7V18.7z M62,6.6c0,0.9-0.8,1.7-1.7,1.7
	s-1.7-0.7-1.7-1.6V6.6c0-0.9,0.7-1.7,1.6-1.7h0.1C61.2,4.9,62,5.7,62,6.6z"/>
<path class="st2" d="M53.6,18.7h-2.5v-1.1l0,0c-0.5,0.6-1.5,1.2-3.1,1.2c-2.2,0-4.2-1.7-4.2-4.5s1.9-4.5,4.2-4.5
	c1.4,0,2.3,0.5,2.9,1.2l0,0V5.3h2.7L53.6,18.7L53.6,18.7z M48.7,11.6c-1.5,0-2.4,1.1-2.4,2.5s0.9,2.6,2.4,2.6s2.4-1.1,2.4-2.6
	C51.1,12.7,50.2,11.6,48.7,11.6z"/>
<path class="st2" d="M42.6,17.2c-0.6,0.8-2,1.5-4,1.5c-2.9,0-4.6-1.9-4.6-4.7c0-2.6,1.6-4.4,4.6-4.4c2.7,0,4.3,1.7,4.3,4.7
	c0,0.2,0,0.4-0.1,0.6h-6.3v0.3c0.2,0.8,0.7,1.7,2,1.7c0.9,0,1.8-0.4,2.3-1.2L42.6,17.2z M40.3,13.3c0-1-0.7-1.9-1.8-1.9
	c-1.3,0-2,1-2,1.9H40.3z"/>
<polygon class="st2" points="33.9,9.7 30.8,9.7 27.7,13.3 27.7,5.3 25,5.3 25,18.7 27.7,18.7 27.7,14.2 31,18.7 34.1,18.7 
	30.4,13.8 "/>
<path class="st2" d="M14.3,9.7h2.5v1.2l0,0c0.4-0.7,1.5-1.4,3-1.4c2.7,0,3.5,1.7,3.5,4.1v5h-2.7v-4.5c0-1.3-0.5-2.2-1.6-2.2
	c-1.3,0-2,1.1-2,2.4v4.3h-2.7C14.3,18.6,14.3,9.7,14.3,9.7z"/>
<path class="st2" d="M9.8,18.7h2.7V9.8H9.8V18.7z M11.2,8.2c0.9,0,1.6-0.7,1.6-1.6S12,5,11.2,5c-0.9,0-1.6,0.7-1.6,1.6
	C9.5,7.5,10.3,8.2,11.2,8.2L11.2,8.2z"/>
<polygon class="st2" points="2.7,5.3 0,5.3 0,18.7 8,18.7 8,16 2.7,16 "/>
</svg>
