<?xml version="1.0" encoding="utf-8"?>
<!-- Generator: Adobe Illustrator 19.1.0, SVG Export Plug-In . SVG Version: 6.00 Build 0)  -->
<!DOCTYPE svg PUBLIC "-//W3C//DTD SVG 1.1//EN" "http://www.w3.org/Graphics/SVG/1.1/DTD/svg11.dtd">
<svg version="1.1" id="mnemonic" xmlns="http://www.w3.org/2000/svg" xmlns:xlink="http://www.w3.org/1999/xlink" x="0px" y="0px"
	 viewBox="0 0 240 234" style="enable-background:new 0 0 240 234;" xml:space="preserve">
<style type="text/css">
	.st0{fill-rule:evenodd;clip-rule:evenodd;fill:url(#SVGID_1_);}
	.st1{fill-rule:evenodd;clip-rule:evenodd;fill:#FFCB05;}
</style>
<g>
	<radialGradient id="SVGID_1_" cx="97.7109" cy="81.2863" r="143.4321" gradientUnits="userSpaceOnUse">
		<stop  offset="0" style="stop-color:#362700;stop-opacity:0.85"/>
		<stop  offset="0.7669" style="stop-color:#362700"/>
	</radialGradient>
	<rect x="10" y="10" class="st0" width="220" height="214"/>
</g>
<g>
	<path class="st1" d="M0,0v234h240V0H0z M10,10h220v214H10V10z"/>
</g>
<path class="st1" d="M58.3,162c0,1-0.3,1.5-1.2,1.5H41.4c-0.8,0-1.2-0.3-1.2-1.3V54.7c0-0.8,0.3-1.2,1.2-1.2h54.9
	c1,0,1.2,0.3,1.3,1.2l1.7,13.8c0.2,1-0.3,1.3-1.3,1.3H58.3V101h35.6c0.8,0,1.1,0.2,1.1,1.2v13.9c0,1-0.3,1.2-1.2,1.2H58.3V162z
	 M169.4,163.5c-1.2,0-1.5-0.4-1.7-1.4c-5-27.6-9.1-47-10.9-60.6h-0.2c-2.1,12.2-6.1,32.5-12.7,60.7c-0.3,1-0.7,1.3-1.5,1.3h-16.2
	c-1.2,0-1.5-0.2-1.8-1.2l-17.7-78.8c-0.2-0.7,0.2-1.3,1.2-1.3h16.2c0.7,0,1.2,0.2,1.3,0.9c6.3,35.5,8.9,53.9,9.9,61.1h0.7
	c1.2-8.6,4.6-26.5,12-60.8c0.3-1,0.3-1.2,1.3-1.2h17c0.8,0,1,0.4,1.2,1.2c5.8,32.5,9.6,53,10.6,61.3h0.5
	c1.7-10.6,3.8-24.8,10.9-61.4c0.2-0.7,0.3-1.1,1.2-1.1h15.2c0.7,0,1.2,0.3,0.8,1.2l-19.6,78.9c-0.2,0.8-0.3,1.2-1.5,1.2H169.4z"/>
</svg>
