<?xml version="1.0" encoding="utf-8"?>
<!-- Generator: Adobe Illustrator 24.0.2, SVG Export Plug-In . SVG Version: 6.00 Build 0)  -->
<svg version="1.1" id="ps_x5F_cc_x5F_app_x5F_RGB.svg"
	 xmlns="http://www.w3.org/2000/svg" xmlns:xlink="http://www.w3.org/1999/xlink" x="0px" y="0px" viewBox="0 0 240 234"
	 style="enable-background:new 0 0 240 234;" xml:space="preserve">
<style type="text/css">
	.st0{fill:#FF26BE;}
	.st1{fill:#2E001F;}
	.st2{fill:#FFD9F2;}
</style>
<path class="st0" d="M240,234H0V0h240V234z"/>
<path class="st1" d="M10,10h220v214H10V10z"/>
<path class="st2" d="M96.8,114.9l28,53.8c0.5,0.8,0.2,1.6-0.6,1.6h-17.4c-1.1,0-1.6-0.3-2.1-1.3c-6.4-13.2-12.9-26.4-19.6-40.6h-0.2
	c-6,13.4-12.6,27.5-19,40.7c-0.5,0.8-1,1.1-1.8,1.1H47.6c-1,0-1.1-0.8-0.6-1.4l27.4-52.2L47.9,63.8c-0.6-0.8,0-1.4,0.6-1.4h17.2
	c1,0,1.4,0.2,1.8,1.1c6.3,13.2,12.7,26.8,18.7,40.1h0.2c5.8-13.2,12.2-26.9,18.4-40c0.5-0.8,0.8-1.3,1.8-1.3h16.1
	c0.8,0,1.1,0.6,0.6,1.4L96.8,114.9z M129.7,131.2c0-23.3,15.5-41.5,40.1-41.5c2.1,0,3.2,0,5.2,0.2V63.4c0-0.6,0.5-1,1-1h15.8
	c0.8,0,1,0.3,1,0.8V155c0,2.7,0,6.1,0.5,9.8c0,0.6-0.2,0.8-0.8,1.1c-8.4,4-17.2,5.8-25.6,5.8C145.2,171.8,129.7,158.4,129.7,131.2z
	 M175,105.6c-1.4-0.6-3.4-1-5.8-1c-12.6,0-21.4,9.7-21.4,25.8c0,18.4,9,25.8,20.3,25.8c2.4,0,5-0.3,6.9-1.1V105.6z"/>
</svg>
