<?xml version="1.0" encoding="utf-8"?>
<!-- Generator: Adobe Illustrator 24.0.2, SVG Export Plug-In . SVG Version: 6.00 Build 0)  -->
<svg version="1.1" id="Capa_1" xmlns="http://www.w3.org/2000/svg" xmlns:xlink="http://www.w3.org/1999/xlink" x="0px" y="0px"
	 viewBox="0 0 240 234" style="enable-background:new 0 0 240 234;" xml:space="preserve">
<style type="text/css">
	.st0{fill:#26C9FF;}
	.st1{fill:#062026;}
	.st2{fill:#D9F5FF;}
</style>
<path class="st0" d="M240,234H0V0h240V234z"/>
<path class="st1" d="M10,10h220v214H10V10z"/>
<path class="st2" d="M56.9,62.7c0-0.7,1.4-1.2,2.2-1.2C65.5,61.2,75,61,84.9,61c27.7,0,38.5,15.2,38.5,34.7
	c0,25.4-18.4,36.3-41,36.3c-3.8,0-5.1-0.2-7.8-0.2v38.4c0,0.8-0.3,1.2-1.2,1.2H58.1c-0.8,0-1.2-0.3-1.2-1.2V62.7L56.9,62.7z
	 M74.7,115.8c2.3,0.2,4.1,0.2,8.1,0.2c11.7,0,22.7-4.1,22.7-20c0-12.7-7.9-19.1-21.2-19.1c-4,0-7.8,0.2-9.6,0.3L74.7,115.8
	L74.7,115.8z M160.7,103.9c-7.9,0-10.6,4-10.6,7.3c0,3.6,1.8,6.1,12.4,11.6c15.7,7.6,20.6,14.9,20.6,25.6c0,16-12.2,24.6-28.7,24.6
	c-8.7,0-16.2-1.8-20.5-4.3c-0.7-0.3-0.8-0.8-0.8-1.6v-14.7c0-1,0.5-1.3,1.2-0.8c6.3,4.1,13.5,5.9,20.1,5.9c7.9,0,11.2-3.3,11.2-7.8
	c0-3.6-2.3-6.8-12.4-12c-14.2-6.8-20.1-13.7-20.1-25.2c0-12.9,10.1-23.6,27.6-23.6c8.6,0,14.6,1.3,17.9,2.8c0.8,0.5,1,1.3,1,2v13.7
	c0,0.8-0.5,1.3-1.5,1C173.7,105.6,167.2,103.9,160.7,103.9L160.7,103.9z"/>
</svg>
