<?xml version="1.0" encoding="utf-8"?>
<!-- Generator: Adobe Illustrator 24.0.2, SVG Export Plug-In . SVG Version: 6.00 Build 0)  -->
<svg version="1.1" id="Camada_1" xmlns="http://www.w3.org/2000/svg" xmlns:xlink="http://www.w3.org/1999/xlink" x="0px" y="0px"
	 viewBox="0 0 20 20" style="enable-background:new 0 0 20 20;" xml:space="preserve">
<style type="text/css">
	.st0{fill-rule:evenodd;clip-rule:evenodd;fill:#394045;}
</style>
<path class="st0" d="M11.4,0.1c-0.4-0.2-1.5,0.3-1.3,0.5c0.1,0.1,0.2,0.1,0.3,0.2C9.2,0.8,6,1,5,1.4C0.8,3-1.1,13.1,2.1,17.2
	c3.9,5,14.7,3,16.8-3.9c1.5-4.9-0.5-9-3.6-11.1C14.3,1.2,12.7,0.8,11.4,0.1L11.4,0.1z M2.8,15.8c-2.1-3.4-1.2-11.4,2.5-13
	c1.5-0.7,2.9-1,4.4-1c0.4,0,0.8,0.1,1.2,0.3c0.7,0.3,1.3,0.6,1.9,0.9c0.2,0.1,0.7,0,1-0.2c0.3,0.2,0.7,0.3,1,0.5
	c0,0.1,0.1,0.1,0.2,0.1c0.2,0.1,0.4,0.2,0.6,0.4c5,4,2.2,12.9-3.2,14.4C9,19.2,4.4,18.3,2.8,15.8z M6.9,9.1C5.5,9.3,5.5,7.6,6.2,7.3
	C7.5,6.9,7.9,8.8,6.9,9.1z M13.8,7.9c0.2,0.9-0.7,1.5-1.2,1.2c-0.5-0.3-0.6-1.3-0.2-1.6C12.9,7.2,13.4,7.3,13.8,7.9z M4.4,10.8
	c0-0.1,0-0.2,0.2-0.2c0.2,0,0.3,0.3,0.3,0.4c0.8,2.4,6.7,4.2,9.5,0.5c0.1-0.1,0.1-0.4,0.4-0.3c0.1,0,0.1,0.1,0.1,0.3
	C14.1,16.7,4.4,15.7,4.4,10.8z"/>
</svg>
