<?xml version="1.0" encoding="utf-8"?>
<!-- Generator: Adobe Illustrator 24.3.0, SVG Export Plug-In . SVG Version: 6.00 Build 0)  -->
<svg version="1.1" id="Camada_1" xmlns="http://www.w3.org/2000/svg" xmlns:xlink="http://www.w3.org/1999/xlink" x="0px" y="0px" viewBox="0 0 400 400" style="enable-background:new 0 0 400 400;" xml:space="preserve">
	<style type="text/css">
	.st0{fill:#9DD46B;}
	.st1{fill:#FEFEFE;}
</style>
	<rect class="st0" width="400" height="400" />
	<g>
		<path class="st1" d="M400,3.6c0-3-0.6-3.6-3.6-3.6c-24.5,0.2-49,0.1-73.5,0.1c-0.9,1.5-2.6,1.5-3.9,1.8c-7.9,2-15.4,5.1-22.7,8.6
		C256.3,29.9,221.9,57.2,190,87.7c-22,21.1-43.2,43-64.7,64.5c-0.9,1-2.6,1.6-2.2,3.7c1.8,0,3.7,0,5.5,0c36.5,0,72.9,0.1,109.4-0.1
		c4.7,0,6.2,1,6.1,5.9c-0.2,36.6-0.1,73.2-0.1,109.9c0,1.8-0.5,3.6,0.5,5.4c2-0.4,2.9-2.2,4.2-3.4c31.7-30.7,61.2-63.6,94.6-92.5
		c16.8-14.5,35.4-26.2,56.7-33.3C399.9,99.9,399.8,51.7,400,3.6z" />
		<path class="st1" d="M203.7,191c-37.8,0.2-75.6,0.1-113.4,0.1c-2.7,0-4.6,0.7-6.6,2.6c-13.2,12.7-27.1,24.5-43.2,33.4
		c-12.8,7.1-25.9,13.4-40.5,15.9C0.1,294,0.1,345,0,396c0,2.9,0.4,3.9,3.7,3.9c24.4-0.2,48.9-0.1,73.3-0.1c1.1-1.5,2.8-1.5,4.3-1.9
		c6.8-1.8,13.3-4.2,19.6-7.2c39.4-18.4,73.4-44.3,104.8-74.1c2.2-2.1,3.2-4.3,3.2-7.4c-0.1-37.6-0.1-75.2,0-112.9
		C208.9,192.5,208,191,203.7,191z" />
	</g>
</svg>
