<?xml version="1.0" encoding="utf-8"?>
<!-- Generator: Adobe Illustrator 24.0.2, SVG Export Plug-In . SVG Version: 6.00 Build 0)  -->
<svg version="1.1" id="Camada_1" xmlns="http://www.w3.org/2000/svg" xmlns:xlink="http://www.w3.org/1999/xlink" x="0px" y="0px"
	 viewBox="0 0 444 512" style="enable-background:new 0 0 444 512;" xml:space="preserve">
<style type="text/css">
	.st0{fill-rule:evenodd;clip-rule:evenodd;fill:#A1C535;}
	.st1{fill-rule:evenodd;clip-rule:evenodd;fill:#ADD439;}
	.st2{fill-rule:evenodd;clip-rule:evenodd;fill:#1B6AC6;}
	.st3{fill-rule:evenodd;clip-rule:evenodd;fill:#2E90E8;}
	.st4{fill-rule:evenodd;clip-rule:evenodd;fill:#EA205E;}
	.st5{fill-rule:evenodd;clip-rule:evenodd;fill:#A5073E;}
	.st6{fill-rule:evenodd;clip-rule:evenodd;fill:#F1F6E2;}
	.st7{fill-rule:evenodd;clip-rule:evenodd;fill:#CEDBE6;}
	.st8{fill-rule:evenodd;clip-rule:evenodd;fill:#FFFFFF;}
</style>
<title>Apache NetBeans Logo</title>
<description>Apache NetBeans Logo</description>
<path class="st0" d="M222,0v99L86,178L0,128L222,0z"/>
<path class="st1" d="M444,128l-86,50L222,99V0L444,128L444,128z"/>
<path class="st2" d="M444,384l-86-50V178l86-50V384L444,384z"/>
<path class="st3" d="M222,512v-99l136-79l86,50L222,512L222,512z"/>
<path class="st4" d="M0,384l86-50l136,79v99L0,384L0,384z"/>
<path class="st5" d="M0,128l86,50v156L0,384V128L0,128z"/>
<path class="st6" d="M86,178l136-79l136,79l-136,78L86,178z"/>
<path class="st7" d="M222,256l136-78v156l-136,79V256z"/>
<path class="st8" d="M86,178l136,78v157L86,334V178z"/>
</svg>
