<?xml version="1.0" encoding="utf-8"?>
<!-- Generator: Adobe Illustrator 24.0.2, SVG Export Plug-In . SVG Version: 6.00 Build 0)  -->
<svg version="1.1" id="Camada_1" xmlns="http://www.w3.org/2000/svg" xmlns:xlink="http://www.w3.org/1999/xlink" x="0px" y="0px"
	 viewBox="0 0 240 234" style="enable-background:new 0 0 240 234;" xml:space="preserve">
<style type="text/css">
	.st0{fill:#4B4B4B;}
	.st1{fill-rule:evenodd;clip-rule:evenodd;fill:url(#SVGID_1_);}
	.st2{fill-rule:evenodd;clip-rule:evenodd;fill:#FF9800;}
</style>
<path class="st0" d="M0,16.5v201c0,9.1,7.4,16.5,16.5,16.5h207c9.1,0,16.5-7.4,16.5-16.5v-201C240,7.4,232.6,0,223.5,0h-207
	C7.4,0,0,7.4,0,16.5z"/>
<g>
	
		<linearGradient id="SVGID_1_" gradientUnits="userSpaceOnUse" x1="-379.6818" y1="47.6515" x2="-377.1099" y2="47.6515" gradientTransform="matrix(3.7577 -12.5648 10.6354 4.3471 1036.6429 -4814.0776)">
		<stop  offset="0" style="stop-color:#FF9700"/>
		<stop  offset="0.53" style="stop-color:#F48E00"/>
		<stop  offset="1" style="stop-color:#D06F00"/>
	</linearGradient>
	<path class="st1" d="M176.4,117.5c0-1.7-1.2-2.7-2.8-2.2l-107.2,34c-1.5,0.5-2.8,2.3-2.8,4v34.7c0,1.7,1.2,2.7,2.8,2.2l107.2-34
		c1.5-0.5,2.8-2.3,2.8-4V117.5z"/>
	<path class="st2" d="M63.6,116.3c0,1.7,1.2,3.5,2.8,4l107.2,34c1.5,0.5,2.8-0.5,2.8-2.2v-34.7c0-1.7-1.2-3.5-2.8-4l-107.2-34
		c-1.5-0.5-2.8,0.5-2.8,2.2V116.3z"/>
	<path class="st2" d="M176.4,46c0-1.7-1.2-2.7-2.8-2.2l-107.2,34c-1.5,0.5-2.8,2.3-2.8,4v34.7c0,1.7,1.2,2.7,2.8,2.2l107.2-34
		c1.5-0.5,2.8-2.3,2.8-4V46z"/>
</g>
</svg>
