<svg xmlns="http://www.w3.org/2000/svg" viewBox="0 0 128 128" role="img" aria-label="Caveman plugin icon">
  <rect width="128" height="128" rx="24" fill="#6B7280"/>
  <path d="M39 98V74c0-14 11-25 25-25h1c13 0 24 11 24 25v24h-9V86H48v12z" fill="#F3E2C7"/>
  <circle cx="64" cy="41" r="21" fill="#F3E2C7"/>
  <path d="M44 40c4-18 34-25 47-7 4 5 6 12 5 19-8-10-20-15-34-13-7 1-13 4-18 8z" fill="#2F241A"/>
  <circle cx="56" cy="43" r="3.5" fill="#1F2937"/>
  <circle cx="72" cy="43" r="3.5" fill="#1F2937"/>
  <path d="M56 56c6 4 10 4 16 0" stroke="#1F2937" stroke-width="4" stroke-linecap="round" fill="none"/>
  <path d="M27 94l16-7 10 23-16 7z" fill="#8B5E3C"/>
  <path d="M35 86l18-7 7 17-18 7z" fill="#C9CDD3"/>
</svg>
