<svg xmlns="http://www.w3.org/2000/svg" viewBox="0 0 64 64" role="img" aria-label="Caveman plugin icon small">
  <rect width="64" height="64" rx="14" fill="#6B7280"/>
  <circle cx="32" cy="22" r="11" fill="#F3E2C7"/>
  <path d="M22 22c2-9 18-13 25-4 2 3 3 6 2 10-4-5-11-7-18-6-4 1-6 2-9 5z" fill="#2F241A"/>
  <path d="M18 50v-9c0-8 6-14 14-14s14 6 14 14v9H18z" fill="#F3E2C7"/>
  <circle cx="28" cy="23" r="2" fill="#1F2937"/>
  <circle cx="36" cy="23" r="2" fill="#1F2937"/>
  <path d="M28 30c2 2 6 2 8 0" stroke="#1F2937" stroke-width="2.5" stroke-linecap="round" fill="none"/>
</svg>
