<?xml version="1.0" encoding="utf-8"?>
<svg version="1.1" id="tag" focusable="false" xmlns="http://www.w3.org/2000/svg" xmlns:xlink="http://www.w3.org/1999/xlink" x="0px" y="0px" viewBox="0 0 978 978" style="enable-background:new 0 0 978 978;" xml:space="preserve">
<path d="M0,481.6V91.7C0,41,41,0,91.7,0h389.9c24.3,0,47.6,9.7,64.8,26.9l404.7,404.7c35.8,35.8,35.8,93.9,0,129.7L561.2,951.1 c-35.8,35.8-93.9,35.8-129.7,0L26.9,546.4C9.7,529.2,0,505.9,0,481.6z M213.9,122.2c-50.6,0-91.7,41-91.7,91.7s41,91.7,91.7,91.7 s91.7-41,91.7-91.7S264.6,122.2,213.9,122.2z"/>
</svg>
