<?xml version="1.0" encoding="utf-8"?>
<!-- Generator: Adobe Illustrator 26.0.2, SVG Export Plug-In . SVG Version: 6.00 Build 0)  -->
<svg version="1.1" id="Camada_1" xmlns="http://www.w3.org/2000/svg" xmlns:xlink="http://www.w3.org/1999/xlink" x="0px" y="0px"
	 viewBox="0 0 161.8 190.9" style="enable-background:new 0 0 161.8 190.9;" xml:space="preserve">
<style type="text/css">
	.st0{fill:#127979;}
</style>
<path class="st0" d="M148.8,13v164.9H13V13H148.8 M156.5,0H5.3C2.4,0,0,2.4,0,5.3v180.2c0,2.9,2.4,5.3,5.3,5.3h151.1
	c2.9,0,5.3-2.4,5.3-5.3V5.3C161.8,2.4,159.4,0,156.5,0L156.5,0z"/>
<polygon class="st0" points="140.4,45.5 84,45.5 84,59.4 140.4,59.4 140.4,45.5 "/>
<polygon class="st0" points="140.4,79.2 84,79.2 84,93.1 140.4,93.1 140.4,79.2 "/>
<polygon class="st0" points="140.4,112.9 21.4,112.9 21.4,126.8 140.4,126.8 140.4,112.9 "/>
<polygon class="st0" points="140.4,146.6 21.4,146.6 21.4,160.5 140.4,160.5 140.4,146.6 "/>
<path class="st0" d="M49.5,64.9c-14.9,0-27,11.5-28.1,26.1c-0.1,1.2,0.8,2.1,2,2.1h52.2c1.2,0,2.1-1,2-2.1
	C76.6,76.4,64.4,64.9,49.5,64.9z"/>
<circle class="st0" cx="50.4" cy="46.2" r="15.8"/>
</svg>
