<?xml version="1.0" encoding="utf-8"?>
<!-- Generator: Adobe Illustrator 24.2.1, SVG Export Plug-In . SVG Version: 6.00 Build 0)  -->
<svg version="1.1" id="Camada_1" focusable="false" xmlns="http://www.w3.org/2000/svg" xmlns:xlink="http://www.w3.org/1999/xlink"
	 x="0px" y="0px" viewBox="0 0 480 384" style="enable-background:new 0 0 480 384;" xml:space="preserve">
<style type="text/css">
	.st0{fill:#333333;}
</style>
<path class="st0" d="M186.1,264.7c0,20.9-10.9,55.1-36.7,55.1s-36.7-34.2-36.7-55.1s10.9-55.1,36.7-55.1S186.1,243.8,186.1,264.7z
	 M480,214.2c0,31.9-3.2,65.7-17.5,95C424.6,385.8,320.4,384,245.8,384c-75.8,0-186.2,2.7-225.6-74.8C5.6,280.2,0,246.1,0,214.2
	c0-41.9,13.9-81.5,41.5-113.6c-5.2-15.8-7.7-32.4-7.7-48.8c0-21.5,4.9-32.3,14.6-51.8c45.3,0,74.3,9,108.8,36
	c29-6.9,58.8-10,88.7-10c27,0,54.2,2.9,80.4,9.2C360.3,8.5,389.3,0,434.1,0c9.8,19.5,14.6,30.3,14.6,51.8c0,16.4-2.6,32.7-7.7,48.2
	C468.5,132.4,480,172.3,480,214.2L480,214.2z M415.7,264.7c0-43.9-26.7-82.6-73.5-82.6c-18.9,0-37,3.4-56,6
	c-14.9,2.3-29.8,3.2-45.1,3.2c-15.2,0-30.1-0.9-45.1-3.2c-18.7-2.6-37-6-56-6c-46.8,0-73.5,38.7-73.5,82.6
	c0,87.8,80.4,101.3,150.4,101.3h48.2C335.4,366,415.7,352.6,415.7,264.7z M333.1,209.6c-25.8,0-36.7,34.2-36.7,55.1
	s10.9,55.1,36.7,55.1s36.7-34.2,36.7-55.1S358.9,209.6,333.1,209.6z"/>
</svg>
