<?xml version="1.0" encoding="utf-8"?>
<!-- Generator: Adobe Illustrator 24.2.1, SVG Export Plug-In . SVG Version: 6.00 Build 0)  -->
<svg version="1.1" id="Camada_1" focusable="false" xmlns="http://www.w3.org/2000/svg" xmlns:xlink="http://www.w3.org/1999/xlink"
	 x="0px" y="0px" viewBox="0 0 480 120.1" style="enable-background:new 0 0 480 120.1;" xml:space="preserve">
<style type="text/css">
	.st0{fill:none;}
	.st1{fill-rule:evenodd;clip-rule:evenodd;fill:#0073B0;}
	.st2{fill:#0073B1;}
</style>
<g>
	<g>
		<path class="st0" d="M471.4,0H369.1C364,0,360,4,360,8.6v102.9c0,4.6,2.9,8.6,7.4,8.6h102.3c5.1,0,10.3-4,10.3-8.6V8.6
			C480,4,476,0,471.4,0"/>
		<path class="st1" d="M471.4,0H369.1C364,0,360,4,360,8.6v102.9c0,4.6,2.9,8.6,7.4,8.6h102.3c5.1,0,10.3-4,10.3-8.6V8.6
			C480,4,476,0,471.4,0z M405.7,45.7h16v8l0,0c2.3-4.6,9.7-9.1,18.9-9.1c17.1,0,22.3,9.1,22.3,26.3v32h-17.1V74.3
			c0-7.4-2.9-14.3-10.3-14.3c-8.6,0-12.6,5.7-12.6,15.4v27.4h-17.1C405.7,102.9,405.7,45.7,405.7,45.7z M377.1,102.9h17.1V45.8
			h-17.1V102.9z M396.6,25.7c0,5.7-4.6,10.9-10.9,10.9s-10.9-4.6-10.9-10.9c0-6.3,4.6-10.9,10.9-10.9S396.6,20,396.6,25.7z"/>
	</g>
	<g>
		<path class="st2" d="M342.9,102.9h-16V96l0,0c-3.4,4-9.7,7.4-20,7.4c-14.3,0-26.9-10.9-26.9-29.1c0-17.7,12-29.1,26.9-29.1
			c9.1,0,14.9,3.4,18.3,7.4l0,0V17.2h17.1v85.7L342.9,102.9L342.9,102.9z M311.4,57.7c-9.7,0-15.4,6.9-15.4,16
			c0,9.1,5.7,16.6,15.4,16.6c9.7,0,15.4-6.9,15.4-16.6C326.9,64.6,321.1,57.7,311.4,57.7L311.4,57.7z"/>
		<path class="st2" d="M272.6,93.7c-4,5.1-12.6,9.7-25.7,9.7c-18.3,0-29.7-12-29.7-30.3c0-16.6,10.3-28,29.7-28
			c17.1,0,27.4,10.9,27.4,30.3c0,1.7-0.6,4-0.6,4h-40.6v1.7c1.1,5.1,4.6,10.9,13.1,10.9c7.4,0,12.6-4,14.9-7.4L272.6,93.7z
			 M257.7,68.6c0-6.3-4.6-12-11.4-12c-8.6,0-12.6,6.3-13.1,12H257.7z"/>
		<polygon class="st2" points="217.1,45.7 197.1,45.7 177.1,68.6 177.1,17.1 160,17.1 160,102.9 177.1,102.9 177.1,74.3 
			198.3,102.9 218.3,102.9 194.3,71.4 		"/>
		<path class="st2" d="M91.4,45.7h16v8l0,0c2.3-4.6,9.7-9.1,18.9-9.1c17.1,0,22.3,10.9,22.3,26.3v32h-17.1V74.3
			c0-8.6-2.9-14.3-10.3-14.3c-8.6,0-12.6,6.9-12.6,15.4v27.4H91.4C91.4,102.9,91.4,45.7,91.4,45.7z"/>
		<path class="st2" d="M62.9,102.9H80V45.8H62.9V102.9z M71.4,36c5.7,0,10.3-4.6,10.3-10.3s-4.6-10.3-10.3-10.3
			c-5.7,0-10.3,4.6-10.3,10.3C61.1,31.4,65.7,36,71.4,36z"/>
		<polygon class="st2" points="17.1,17.1 0,17.1 0,102.9 51.4,102.9 51.4,85.7 17.1,85.7 		"/>
	</g>
</g>
</svg>
