<svg id="Camada_1" data-name="Camada 1" xmlns="http://www.w3.org/2000/svg" viewBox="0 0 480 120.1"><defs><style>.cls-1{fill:none;}.cls-2{fill:#0073b0;fill-rule:evenodd;}.cls-3{fill:#0073b1;}</style></defs><path class="cls-1" d="M471.4,0H369.1A8.91,8.91,0,0,0,360,8.6V111.5c0,4.6,2.9,8.6,7.4,8.6H469.7c5.1,0,10.3-4,10.3-8.6V8.6A8.8,8.8,0,0,0,471.4,0"/><path class="cls-2" d="M471.4,0H369.1A8.91,8.91,0,0,0,360,8.6V111.5c0,4.6,2.9,8.6,7.4,8.6H469.7c5.1,0,10.3-4,10.3-8.6V8.6A8.8,8.8,0,0,0,471.4,0ZM405.7,45.7h16v8h0c2.3-4.6,9.7-9.1,18.9-9.1,17.1,0,22.3,9.1,22.3,26.3v32H445.8V74.3c0-7.4-2.9-14.3-10.3-14.3-8.6,0-12.6,5.7-12.6,15.4v27.4H405.8C405.7,102.9,405.7,45.7,405.7,45.7Zm-28.6,57.2h17.1V45.8H377.1Zm19.5-77.2a10.92,10.92,0,0,1-10.9,10.9,10.56,10.56,0,0,1-10.9-10.9,10.56,10.56,0,0,1,10.9-10.9A10.92,10.92,0,0,1,396.6,25.7Z"/><path class="cls-3" d="M342.9,102.9h-16V96h0c-3.4,4-9.7,7.4-20,7.4-14.3,0-26.9-10.9-26.9-29.1,0-17.7,12-29.1,26.9-29.1,9.1,0,14.9,3.4,18.3,7.4h0V17.2h17.1v85.7ZM311.4,57.7c-9.7,0-15.4,6.9-15.4,16s5.7,16.6,15.4,16.6,15.4-6.9,15.4-16.6c.1-9.1-5.7-16-15.4-16Z"/><path class="cls-3" d="M272.6,93.7c-4,5.1-12.6,9.7-25.7,9.7-18.3,0-29.7-12-29.7-30.3,0-16.6,10.3-28,29.7-28,17.1,0,27.4,10.9,27.4,30.3a19.58,19.58,0,0,1-.6,4H233.1v1.7c1.1,5.1,4.6,10.9,13.1,10.9a18.07,18.07,0,0,0,14.9-7.4ZM257.7,68.6c0-6.3-4.6-12-11.4-12-8.6,0-12.6,6.3-13.1,12Z"/><polygon class="cls-3" points="217.1 45.7 197.1 45.7 177.1 68.6 177.1 17.1 160 17.1 160 102.9 177.1 102.9 177.1 74.3 198.3 102.9 218.3 102.9 194.3 71.4 217.1 45.7"/><path class="cls-3" d="M91.4,45.7h16v8h0c2.3-4.6,9.7-9.1,18.9-9.1,17.1,0,22.3,10.9,22.3,26.3v32H131.5V74.3c0-8.6-2.9-14.3-10.3-14.3-8.6,0-12.6,6.9-12.6,15.4v27.4H91.4Z"/><path class="cls-3" d="M62.9,102.9H80V45.8H62.9ZM71.4,36A10.3,10.3,0,1,0,61.1,25.7,10.29,10.29,0,0,0,71.4,36Z"/><polygon class="cls-3" points="17.1 17.1 0 17.1 0 102.9 51.4 102.9 51.4 85.7 17.1 85.7 17.1 17.1"/></svg>