<?xml version="1.0" encoding="utf-8"?>
<!-- Generator: Adobe Illustrator 26.3.1, SVG Export Plug-In . SVG Version: 6.00 Build 0)  -->
<svg version="1.1" id="drive" xmlns="http://www.w3.org/2000/svg" xmlns:xlink="http://www.w3.org/1999/xlink" x="0px" y="0px" viewBox="0 0 105.6 36.3" style="enable-background:new 0 0 105.6 36.3;" xml:space="preserve">
	<path fill="#fff" d="M48.2,26V9.9h4.9c2.5,0,4.4,0.7,5.9,2.2s2.2,3.4,2.2,5.8s-0.7,4.4-2.2,5.8c-1.5,1.5-3.5,2.2-5.9,2.2h-4.9V26z M50.2,11.9V24 h2.9c1.9,0,3.3-0.5,4.4-1.6s1.6-2.6,1.6-4.5s-0.5-3.4-1.6-4.4c-1.1-1.1-2.6-1.6-4.4-1.6H50.2z"/>
	<path fill="#fff" d="M64.9,26h-2.1V15h2v1.8h0.1c0.2-0.6,0.6-1.1,1.3-1.5s1.3-0.6,1.9-0.6s1.1,0.1,1.5,0.3L69,17c-0.3-0.1-0.7-0.2-1.2-0.2 c-0.8,0-1.5,0.3-2,0.9c-0.6,0.6-0.9,1.4-0.9,2.2C64.9,19.9,64.9,26,64.9,26z"/>
	<path fill="#fff" d="M73.7,11.2c0.1,1.8-2.9,1.8-2.8,0C70.9,9.4,73.7,9.4,73.7,11.2z"/>
	<rect fill="#fff" x="71.2" y="15" width="2.1" height="11"/>
	<path fill="#fff" d="M81.3,26h-2.1l-4.4-11H77l3.2,8.5l0,0l3.3-8.5h2.2L81.3,26z"/>
	<path fill="#fff" d="M91.7,26.4c-1.6,0-2.9-0.6-4-1.7c-1-1.1-1.6-2.5-1.6-4.2s0.5-3.1,1.5-4.2s2.3-1.7,3.9-1.7s2.9,0.5,3.9,1.6s1.4,2.5,1.4,4.4 v0.2h-8.5c0,1.1,0.4,1.9,1.1,2.6s1.5,1,2.5,1c1.3,0,2.3-0.7,3.1-2l1.8,0.9c-0.5,0.9-1.2,1.7-2.1,2.2C93.8,26.1,92.8,26.4,91.7,26.4z M88.4,19.2h6.3c-0.1-0.8-0.4-1.4-0.9-1.9c-0.6-0.5-1.3-0.8-2.3-0.8c-0.8,0-1.4,0.2-2,0.7C89,17.7,88.6,18.4,88.4,19.2z"/>
	<path fill="#fff" d="M25.8,21.7L15.9,4.5c-0.3-0.7,0.1-1.4,0.8-1.4h8.7c0.3,0,0.7,0.2,0.8,0.4l9.9,17.1c0.3,0.6-0.1,1.4-0.8,1.4h-8.7 C26.3,22.1,26,21.9,25.8,21.7z"/>
	<path fill="#fff" d="M16.7,24.1l-4.4,7.7c-0.3,0.6,0.1,1.3,0.8,1.3h18.8c0.3,0,0.7-0.2,0.8-0.5l4.4-7.7c0.3-0.6-0.1-1.3-0.8-1.3H17.4 C17.1,23.7,16.8,23.9,16.7,24.1z"/>
	<path fill="#fff" d="M8.8,31.8c0.5,0,0.9-0.3,1.2-0.7l9-15.7c0.2-0.2,0.2-0.7,0-0.9l-4.5-7.7c-0.3-0.6-1.2-0.6-1.6,0L3.6,23.2 c-0.2,0.2-0.2,0.7,0,0.9l4,7C7.8,31.6,8.3,31.8,8.8,31.8L8.8,31.8z"/>
</svg>
