<?xml version="1.0" encoding="utf-8"?>
<!-- Generator: Adobe Illustrator 26.3.1, SVG Export Plug-In . SVG Version: 6.00 Build 0) -->
<svg version="1.1" id="drive" xmlns="http://www.w3.org/2000/svg" xmlns:xlink="http://www.w3.org/1999/xlink" x="0px" y="0px" viewBox="0 0 105.6 36.3" style="enable-background:new 0 0 105.6 36.3;" xml:space="preserve">
<g>
	<g>
		<path fill="#fff" d="M56.9,26.6V10.5h4.9c2.5,0,4.4,0.7,5.9,2.2s2.2,3.4,2.2,5.8c0,2.4-0.7,4.4-2.2,5.8c-1.5,1.5-3.5,2.2-5.9,2.2H56.9z M58.9,12.5v12.1h2.9c1.9,0,3.3-0.5,4.4-1.6c1.1-1.1,1.6-2.6,1.6-4.5c0-1.9-0.5-3.4-1.6-4.4c-1.1-1.1-2.6-1.6-4.4-1.6H58.9z"/>
		<path fill="#fff" d="M73.6,26.6h-2.1v-11h2v1.8h0.1c0.2-0.6,0.6-1.1,1.3-1.5s1.3-0.6,1.9-0.6c0.6,0,1.1,0.1,1.5,0.3l-0.6,2 c-0.3-0.1-0.7-0.2-1.2-0.2c-0.8,0-1.5,0.3-2,0.9c-0.6,0.6-0.9,1.4-0.9,2.2V26.6z"/>
		<path fill="#fff" d="M82.4,11.8c0,0.4-0.1,0.7-0.4,1c-0.3,0.3-0.6,0.4-1,0.4c-0.4,0-0.7-0.1-1-0.4c-0.3-0.3-0.4-0.6-0.4-1c0-0.4,0.1-0.7,0.4-1 c0.3-0.3,0.6-0.4,1-0.4c0.4,0,0.7,0.1,1,0.4C82.2,11.1,82.4,11.4,82.4,11.8z M82,15.6v11h-2.1v-11H82z"/>
		<path fill="#fff" d="M90,26.6h-2.1l-4.4-11h2.2l3.2,8.5h0l3.3-8.5h2.2L90,26.6z"/>
		<path fill="#fff" d="M100.4,27c-1.6,0-2.9-0.6-4-1.7c-1-1.1-1.6-2.5-1.6-4.2c0-1.7,0.5-3.1,1.5-4.2c1-1.1,2.3-1.7,3.9-1.7 c1.6,0,2.9,0.5,3.9,1.6c1,1.1,1.4,2.5,1.4,4.4l0,0.2H97c0,1.1,0.4,1.9,1.1,2.6s1.5,1,2.5,1c1.3,0,2.3-0.7,3.1-2l1.8,0.9 c-0.5,0.9-1.2,1.7-2.1,2.2C102.5,26.7,101.5,27,100.4,27z M97.1,19.8h6.3c-0.1-0.8-0.4-1.4-0.9-1.9c-0.6-0.5-1.3-0.8-2.3-0.8 c-0.8,0-1.4,0.2-2,0.7C97.7,18.3,97.3,19,97.1,19.8z"/>
	</g>
	<path fill="#fff" d="M27,22.4L15,1.7C14.6,0.9,15.1,0,16,0h10.5c0.4,0,0.8,0.2,1,0.5l12,20.7c0.4,0.7-0.1,1.7-1,1.7H28 C27.6,22.9,27.2,22.7,27,22.4z"/>
	<path fill="#fff" d="M15.9,25.4l-5.3,9.3c-0.4,0.7,0.1,1.6,1,1.6h22.7c0.4,0,0.8-0.2,1-0.6l5.3-9.3c0.4-0.7-0.1-1.6-1-1.6H16.8 C16.4,24.9,16.1,25.1,15.9,25.4z"/>
	<path fill="#fff" d="M7.3,34.7l11.4-19.8c0.2-0.3,0.2-0.8,0-1.1l-5.4-9.3c-0.4-0.7-1.5-0.7-1.9,0L0.1,24.3c-0.2,0.3-0.2,0.8,0,1.1l5.3,9.3"/>
</g>
</svg>
