<svg id="Camada_1" data-name="Camada 1" xmlns="http://www.w3.org/2000/svg" viewBox="0 0 120.1 120.1"><defs><style>.cls-1{fill:#00aff0;}</style></defs><path class="cls-1" d="M113.88,71.81a58.25,58.25,0,0,0,1.26-11.75,55,55,0,0,0-55-55A56.9,56.9,0,0,0,48.35,6.27,30,30,0,0,0,6.25,48.32,58.15,58.15,0,0,0,5,60.06,55,55,0,0,0,60,115.11a56.29,56.29,0,0,0,11.74-1.26A30,30,0,0,0,120.1,90.07a29.58,29.58,0,0,0-6.22-18.26ZM61.7,96.34c-17.59,0-32.31-7.83-32.31-17.43,0-4.29,2.41-8.2,7.91-8.2,8.36,0,9.14,12,23.62,12,6.89,0,11.34-3.06,11.34-7,0-5-4.29-5.8-11.26-7.51-16.76-4.13-31.59-5.9-31.59-23.38,0-15.88,15.72-21.75,29.26-21.75,14.77,0,29.71,5.87,29.71,14.86,0,4.53-3.06,8.52-8.13,8.52-7.58,0-7.83-9-20.11-9-6.89,0-11.26,1.88-11.26,6,0,5.31,5.58,5.85,18.53,8.85,11.1,2.49,24.32,7.19,24.32,20.81,0,15.85-15.31,23.19-30,23.19Z"/></svg>