<?xml version="1.0" encoding="utf-8"?>
<!-- Generator: Adobe Illustrator 24.2.1, SVG Export Plug-In . SVG Version: 6.00 Build 0)  -->
<svg version="1.1" id="Camada_1" focusable="false" xmlns="http://www.w3.org/2000/svg" xmlns:xlink="http://www.w3.org/1999/xlink"
	 x="0px" y="0px" viewBox="0 0 447.9 447.9" style="enable-background:new 0 0 447.9 447.9;" xml:space="preserve">
<style type="text/css">
	.st0{fill:#00AFF0;}
</style>
<path class="st0" d="M424.7,267.8c2.9-14,4.7-28.9,4.7-43.8c0-113.5-91.9-205.3-205.3-205.3c-14.9,0-29.7,1.7-43.8,4.7
	C161.3,8.7,137.7,0,112,0C50.2,0,0,50.2,0,112c0,25.7,8.7,49.3,23.3,68.2c-2.9,14-4.7,28.9-4.7,43.8c0,113.5,91.9,205.3,205.3,205.3
	c14.9,0,29.7-1.7,43.8-4.7c19,14.6,42.6,23.3,68.2,23.3c61.8,0,112-50.2,112-112C448,310.3,439.3,286.7,424.7,267.8L424.7,267.8z
	 M230.1,359.3c-65.6,0-120.5-29.2-120.5-65c0-16,9-30.6,29.5-30.6c31.2,0,34.1,44.9,88.1,44.9c25.7,0,42.3-11.4,42.3-26.3
	c0-18.7-16-21.6-42-28c-62.5-15.4-117.8-22-117.8-87.2c0-59.2,58.6-81.1,109.1-81.1c55.1,0,110.8,21.9,110.8,55.4
	c0,16.9-11.4,31.8-30.3,31.8c-28.3,0-29.2-33.5-75-33.5c-25.7,0-42,7-42,22.5c0,19.8,20.8,21.8,69.1,33
	c41.4,9.3,90.7,26.8,90.7,77.6C342.1,331.9,285,359.3,230.1,359.3L230.1,359.3z"/>
</svg>
