<svg id="Camada_1" data-name="Camada 1" xmlns="http://www.w3.org/2000/svg" viewBox="0 0 150.12 120.1"><defs><style>.cls-1{fill:#333;}</style></defs><path class="cls-1" d="M58.2,82.79c0,6.53-3.41,17.23-11.47,17.23S35.25,89.32,35.25,82.79s3.41-17.24,11.48-17.24S58.2,76.25,58.2,82.79ZM150.12,67c0,10-1,20.55-5.47,29.71-11.86,24-44.44,23.4-67.78,23.4-23.7,0-58.23.84-70.55-23.4C1.75,87.63,0,77,0,67A53.81,53.81,0,0,1,13,31.46,48.83,48.83,0,0,1,10.57,16.2c0-6.72,1.53-10.1,4.57-16.2,14.16,0,23.23,2.81,34,11.26A119.71,119.71,0,0,1,76.91,8.13,107.86,107.86,0,0,1,102.05,11c10.63-8.35,19.7-11,33.72-11,3.06,6.1,4.56,9.48,4.56,16.2a48.17,48.17,0,0,1-2.41,15.08c8.6,10.13,12.2,22.61,12.2,35.71ZM130,82.79C130,69.06,121.66,57,107,57c-5.91,0-11.57,1.07-17.51,1.88a91.83,91.83,0,0,1-14.11,1,92.33,92.33,0,0,1-14.1-1C55.45,58,49.73,57,43.79,57c-14.64,0-23,12.11-23,25.84,0,27.45,25.14,31.68,47,31.68H82.91C104.9,114.47,130,110.28,130,82.79ZM104.18,65.55c-8.07,0-11.48,10.7-11.48,17.24S96.11,100,104.18,100s11.48-10.7,11.48-17.23S112.25,65.55,104.18,65.55Z"/></svg>