<?xml version="1.0" encoding="utf-8"?>
<!-- Generator: Adobe Illustrator 26.1.0, SVG Export Plug-In . SVG Version: 6.00 Build 0)  -->
<svg version="1.1" id="github" xmlns="http://www.w3.org/2000/svg" xmlns:xlink="http://www.w3.org/1999/xlink" x="0px" y="0px"
	 viewBox="0 0 30 24" style="enable-background:new 0 0 30 24;" xml:space="preserve">
<style type="text/css">
	.st0{fill:#333333;}
</style>
<path class="st0" d="M12.3,15.6c0,1-0.5,2.8-1.8,2.8s-1.8-1.7-1.8-2.8s0.5-2.8,1.8-2.8S12.3,14.6,12.3,15.6z M27,13.1
	c0,1.6-0.2,3.3-0.9,4.7c-1.9,3.8-7.1,3.7-10.8,3.7c-3.8,0-9.3,0.1-11.3-3.7c-0.7-1.5-1-3.2-1-4.7C3,11,3.7,9,5.1,7.4
	C4.8,6.6,4.7,5.8,4.7,5c0-1.1,0.2-1.6,0.7-2.6c2.3,0,3.7,0.4,5.4,1.8c1.5-0.3,2.9-0.5,4.4-0.5c1.4,0,2.7,0.1,4,0.5
	c1.7-1.3,3.1-1.8,5.4-1.8c0.5,1,0.7,1.5,0.7,2.6c0,0.8-0.1,1.6-0.4,2.4C26.4,9,27,11,27,13.1L27,13.1z M23.8,15.6
	c0-2.2-1.3-4.1-3.7-4.1c-0.9,0-1.8,0.2-2.8,0.3C16.6,11.9,15.8,12,15,12c-0.8,0-1.5,0-2.3-0.2c-0.9-0.1-1.8-0.3-2.8-0.3
	c-2.3,0-3.7,1.9-3.7,4.1c0,4.4,4,5.1,7.5,5.1h2.4C19.8,20.7,23.8,20,23.8,15.6z M19.7,12.9c-1.3,0-1.8,1.7-1.8,2.8s0.5,2.8,1.8,2.8
	c1.3,0,1.8-1.7,1.8-2.8S20.9,12.9,19.7,12.9z"/>
</svg>
