<?xml version="1.0" encoding="utf-8"?>
<svg version="1.1" id="medium" xmlns="http://www.w3.org/2000/svg" xmlns:xlink="http://www.w3.org/1999/xlink" x="0px" y="0px" viewBox="0 0 1043.6 592.7" style="enable-background:new 0 0 1043.6 592.7;" xml:space="preserve">
<path fill="#000000" d="M588.7,296.4c0,163.7-131.8,296.3-294.3,296.3S0,460,0,296.4S131.8,0,294.3,0S588.7,132.7,588.7,296.4"/>
<path fill="#000000" d="M911.6,296.4c0,154.1-65.9,279-147.2,279s-147.2-124.9-147.2-279s65.9-279,147.2-279S911.5,142.3,911.6,296.4"/>
<path fill="#000000" d="M1043.6,296.4c0,138-23.2,249.9-51.8,249.9s-51.8-111.9-51.8-249.9s23.2-249.9,51.8-249.9S1043.6,158.3,1043.6,296.4"/>
</svg>
