<svg id="behance" data-name="Camada 1" xmlns="http://www.w3.org/2000/svg" viewBox="0 0 191.57 117.87">
    <path fill="#1769ff" d="M77.16,53.81c10.58-5.05,16.1-12.7,16.1-24.61C93.26,5.72,75.77,0,55.58,0H0V117.87H57.14c21.42,0,41.54-10.28,41.54-34.22C98.68,68.85,91.68,57.9,77.16,53.81ZM25.91,20.12H50.22C59.57,20.12,68,22.75,68,33.59c0,10-6.55,14-15.8,14H25.91Zm27.7,77.73H25.91V65.39H54.15c11.4,0,18.62,4.75,18.62,16.83C72.77,94.12,64.16,97.85,53.61,97.85Z" />
    <rect fill="#1769ff" x="125.06" y="3.96" width="47.79" height="11.6" />
    <path fill="#1769ff" d="M191.57,74.2c0-25.24-14.76-46.3-41.54-46.3-26,0-43.67,19.56-43.67,45.17,0,26.57,16.73,44.8,43.67,44.8,20.39,0,33.6-9.18,39.95-28.7H169.29c-2.23,7.28-11.41,11.14-18.52,11.14-13.74,0-21-8-21-21.72h61.57C191.47,77.19,191.57,75.7,191.57,74.2ZM129.85,63.82c.76-11.21,8.21-18.22,19.45-18.22,11.78,0,17.7,6.92,18.69,18.22Z" />
</svg>