<?xml version="1.0" encoding="utf-8"?>
<!-- Generator: Adobe Illustrator 26.1.0, SVG Export Plug-In . SVG Version: 6.00 Build 0)  -->
<svg version="1.1" id="medium" xmlns="http://www.w3.org/2000/svg" xmlns:xlink="http://www.w3.org/1999/xlink" x="0px" y="0px"
	 viewBox="0 0 24 24" style="enable-background:new 0 0 24 24;" xml:space="preserve">
<path d="M13.5,12c0,3.8-3,6.8-6.8,6.8S0,15.8,0,12s3-6.8,6.8-6.8S13.5,8.3,13.5,12"/>
<path d="M21,12c0,3.5-1.5,6.4-3.4,6.4s-3.4-2.9-3.4-6.4s1.5-6.4,3.4-6.4C19.4,5.6,21,8.5,21,12"/>
<path d="M24,12c0,3.2-0.5,5.7-1.2,5.7s-1.2-2.6-1.2-5.7s0.5-5.7,1.2-5.7S24,8.8,24,12"/>
</svg>
