<?xml version="1.0" encoding="utf-8"?>
<!-- Generator: Adobe Illustrator 24.2.3, SVG Export Plug-In . SVG Version: 6.00 Build 0)  -->
<svg version="1.1" id="Camada_1" xmlns="http://www.w3.org/2000/svg" xmlns:xlink="http://www.w3.org/1999/xlink" x="0px" y="0px"
	 width="34.6px" height="40px" viewBox="0 0 34.6 40" style="enable-background:new 0 0 34.6 40;" xml:space="preserve">
<style type="text/css">
	.st0{fill:#F1F1F1;}
	.st1{fill:#543E29;}
	.st2{fill:#137979;}
	.st3{fill:#F5E3D1;}
	.st4{fill:#FFFFFF;}
	.st5{fill:#080809;}
</style>
<path class="st0" d="M26.4,9c-0.1-0.5-0.3-0.9-0.6-1.3c-0.1-1-0.4-2-0.8-3C23.5,1.8,20.5,0,17.3,0S11,1.8,9.6,4.7
	c-0.5,0.9-0.7,1.9-0.8,3C8.5,8.1,8.3,8.5,8.2,9C3.1,12,0,17.4,0,23.2c0,0.6,0,1.2,0.1,1.8c0,0,0,0.1,0,0.1c0.2,2,0.8,3.9,1.7,5.6
	c0.1,0.2,0.2,0.4,0.3,0.6c0.5,0.9,1,1.7,1.7,2.4c3.3,4,8.2,6.3,13.5,6.3c5.3,0,10.2-2.3,13.5-6.3c0.7-0.8,1.3-1.7,1.8-2.6
	c0.9-1.7,1.6-3.5,1.8-5.4c0-0.3,0.2-1.9,0.2-2.5C34.6,17.4,31.5,12,26.4,9z M24.1,8.3L24.1,8.3L24.1,8.3L24.1,8.3z"/>
<g>
	<path class="st1" d="M24.1,8.3L24.1,8.3c-0.3-0.3-0.8-0.6-1.3-0.7c-0.1,0-0.1,0-0.2,0c0,0,0,0,0,0c-3.5-0.9-7.2-0.9-10.7,0
		c-0.1,0-0.1,0-0.2,0.1c-0.5,0.1-0.9,0.4-1.3,0.7v0c0-1,0.2-2,0.7-2.8c1.1-2.2,3.4-3.7,6.1-3.7c2.7,0,5.1,1.5,6.1,3.7
		C23.9,6.3,24.1,7.3,24.1,8.3z"/>
	<path class="st2" d="M24.8,10L24.8,10c-0.1-0.1-0.3-0.2-0.4-0.2c-0.1-0.1-0.3-0.1-0.4-0.2c-0.3-0.1-0.5-0.2-0.8-0.3
		c-0.3-0.1-0.5-0.2-0.8-0.3c-0.1,0-0.3-0.1-0.4-0.1c-1.5-0.5-3.1-0.7-4.7-0.7c-1.6,0-3.2,0.2-4.7,0.7c-0.1,0-0.3,0.1-0.4,0.1
		c-0.3,0.1-0.5,0.2-0.8,0.3h0c-0.3,0.1-0.5,0.2-0.8,0.3c-0.2,0.1-0.3,0.1-0.4,0.2C10,9.9,9.9,10,9.7,10.1h0c0-0.7,0.3-1.3,0.8-1.8
		c0.3-0.3,0.8-0.6,1.3-0.7c0.1,0,0.1,0,0.2-0.1c3.5-0.9,7.2-0.9,10.7,0c0,0,0,0,0,0c0.1,0,0.1,0,0.2,0c0.5,0.1,0.9,0.4,1.3,0.7
		C24.6,8.8,24.8,9.4,24.8,10z"/>
	<path class="st1" d="M32.9,23.2c0,0.5,0,1.1-0.1,1.6c-0.6-4.1-4.2-7.2-8.6-7.2c-2.8,0-5.4,1.3-6.9,3.4c-1.6-2-4.1-3.4-6.9-3.4
		c-2.5,0-4.7,1-6.2,2.6c-0.4,0.4-0.8,0.9-1.2,1.5c-0.1,0.2-0.3,0.4-0.4,0.6c-0.4,0.8-0.7,1.6-0.8,2.5c-0.1-0.5-0.1-1.1-0.1-1.6
		c0-5.7,3.2-10.6,8-13.2c0.3-0.2,0.6-0.3,0.9-0.4c2-0.9,4.3-1.4,6.7-1.4s4.6,0.5,6.7,1.4c0.3,0.1,0.6,0.3,0.9,0.4
		C29.6,12.6,32.9,17.6,32.9,23.2z"/>
	<path class="st3" d="M24.2,17.6c-2.8,0-5.4,1.3-6.9,3.4c-1.6-2-4.1-3.4-6.9-3.4c-2.5,0-4.7,1-6.2,2.6c-0.4,0.4-0.8,0.9-1.2,1.5
		c-0.1,0.2-0.3,0.4-0.4,0.6c-0.1,0.2-0.2,0.4-0.3,0.6c-0.2,0.4-0.3,0.8-0.4,1.3c0,0.2-0.1,0.4-0.1,0.7C2,26.6,2.5,28.4,3.3,30
		c0.1,0.2,0.2,0.4,0.3,0.5c0.4,0.8,0.9,1.5,1.5,2.2c2.9,3.4,7.2,5.6,12.2,5.6s9.3-2.2,12.2-5.6c0.6-0.7,1.1-1.5,1.6-2.3
		c0.8-1.5,1.4-3.1,1.7-4.8c0-0.2,0.1-0.4,0.1-0.7C32.2,20.8,28.6,17.6,24.2,17.6z"/>
	<path class="st4" d="M10.4,29.5c0.3,0.5,0.2,1.2-0.2,1.6c-0.1,0.1-0.3,0.2-0.4,0.2c-0.2,0-0.3-0.1-0.4-0.2C8.8,30.7,8.7,30,9,29.5
		l0.7-1L10.4,29.5z"/>
	<g>
		<path class="st5" d="M11.3,24.6l-1.8,1.8c-0.2,0.2-0.3,0.5-0.2,0.8c0.3,0.8,1,1.3,1.8,1.3c1.1,0,2-1,2-2.2c0-0.7-0.3-1.4-0.9-1.8
			C12,24.3,11.6,24.4,11.3,24.6z"/>
	</g>
	<g>
		<path class="st5" d="M23.1,24.6l1.8,1.8c0.2,0.2,0.3,0.5,0.2,0.8c-0.3,0.8-1,1.3-1.8,1.3c-1.1,0-2-1-2-2.2c0-0.7,0.3-1.4,0.9-1.8
			C22.4,24.3,22.8,24.3,23.1,24.6z"/>
	</g>
</g>
</svg>
