<?xml version="1.0" encoding="utf-8"?>
<!-- Generator: Adobe Illustrator 24.0.2, SVG Export Plug-In . SVG Version: 6.00 Build 0)  -->
<svg version="1.1" id="Camada_1" xmlns="http://www.w3.org/2000/svg" xmlns:xlink="http://www.w3.org/1999/xlink" x="0px" y="0px"
	 viewBox="0 0 4110.1 4826.6" style="enable-background:new 0 0 4110.1 4826.6;" xml:space="preserve">
<style type="text/css">
	.st0{fill:#543E29;}
	.st1{fill:#137979;}
	.st2{fill:#F5E3D1;}
	.st3{fill:none;stroke:#080809;stroke-width:40;stroke-linecap:round;stroke-linejoin:round;stroke-miterlimit:10;}
	.st4{fill:#FFFFFF;}
	.st5{fill:#080809;}
</style>
<path class="st0" d="M2953,868.4v0.6c-44.3-44.9-101.6-79-167.6-96c-7-2.1-14.1-3.8-21.7-5.9c-1.2-0.3-2.6-0.6-3.8-0.9
	c-461.8-120.7-946.5-120.7-1408-0.3c-9.4,2.3-18.5,4.7-27.3,7c-65.8,17-123,51.1-167.3,96v-0.6c0-133.9,31.4-261,87.5-374.3
	C1389.1,202,1697.7,0,2055,0c357.6,0,666.1,202,810.6,494.1C2921.6,607.4,2953,734.5,2953,868.4z"/>
<path class="st1" d="M3052.5,1101.5v0.3c-19.1-10.3-38.5-20.6-58.1-30.2c-19.7-10-39.3-19.4-59.3-28.5
	c-33.5-15.3-67.2-29.7-101.6-43.4c-34.3-13.8-69.3-26.4-104.2-38.2c-17.6-5.9-35.2-11.4-53.1-17C2480.1,884.3,2271.7,852,2055,852
	c-216.4,0-424.8,32.3-620.6,92.5c-17.9,5.6-35.5,11.2-53.1,17c-35.2,11.7-69.9,24.4-104.2,38.2h-0.3
	c-34.1,13.5-68.1,27.9-101.3,43.2c-20,9.1-39.9,18.8-59.3,28.8c-19.7,9.7-39,20-58.4,30.2h-0.3c1.8-88.1,38.5-170.9,99.8-232.8
	c44.3-44.9,101.6-79,167.3-96c8.8-2.3,17.9-4.7,27.3-7c461.5-120.4,946.2-120.4,1408,0.3c1.2,0.3,2.6,0.6,3.8,0.9
	c7.6,2.1,14.7,3.8,21.7,5.9c66.1,17,123.3,51.1,167.6,96C3014.1,930.9,3051.1,1013.4,3052.5,1101.5z"/>
<path class="st0" d="M4110.1,2839.3c0,70.8-3.8,140.6-11.4,209.6c-77.8-535.8-553.4-948-1128.8-948
	c-374.6,0-706.9,174.7-914.8,444.5c-207.8-269.8-540.2-444.5-914.8-444.5c-323.5,0-615.9,130.3-823.2,340
	c-57.8,57.8-108.9,122.1-152.4,191.7c-17.6,27.6-33.8,56.1-48.4,85.4c-52,102.2-88.1,213.7-105.1,330.9C3.9,2979.9,0,2910,0,2839.3
	c0-747.4,426.6-1398.6,1057.5-1737.7c38.5-20.8,77.8-40.5,117.7-58.7c266.9-122.4,565.1-190.8,879.8-190.8s613,68.4,879.8,190.8
	c39.9,18.2,79.3,37.9,117.7,58.7C3683.6,1440.7,4110.1,2091.9,4110.1,2839.3z"/>
<path class="st2" d="M2969.9,2101c-374.6,0-706.9,174.7-914.8,444.5c-207.8-269.8-540.2-444.5-914.8-444.5
	c-323.5,0-615.9,130.3-823.2,340c-57.8,58.1-108.9,122.4-152.4,191.7c-17.3,27.6-33.5,56.1-48.4,85.4c-12.9,25.5-25,51.7-35.8,78.4
	c-22,53.1-39.6,108.6-52.8,165.9c-6.5,28.5-11.7,57.2-16.1,86.6c26.1,240.7,96.6,468.8,203.7,676.1c12,23.5,24.7,46.7,37.6,69.6
	c57.8,101.6,124.5,197.9,199,287.7c376.7,453.9,954.7,744.2,1603.2,744.2s1226.6-290.3,1603.2-744.2c79.6-96,150.3-199,210.2-308.3
	c108-195.2,183.2-409.8,218.4-637.4c4.7-29.1,8.5-58.4,11.7-87.8C4020.9,2513.2,3545.3,2101,2969.9,2101z"/>
<path class="st3" d="M2548.9,4289.5c-48.5-64.2-221.4-128.4-493.8-128.4s-409.6,29.1-493.8,128.4"/>
<path class="st4" d="M1202.5,3752.7C1202.5,3752.7,1202.5,3752.7,1202.5,3752.7c-10.8,50.7-65.7,146.7-146.7,146.7
	c-81,0-135.9-96-146.7-146.7c0,0,0,0,0,0c19.2-63.4,146.7-220.5,146.7-220.5S1183.3,3689.3,1202.5,3752.7z"/>
<g>
	<path class="st5" d="M1320.5,2972.1L990.7,3302c21.8,135.7,129.9,238.9,259.9,238.9c145.7,0,263.9-129.6,263.9-289.5
		C1514.5,3118,1432.3,3005.8,1320.5,2972.1z"/>
</g>
<g>
	<path class="st5" d="M2769.3,2971.5l329.8,329.8c-21.8,135.7-129.9,238.9-259.9,238.9c-145.7,0-263.9-129.6-263.9-289.5
		C2575.3,3117.4,2657.5,3005.1,2769.3,2971.5z"/>
</g>
</svg>
