<?xml version="1.0" encoding="utf-8"?>
<!-- Generator: Adobe Illustrator 24.2.3, SVG Export Plug-In . SVG Version: 6.00 Build 0)  -->
<svg version="1.1" id="logo" xmlns="http://www.w3.org/2000/svg" xmlns:xlink="http://www.w3.org/1999/xlink" x="0px" y="0px"
	 width="72px" height="72px" viewBox="0 0 72 72" style="enable-background:new 0 0 72 72;" xml:space="preserve">
<style type="text/css">
	.st0{fill:#FFFFFF;}
	.st1{fill:#543E28;}
	.st2{fill:#147979;}
	.st3{fill:#F4E3D0;}
	.st4{fill:#090709;}
</style>
<g>
	<path class="st0" d="M-19.2,22.6c-0.5-1.7-1.2-3.3-2.2-4.9c-0.9-1.5-2-2.8-3.3-4c-1.2-1.1-2.5-2.1-3.9-2.9c-0.1-0.3-0.2-0.7-0.3-1
		c-0.2-0.3-0.4-0.7-0.6-1c0-0.6-0.1-1.2-0.2-1.7c-0.2-0.7-0.4-1.3-0.7-1.9c-0.4-0.8-0.9-1.5-1.5-2.1c-0.6-0.6-1.3-1.2-2-1.7
		C-35.4,0.5-37.2,0-39,0c-1.8,0-3.6,0.5-5.1,1.5c-0.7,0.5-1.4,1-2,1.7c-0.6,0.6-1.1,1.4-1.5,2.1c-0.3,0.6-0.5,1.3-0.7,1.9
		c-0.1,0.6-0.2,1.1-0.2,1.7c-0.3,0.3-0.5,0.6-0.6,1c-0.1,0.3-0.2,0.7-0.3,1c-1.4,0.8-2.7,1.8-3.9,2.9c-1.3,1.2-2.4,2.5-3.3,4
		c-0.9,1.5-1.7,3.2-2.2,4.9c-0.5,1.8-0.8,3.6-0.8,5.4c0,0.7,0,1.4,0.1,2.1c0,0,0,0.1,0,0.1c0.1,1.2,0.4,2.3,0.7,3.4
		c0.3,1.1,0.8,2.2,1.3,3.3c0.1,0.2,0.2,0.4,0.4,0.7l0,0l0,0l0,0l0,0c0.6,1,1.3,2,2,2.9c0.9,1.1,2,2.2,3.2,3.1
		c1.2,0.9,2.5,1.7,3.8,2.3c1.4,0.7,2.8,1.2,4.3,1.5c1.6,0.3,3.2,0.5,4.7,0.5c1.6,0,3.2-0.2,4.7-0.5c1.5-0.3,2.9-0.9,4.3-1.5
		c1.4-0.6,2.7-1.4,3.8-2.3s2.2-2,3.2-3.1c0.8-1,1.5-2,2.1-3.1c1.1-2,1.8-4.2,2.2-6.4c0-0.3,0.1-0.5,0.1-0.9v0
		c0.1-0.7,0.1-1.4,0.1-2.1C-18.4,26.2-18.7,24.4-19.2,22.6z"/>
	<g>
		<path class="st1" d="M-30.4,9.2L-30.4,9.2c-0.4-0.4-1-0.8-1.6-0.9c-0.1,0-0.1,0-0.2-0.1h0c-4.4-1.2-9.1-1.2-13.5,0
			c-0.1,0-0.2,0-0.3,0.1c-0.6,0.2-1.2,0.5-1.6,0.9l0,0c0-1.3,0.3-2.5,0.9-3.6c1.4-2.8,4.3-4.7,7.8-4.7c3.4,0,6.4,1.9,7.8,4.7
			C-30.7,6.7-30.4,7.9-30.4,9.2z"/>
		<path class="st2" d="M-29.4,11.4L-29.4,11.4c-0.2-0.1-0.4-0.2-0.6-0.3c-0.2-0.1-0.4-0.2-0.6-0.3c-0.3-0.2-0.6-0.3-1-0.4
			c-0.3-0.1-0.7-0.3-1-0.4c-0.2-0.1-0.3-0.1-0.5-0.2C-35,9.3-36.9,9-39,9c-2.1,0-4.1,0.3-5.9,0.9c-0.2,0.1-0.3,0.1-0.5,0.2
			c-0.3,0.1-0.7,0.2-1,0.4l0,0c-0.3,0.1-0.7,0.3-1,0.4c-0.2,0.1-0.4,0.2-0.6,0.3c-0.2,0.1-0.4,0.2-0.6,0.3l0,0
			c0-0.9,0.4-1.6,0.9-2.2c0.4-0.4,1-0.8,1.6-0.9c0.1,0,0.2,0,0.3-0.1c4.4-1.2,9.1-1.2,13.5,0h0c0.1,0,0.1,0,0.2,0.1
			c0.6,0.2,1.2,0.5,1.6,0.9C-29.8,9.8-29.5,10.6-29.4,11.4z"/>
		<path class="st1" d="M-19.3,28.1c0,0.7,0,1.4-0.1,2c-0.8-5.1-5.3-9.1-10.8-9.1c-3.6,0-6.8,1.7-8.8,4.3c-2-2.6-5.2-4.3-8.8-4.3
			c-3.1,0-5.9,1.3-7.9,3.3c-0.6,0.6-1,1.2-1.5,1.8c-0.2,0.3-0.3,0.5-0.5,0.8c-0.5,1-0.9,2.1-1,3.2c-0.1-0.7-0.1-1.3-0.1-2
			c0-7.2,4.1-13.4,10.1-16.6c0.4-0.2,0.8-0.4,1.1-0.6C-44.9,9.7-42,9-39,9s5.9,0.7,8.4,1.8c0.4,0.2,0.8,0.4,1.1,0.6
			C-23.4,14.7-19.3,20.9-19.3,28.1z"/>
		<path class="st3" d="M-30.2,21c-3.6,0-6.8,1.7-8.8,4.3c-2-2.6-5.2-4.3-8.8-4.3c-3.1,0-5.9,1.3-7.9,3.3c-0.6,0.6-1,1.2-1.5,1.8
			c-0.2,0.3-0.3,0.5-0.5,0.8c-0.1,0.3-0.3,0.5-0.3,0.8c-0.2,0.5-0.4,1-0.5,1.6c-0.1,0.3-0.1,0.5-0.2,0.8c0.3,2.3,0.9,4.5,2,6.5
			c0.1,0.2,0.2,0.4,0.3,0.7c0.6,1,1.2,1.9,1.9,2.7c3.6,4.4,9.2,7.1,15.4,7.1s11.7-2.8,15.4-7.1c0.8-0.9,1.5-1.9,2-3
			c1-1.9,1.8-3.9,2.1-6.1c0-0.3,0.1-0.6,0.1-0.9C-20.1,24.9-24.7,21-30.2,21z M-46.5,34.7c-1.4,0-2.5-1.2-2.5-2.8
			c0-1.5,1.1-2.8,2.5-2.8c1.4,0,2.5,1.2,2.5,2.8C-44,33.5-45.1,34.7-46.5,34.7z M-31.5,34.7c-1.4,0-2.5-1.2-2.5-2.8
			c0-1.5,1.1-2.8,2.5-2.8c1.4,0,2.5,1.2,2.5,2.8C-29,33.5-30.1,34.7-31.5,34.7z"/>
		<ellipse class="st3" cx="-46.5" cy="32" rx="2.5" ry="2.8"/>
		<path class="st3" d="M-29,32c0,1.5-1.1,2.8-2.5,2.8c-1.4,0-2.5-1.2-2.5-2.8c0-1.5,1.1-2.8,2.5-2.8C-30.1,29.2-29,30.4-29,32z"/>
		<ellipse class="st4" cx="-46.5" cy="32" rx="2.5" ry="2.8"/>
		<path class="st4" d="M-36.5,40.5c0,1.5-1.1,2.8-2.5,2.8c-1.4,0-2.5-1.2-2.5-2.8"/>
		<path class="st4" d="M-29,32c0,1.5-1.1,2.8-2.5,2.8c-1.4,0-2.5-1.2-2.5-2.8c0-1.5,1.1-2.8,2.5-2.8C-30.1,29.2-29,30.4-29,32z"/>
	</g>
</g>
<g>
	<path class="st0" d="M65.7,34c-0.8-2.6-1.8-5-3.3-7.3c-1.4-2.2-3-4.2-4.9-6c-1.8-1.7-3.8-3.2-5.9-4.4c-0.1-0.5-0.2-1-0.4-1.5
		c-0.2-0.5-0.6-1-0.9-1.5c0-0.9-0.1-1.8-0.3-2.6c-0.2-1-0.6-1.9-1-2.9c-0.6-1.2-1.3-2.2-2.2-3.2c-0.9-0.9-1.9-1.8-3-2.5
		C41.4,0.8,38.7,0,36,0c-2.7,0-5.4,0.8-7.7,2.2c-1.1,0.7-2.1,1.5-3,2.5c-0.9,0.9-1.6,2-2.2,3.2c-0.5,0.9-0.8,1.9-1,2.9
		c-0.2,0.9-0.3,1.7-0.3,2.6c-0.4,0.5-0.7,0.9-0.9,1.5c-0.2,0.5-0.3,1-0.4,1.5c-2.1,1.2-4.1,2.7-5.9,4.4c-1.9,1.8-3.6,3.8-4.9,6
		C8.1,29,7,31.5,6.3,34c-0.8,2.7-1.1,5.4-1.1,8.1c0,1,0,2.1,0.2,3.2c0,0,0,0.1,0,0.1c0.2,1.8,0.6,3.5,1,5.2c0.5,1.7,1.2,3.3,2,4.9
		c0.1,0.3,0.3,0.7,0.6,1l0,0l0,0l0,0l0,0c0.9,1.5,1.9,3,3,4.3c1.4,1.7,3,3.3,4.8,4.6c1.8,1.4,3.7,2.6,5.7,3.5c2.1,1,4.3,1.8,6.5,2.2
		c2.4,0.5,4.7,0.8,7.1,0.8c2.4,0,4.8-0.3,7.1-0.8c2.2-0.5,4.4-1.3,6.5-2.2c2-0.9,4-2.1,5.7-3.5c1.8-1.4,3.4-2.9,4.8-4.6
		c1.2-1.5,2.3-3,3.2-4.6c1.7-3,2.7-6.3,3.3-9.6c0-0.4,0.1-0.8,0.2-1.3v0c0.1-1,0.2-2.1,0.2-3.2C66.9,39.4,66.5,36.6,65.7,34z"/>
	<g>
		<path class="st1" d="M48.9,13.8L48.9,13.8c-0.6-0.6-1.5-1.1-2.4-1.4c-0.1,0-0.2,0-0.3-0.1h0c-6.6-1.8-13.6-1.8-20.2,0
			c-0.1,0-0.3,0-0.4,0.1c-0.9,0.2-1.8,0.8-2.4,1.4l0,0c0-1.9,0.5-3.7,1.3-5.4c2.1-4.2,6.5-7.1,11.7-7.1s9.6,2.9,11.7,7.1
			C48.5,10,48.9,11.8,48.9,13.8z"/>
		<path class="st2" d="M50.4,17.1L50.4,17.1c-0.3-0.1-0.6-0.3-0.9-0.4c-0.3-0.1-0.6-0.3-0.9-0.4c-0.5-0.2-0.9-0.4-1.5-0.6
			c-0.5-0.2-1-0.4-1.5-0.6c-0.2-0.1-0.5-0.1-0.8-0.2c-2.8-0.9-5.8-1.3-9-1.3c-3.1,0-6.1,0.5-8.9,1.3c-0.2,0.1-0.5,0.1-0.8,0.2
			c-0.5,0.2-1,0.3-1.5,0.6l0,0c-0.5,0.2-1,0.4-1.5,0.6c-0.3,0.1-0.6,0.3-0.9,0.4c-0.3,0.1-0.6,0.3-0.9,0.4l0,0
			c0-1.3,0.6-2.5,1.4-3.4c0.6-0.7,1.5-1.1,2.4-1.4c0.1,0,0.2,0,0.4-0.1c6.6-1.8,13.6-1.8,20.2,0h0c0.1,0,0.2,0,0.3,0.1
			c0.9,0.2,1.8,0.8,2.4,1.4C49.8,14.7,50.3,15.9,50.4,17.1z"/>
		<path class="st1" d="M65.6,42.1c0,1,0,2-0.1,3c-1.1-7.7-8-13.6-16.2-13.6C43.8,31.5,39,34,36,37.9c-3-3.9-7.8-6.4-13.2-6.4
			c-4.6,0-8.9,1.9-11.8,4.9c-0.9,0.9-1.6,1.8-2.2,2.7c-0.2,0.4-0.5,0.8-0.7,1.2c-0.8,1.5-1.3,3.1-1.5,4.7c-0.1-1-0.1-2-0.1-3
			c0-10.8,6.1-20.1,15.2-25c0.6-0.3,1.1-0.6,1.7-0.9c3.8-1.8,8.1-2.7,12.6-2.7s8.8,1,12.6,2.7c0.6,0.3,1.1,0.6,1.7,0.9
			C59.4,22,65.6,31.4,65.6,42.1z"/>
		<path class="st3" d="M49.2,31.5C43.8,31.5,39,34,36,37.9c-3-3.9-7.8-6.4-13.2-6.4c-4.6,0-8.9,1.9-11.8,4.9
			c-0.9,0.9-1.6,1.8-2.2,2.7c-0.2,0.4-0.5,0.8-0.7,1.2c-0.2,0.4-0.4,0.8-0.5,1.1c-0.3,0.8-0.6,1.6-0.8,2.4c-0.1,0.4-0.2,0.8-0.2,1.2
			C7,48.6,8,51.8,9.5,54.8c0.2,0.3,0.3,0.7,0.5,1c0.9,1.5,1.8,2.8,2.8,4.1c5.4,6.5,13.7,10.7,23.1,10.7S53.6,66.5,59,59.9
			c1.1-1.4,2.2-2.8,3-4.5c1.6-2.8,2.7-5.9,3.1-9.1c0-0.4,0.1-0.9,0.2-1.3C64.3,37.4,57.4,31.5,49.2,31.5z M24.8,52.1
			c-2.1,0-3.8-1.8-3.8-4.2s1.7-4.2,3.8-4.2s3.8,1.8,3.8,4.2C28.6,50.2,26.9,52.1,24.8,52.1z M47.2,52.1c-2.1,0-3.8-1.8-3.8-4.2
			s1.7-4.2,3.8-4.2c2.1,0,3.8,1.8,3.8,4.2C51,50.2,49.3,52.1,47.2,52.1z"/>
		<ellipse class="st3" cx="24.8" cy="47.9" rx="3.8" ry="4.2"/>
		<path class="st3" d="M51,47.9c0,2.3-1.7,4.2-3.8,4.2c-2.1,0-3.8-1.8-3.8-4.2s1.7-4.2,3.8-4.2C49.3,43.8,51,45.6,51,47.9z"/>
		<ellipse class="st4" cx="24.8" cy="47.9" rx="3.8" ry="4.2"/>
		<path class="st4" d="M39.8,60.8c0,2.3-1.7,4.2-3.8,4.2c-2.1,0-3.8-1.8-3.8-4.2"/>
		<path class="st4" d="M51,47.9c0,2.3-1.7,4.2-3.8,4.2c-2.1,0-3.8-1.8-3.8-4.2s1.7-4.2,3.8-4.2C49.3,43.8,51,45.6,51,47.9z"/>
	</g>
</g>
<g>
	<path class="st0" d="M174.6,45.3c-1-3.4-2.5-6.7-4.4-9.7c-1.8-2.9-4-5.6-6.6-8c-2.4-2.3-5.1-4.2-7.9-5.8c-0.1-0.7-0.3-1.3-0.6-2
		c-0.3-0.7-0.8-1.4-1.3-2c-0.1-1.1-0.2-2.3-0.4-3.4c-0.3-1.3-0.8-2.6-1.4-3.9c-0.8-1.6-1.8-3-2.9-4.3c-1.2-1.3-2.5-2.4-4-3.3
		C142.2,1,138.7,0,135,0s-7.2,1-10.3,2.9c-1.5,0.9-2.8,2-4,3.3c-1.2,1.3-2.1,2.7-2.9,4.3c-0.6,1.2-1.1,2.5-1.4,3.9
		c-0.3,1.1-0.4,2.3-0.4,3.4c-0.5,0.6-0.9,1.3-1.3,2c-0.3,0.6-0.4,1.3-0.6,2c-2.8,1.6-5.5,3.6-7.9,5.8c-2.5,2.4-4.7,5.1-6.6,8
		c-1.9,3-3.3,6.3-4.4,9.7c-1,3.5-1.5,7.1-1.5,10.9c0,1.4,0.1,2.8,0.3,4.2c0,0.1,0,0.1,0,0.2c0.3,2.3,0.8,4.6,1.4,6.9
		c0.7,2.3,1.6,4.4,2.7,6.5c0.2,0.4,0.4,0.9,0.8,1.4l0,0l0,0l0,0l0,0c1.1,2,2.5,4,4,5.7c1.9,2.3,4,4.4,6.4,6.2
		c2.3,1.8,4.9,3.4,7.6,4.7c2.8,1.3,5.7,2.3,8.7,3c3.2,0.6,6.3,1,9.5,1s6.4-0.4,9.4-1.1c3-0.7,5.9-1.7,8.7-3c2.7-1.3,5.3-2.8,7.6-4.7
		s4.5-3.9,6.4-6.2c1.6-2,3-4,4.2-6.2c2.2-4,3.7-8.3,4.4-12.8c0.1-0.5,0.2-1.1,0.3-1.7v-0.1c0.1-1.4,0.3-2.8,0.3-4.2
		C176.2,52.5,175.7,48.8,174.6,45.3z"/>
	<g>
		<path class="st1" d="M152.2,18.4L152.2,18.4c-0.8-0.8-2-1.5-3.2-1.8c-0.1-0.1-0.3-0.1-0.4-0.1h-0.1c-8.8-2.3-18.1-2.3-27,0
			c-0.2,0.1-0.4,0.1-0.5,0.1c-1.3,0.3-2.3,1-3.2,1.8l0,0c0-2.6,0.6-5,1.7-7.2c2.8-5.6,8.7-9.5,15.5-9.5c6.9,0,12.8,3.9,15.5,9.5
			C151.6,13.4,152.2,15.8,152.2,18.4z"/>
		<path class="st2" d="M154.1,22.9L154.1,22.9c-0.4-0.2-0.8-0.4-1.1-0.6c-0.4-0.2-0.8-0.4-1.1-0.6c-0.6-0.3-1.3-0.6-2-0.8
			c-0.6-0.3-1.3-0.5-2-0.8c-0.3-0.1-0.7-0.2-1-0.3c-3.8-1.1-7.8-1.8-11.9-1.8c-4.2,0-8.1,0.6-11.9,1.8c-0.3,0.1-0.7,0.2-1,0.3
			c-0.7,0.3-1.3,0.4-2,0.8l0,0c-0.6,0.3-1.3,0.5-2,0.8c-0.4,0.2-0.8,0.4-1.1,0.6c-0.4,0.2-0.8,0.4-1.1,0.6l0,0
			c0.1-1.7,0.8-3.3,1.9-4.5c0.8-0.9,2-1.5,3.2-1.8c0.2-0.1,0.3-0.1,0.5-0.1c8.8-2.3,18.1-2.3,27,0h0.1c0.1,0.1,0.3,0.1,0.4,0.1
			c1.3,0.3,2.3,1,3.2,1.8C153.4,19.6,154.1,21.2,154.1,22.9z"/>
		<path class="st1" d="M174.4,56.1c0,1.4-0.1,2.7-0.2,4C172.7,49.9,163.6,42,152.6,42c-7.2,0-13.6,3.3-17.6,8.5
			c-4-5.2-10.4-8.5-17.6-8.5c-6.2,0-11.8,2.5-15.8,6.5c-1.1,1.1-2.1,2.3-2.9,3.7c-0.3,0.5-0.6,1.1-0.9,1.6c-1,2-1.7,4.1-2,6.3
			c-0.1-1.3-0.2-2.7-0.2-4c0-14.3,8.1-26.8,20.3-33.3c0.8-0.4,1.5-0.8,2.3-1.1C123.3,19.3,129,18,135,18s11.7,1.3,16.9,3.7
			c0.8,0.4,1.5,0.8,2.3,1.1C166.2,29.4,174.4,41.8,174.4,56.1z"/>
		<path class="st3" d="M152.6,42c-7.2,0-13.6,3.3-17.6,8.5c-4-5.2-10.4-8.5-17.6-8.5c-6.2,0-11.8,2.5-15.8,6.5
			c-1.1,1.1-2.1,2.3-2.9,3.7c-0.3,0.5-0.6,1.1-0.9,1.6c-0.3,0.5-0.5,1-0.7,1.5c-0.4,1-0.8,2.1-1,3.2c-0.1,0.6-0.3,1.1-0.3,1.6
			c0.5,4.6,1.8,9,3.9,12.9c0.3,0.4,0.4,0.9,0.7,1.3c1.1,2,2.4,3.8,3.8,5.5c7.2,8.7,18.3,14.3,30.8,14.3s23.5-5.6,30.8-14.3
			c1.5-1.8,2.9-3.8,4-5.9c2.1-3.7,3.5-7.8,4.2-12.2c0.1-0.6,0.2-1.1,0.3-1.7C172.7,49.9,163.5,42,152.6,42z M120,69.5
			c-2.8,0-5.1-2.5-5.1-5.6c0-3.1,2.3-5.6,5.1-5.6c2.8,0,5.1,2.5,5.1,5.6C125.1,66.9,122.8,69.5,120,69.5z M150,69.5
			c-2.8,0-5.1-2.5-5.1-5.6c0-3.1,2.3-5.6,5.1-5.6s5.1,2.5,5.1,5.6C155,66.9,152.7,69.5,150,69.5z"/>
		<ellipse class="st3" cx="120" cy="63.9" rx="5.1" ry="5.6"/>
		<path class="st3" d="M155,63.9c0,3-2.3,5.6-5.1,5.6s-5.1-2.5-5.1-5.6c0-3.1,2.3-5.6,5.1-5.6C152.7,58.4,155,60.8,155,63.9z"/>
		<ellipse class="st4" cx="120" cy="63.9" rx="5.1" ry="5.6"/>
		<path class="st4" d="M140.1,81.1c0,3-2.3,5.6-5.1,5.6s-5.1-2.5-5.1-5.6"/>
		<path class="st4" d="M155,63.9c0,3-2.3,5.6-5.1,5.6s-5.1-2.5-5.1-5.6c0-3.1,2.3-5.6,5.1-5.6C152.7,58.4,155,60.8,155,63.9z"/>
	</g>
</g>
<g>
	<path class="st0" d="M329.4,67.9c-1.5-5.1-3.7-10-6.5-14.6c-2.7-4.4-6.1-8.4-9.9-12c-3.6-3.4-7.6-6.3-11.8-8.7
		c-0.2-1-0.5-2-0.9-2.9c-0.5-1-1.1-2.1-1.9-3c-0.1-1.7-0.3-3.5-0.7-5.1c-0.5-2-1.1-3.9-2.1-5.8c-1.1-2.4-2.7-4.5-4.4-6.4
		c-1.8-1.9-3.8-3.6-6-5C280.8,1.5,275.5,0,270,0s-10.8,1.5-15.4,4.4c-2.2,1.4-4.3,3-6,5c-1.8,1.9-3.2,4.1-4.4,6.4
		c-0.9,1.8-1.6,3.8-2.1,5.8c-0.4,1.7-0.7,3.4-0.7,5.1c-0.8,0.9-1.4,1.9-1.9,3c-0.4,0.9-0.7,2-0.9,2.9c-4.3,2.5-8.2,5.4-11.8,8.7
		c-3.8,3.6-7.1,7.6-9.9,12c-2.8,4.5-5,9.5-6.5,14.6c-1.5,5.3-2.3,10.7-2.3,16.3c0,2.1,0.1,4.2,0.4,6.3c0,0.1,0,0.2,0,0.3
		c0.4,3.5,1.1,6.9,2.1,10.3c1,3.4,2.4,6.6,4,9.8c0.3,0.7,0.7,1.3,1.1,2.1l0,0l0,0l0,0l0,0c1.7,3,3.8,6,6,8.6
		c2.8,3.4,6.1,6.5,9.6,9.3c3.5,2.7,7.4,5.1,11.5,7c4.2,2,8.5,3.5,13,4.5c4.7,0.9,9.5,1.5,14.2,1.5s9.6-0.6,14.1-1.6
		c4.5-1,8.8-2.6,13-4.5c4.1-1.9,8-4.3,11.5-7s6.7-5.9,9.6-9.3c2.5-2.9,4.5-6.1,6.3-9.3c3.3-6,5.5-12.5,6.5-19.2
		c0.1-0.8,0.3-1.6,0.4-2.6v-0.1c0.2-2.1,0.4-4.2,0.4-6.3C331.8,78.7,331,73.2,329.4,67.9z"/>
	<g>
		<path class="st1" d="M295.9,27.6L295.9,27.6c-1.2-1.2-2.9-2.3-4.8-2.7c-0.2-0.1-0.4-0.1-0.7-0.2h-0.1c-13.3-3.5-27.2-3.5-40.5,0
			c-0.3,0.1-0.6,0.1-0.8,0.2c-1.9,0.5-3.5,1.5-4.8,2.7l0,0c0-3.9,0.9-7.5,2.6-10.8c4.2-8.4,13-14.2,23.3-14.2s19.1,5.8,23.3,14.2
			C294.9,20.1,295.9,23.7,295.9,27.6z"/>
		<path class="st2" d="M298.7,34.3L298.7,34.3c-0.6-0.3-1.1-0.6-1.7-0.9c-0.6-0.3-1.1-0.6-1.7-0.9c-0.9-0.5-1.9-0.9-2.9-1.2
			c-0.9-0.4-2-0.8-3-1.1c-0.5-0.2-1-0.3-1.5-0.5c-5.7-1.7-11.7-2.7-17.9-2.7s-12.2,0.9-17.8,2.7c-0.5,0.2-1,0.3-1.5,0.5
			c-1,0.4-2,0.7-3,1.1l0,0c-0.9,0.4-2,0.8-2.9,1.2c-0.6,0.3-1.1,0.6-1.7,0.9c-0.6,0.3-1.1,0.6-1.7,0.9l0,0c0.1-2.6,1.1-4.9,2.8-6.7
			c1.2-1.3,2.9-2.3,4.8-2.7c0.3-0.1,0.5-0.1,0.8-0.2c13.3-3.5,27.2-3.5,40.5,0h0.1c0.2,0.1,0.4,0.1,0.7,0.2c1.9,0.5,3.5,1.5,4.8,2.7
			C297.6,29.4,298.6,31.7,298.7,34.3z"/>
		<path class="st1" d="M329.1,84.2c0,2.1-0.1,4.1-0.3,6.1C326.6,74.8,312.9,63,296.3,63c-10.8,0-20.4,5-26.3,12.8
			C264,68,254.5,63,243.7,63c-9.3,0-17.7,3.8-23.7,9.8c-1.7,1.7-3.1,3.5-4.4,5.5c-0.5,0.8-0.9,1.6-1.4,2.5c-1.5,2.9-2.6,6.2-3,9.5
			c-0.2-2-0.3-4-0.3-6.1c0-21.5,12.2-40.3,30.4-49.9c1.1-0.6,2.3-1.1,3.4-1.7C252.4,29,261,27,270,27s17.6,2,25.3,5.5
			c1.1,0.6,2.3,1.1,3.4,1.7C316.8,44.1,329.1,62.7,329.1,84.2z"/>
		<path class="st3" d="M296.3,63c-10.8,0-20.4,5-26.3,12.8C264,68,254.5,63,243.7,63c-9.3,0-17.7,3.8-23.7,9.8
			c-1.7,1.7-3.1,3.5-4.4,5.5c-0.5,0.8-0.9,1.6-1.4,2.5c-0.4,0.8-0.8,1.5-1,2.3c-0.7,1.5-1.1,3.1-1.5,4.7c-0.2,0.9-0.4,1.6-0.5,2.5
			c0.8,6.9,2.7,13.5,5.9,19.4c0.4,0.7,0.7,1.3,1,2c1.7,2.9,3.6,5.7,5.7,8.2c10.8,13.1,27.5,21.4,46.1,21.4
			c18.7,0,35.2-8.3,46.1-21.4c2.3-2.7,4.4-5.7,6.1-8.9c3.1-5.6,5.3-11.7,6.3-18.3c0.1-0.9,0.3-1.7,0.4-2.6
			C326.6,74.8,312.8,63,296.3,63z M247.5,104.2c-4.2,0-7.6-3.7-7.6-8.3s3.4-8.3,7.6-8.3c4.2,0,7.6,3.7,7.6,8.3
			C255.1,100.4,251.7,104.2,247.5,104.2z M292.5,104.2c-4.2,0-7.6-3.7-7.6-8.3s3.4-8.3,7.6-8.3s7.6,3.7,7.6,8.3
			C300,100.4,296.6,104.2,292.5,104.2z"/>
		<ellipse class="st3" cx="247.5" cy="95.9" rx="7.6" ry="8.3"/>
		<path class="st3" d="M300,95.9c0,4.5-3.4,8.3-7.6,8.3s-7.6-3.7-7.6-8.3s3.4-8.3,7.6-8.3C296.6,87.5,300,91.2,300,95.9z"/>
		<ellipse class="st4" cx="247.5" cy="95.9" rx="7.6" ry="8.3"/>
		<path class="st4" d="M277.6,121.6c0,4.5-3.4,8.3-7.6,8.3s-7.6-3.7-7.6-8.3"/>
		<path class="st4" d="M300,95.9c0,4.5-3.4,8.3-7.6,8.3s-7.6-3.7-7.6-8.3s3.4-8.3,7.6-8.3C296.6,87.5,300,91.2,300,95.9z"/>
	</g>
</g>
<g>
	<path class="st0" d="M510.3,79.2c-1.8-6-4.3-11.7-7.6-17c-3.2-5.1-7.1-9.8-11.5-14c-4.2-4-8.8-7.4-13.8-10.2
		c-0.2-1.2-0.6-2.3-1-3.4c-0.6-1.2-1.3-2.4-2.2-3.5c-0.1-2-0.3-4.1-0.8-6c-0.6-2.3-1.3-4.5-2.4-6.7c-1.3-2.8-3.1-5.2-5.1-7.5
		c-2.1-2.2-4.4-4.2-7-5.9c-5.3-3.2-11.5-5-17.9-5s-12.6,1.8-18,5.1c-2.5,1.7-5,3.5-7,5.9c-2.1,2.2-3.8,4.8-5.1,7.5
		c-1.1,2.1-1.9,4.4-2.4,6.7c-0.4,2-0.8,4-0.8,6c-0.9,1.1-1.7,2.2-2.2,3.5c-0.4,1.1-0.8,2.3-1,3.4c-5,2.9-9.6,6.3-13.8,10.2
		c-4.4,4.2-8.3,8.8-11.5,14c-3.3,5.3-5.9,11.1-7.6,17c-1.8,6.2-2.7,12.5-2.7,19c0,2.4,0.1,4.9,0.4,7.4c0,0.1,0,0.2,0,0.3
		c0.4,4.1,1.3,8.1,2.4,12c1.2,4,2.8,7.7,4.6,11.4c0.3,0.8,0.8,1.5,1.3,2.4l0,0l0,0l0,0l0,0c2,3.5,4.4,7,7,10.1
		c3.3,4,7.1,7.6,11.2,10.8c4.1,3.2,8.6,6,13.4,8.2c4.9,2.3,9.9,4.1,15.1,5.2c5.5,1.1,11.1,1.8,16.6,1.8s11.2-0.7,16.5-1.9
		c5.2-1.2,10.3-3,15.1-5.2c4.8-2.2,9.3-5,13.4-8.2c4.1-3.2,7.8-6.9,11.2-10.8c2.9-3.4,5.3-7.1,7.4-10.8c3.9-7,6.4-14.6,7.6-22.4
		c0.1-0.9,0.3-1.9,0.4-3v-0.1c0.2-2.4,0.4-4.9,0.4-7.4C513.1,91.8,512.2,85.4,510.3,79.2z"/>
	<g>
		<path class="st1" d="M471.2,32.2L471.2,32.2c-1.4-1.4-3.4-2.7-5.6-3.2c-0.2-0.1-0.4-0.1-0.8-0.2h-0.1c-15.5-4.1-31.7-4.1-47.2,0
			c-0.3,0.1-0.7,0.1-0.9,0.2c-2.2,0.6-4.1,1.8-5.6,3.2l0,0c0-4.5,1.1-8.7,3-12.6C418.8,9.7,429.1,3,441.1,3s22.3,6.7,27.2,16.6
			C470.1,23.4,471.2,27.6,471.2,32.2z"/>
		<path class="st2" d="M474.5,40L474.5,40c-0.7-0.3-1.3-0.7-2-1c-0.7-0.3-1.3-0.7-2-1c-1.1-0.6-2.2-1-3.4-1.4
			c-1.1-0.4-2.3-0.9-3.5-1.3c-0.6-0.2-1.2-0.3-1.8-0.6c-6.6-2-13.6-3.1-20.9-3.1s-14.3,1.1-20.8,3.1c-0.6,0.2-1.2,0.3-1.8,0.6
			c-1.2,0.4-2.3,0.8-3.5,1.3l0,0c-1.1,0.4-2.3,0.9-3.4,1.4c-0.7,0.3-1.3,0.7-2,1c-0.7,0.3-1.3,0.7-2,1l0,0c0.1-3,1.3-5.7,3.3-7.8
			c1.4-1.5,3.4-2.7,5.6-3.2c0.3-0.1,0.6-0.1,0.9-0.2c15.5-4.1,31.7-4.1,47.2,0h0.1c0.2,0.1,0.4,0.1,0.8,0.2c2.2,0.6,4.1,1.8,5.6,3.2
			C473.2,34.3,474.4,37,474.5,40z"/>
		<path class="st1" d="M510,98.3c0,2.4-0.1,4.8-0.3,7.1c-2.7-18-18.6-31.8-37.9-31.8c-12.6,0-23.8,5.9-30.7,14.9
			c-7-9.1-18.1-14.9-30.7-14.9c-10.8,0-20.7,4.4-27.6,11.4c-2,2-3.6,4.1-5.1,6.4c-0.6,0.9-1.1,1.9-1.7,2.9c-1.8,3.4-3,7.2-3.5,11.1
			c-0.2-2.3-0.3-4.6-0.3-7.1c0-25.1,14.3-47,35.5-58.2c1.3-0.7,2.7-1.3,4-2c9-4.1,19-6.4,29.5-6.4s20.6,2.3,29.5,6.4
			c1.3,0.7,2.7,1.3,4,2C495.6,51.4,510,73.2,510,98.3z"/>
		<path class="st3" d="M471.7,73.5c-12.6,0-23.8,5.9-30.7,14.9c-7-9.1-18.1-14.9-30.7-14.9c-10.8,0-20.7,4.4-27.6,11.4
			c-2,2-3.6,4.1-5.1,6.4c-0.6,0.9-1.1,1.9-1.7,2.9c-0.4,0.9-0.9,1.8-1.2,2.7c-0.8,1.8-1.3,3.6-1.8,5.5c-0.2,1-0.4,1.9-0.6,2.9
			c0.9,8.1,3.2,15.7,6.9,22.7c0.4,0.8,0.8,1.5,1.2,2.3c2,3.4,4.2,6.6,6.6,9.6c12.6,15.3,32.1,25,53.8,25c21.8,0,41.1-9.7,53.8-25
			c2.7-3.2,5.1-6.6,7.1-10.4c3.6-6.5,6.2-13.7,7.3-21.3c0.1-1,0.3-2,0.4-3C507,87.3,491,73.5,471.7,73.5z M414.8,121.6
			c-4.9,0-8.8-4.3-8.8-9.7c0-5.4,4-9.7,8.8-9.7s8.8,4.3,8.8,9.7C423.6,117.2,419.7,121.6,414.8,121.6z M467.2,121.6
			c-4.9,0-8.8-4.3-8.8-9.7c0-5.4,4-9.7,8.8-9.7s8.8,4.3,8.8,9.7C476,117.2,472.1,121.6,467.2,121.6z"/>
		<ellipse class="st3" cx="414.8" cy="111.9" rx="8.8" ry="9.7"/>
		<path class="st3" d="M476,111.9c0,5.3-4,9.7-8.8,9.7s-8.8-4.3-8.8-9.7c0-5.4,4-9.7,8.8-9.7C472.1,102.1,476,106.4,476,111.9z"/>
		<ellipse class="st4" cx="414.8" cy="111.9" rx="8.8" ry="9.7"/>
		<path class="st4" d="M449.8,141.9c0,5.3-4,9.7-8.8,9.7s-8.8-4.3-8.8-9.7"/>
		<path class="st4" d="M476,111.9c0,5.3-4,9.7-8.8,9.7s-8.8-4.3-8.8-9.7c0-5.4,4-9.7,8.8-9.7C472.1,102.1,476,106.4,476,111.9z"/>
	</g>
</g>
<g>
	<path class="st0" d="M715.2,90.6c-2-6.8-4.9-13.4-8.7-19.5c-3.7-5.8-8.1-11.2-13.1-16c-4.8-4.5-10.1-8.5-15.8-11.6
		c-0.3-1.4-0.6-2.7-1.1-3.9c-0.6-1.4-1.5-2.8-2.5-4c-0.1-2.3-0.4-4.7-0.9-6.8c-0.6-2.7-1.5-5.2-2.8-7.7c-1.5-3.2-3.5-5.9-5.8-8.6
		c-2.4-2.5-5.1-4.8-8-6.7C650.4,2,643.3,0,636,0s-14.4,2-20.6,5.8c-2.9,1.9-5.7,4-8,6.7c-2.4,2.5-4.3,5.4-5.8,8.6
		c-1.3,2.4-2.1,5.1-2.8,7.7c-0.5,2.3-0.9,4.5-0.9,6.8c-1,1.3-1.9,2.5-2.5,4c-0.5,1.3-0.9,2.7-1.1,3.9c-5.7,3.3-11,7.2-15.8,11.6
		c-5.1,4.8-9.5,10.1-13.1,16c-3.8,6.1-6.7,12.6-8.7,19.5c-2,7.1-3,14.3-3,21.7c0,2.8,0.1,5.6,0.5,8.5c0,0.1,0,0.3,0,0.4
		c0.5,4.7,1.5,9.2,2.8,13.8c1.4,4.5,3.2,8.8,5.3,13c0.4,0.9,0.9,1.8,1.5,2.8l0,0l0,0l0,0l0,0c2.3,4,5.1,8,8,11.5
		c3.8,4.5,8.1,8.7,12.8,12.4c4.7,3.7,9.9,6.8,15.3,9.3c5.6,2.7,11.4,4.7,17.3,5.9c6.3,1.3,12.6,2,18.9,2s12.8-0.8,18.8-2.1
		c5.9-1.4,11.7-3.4,17.3-5.9c5.4-2.5,10.6-5.7,15.3-9.3s9-7.8,12.8-12.4c3.3-3.9,6.1-8.1,8.5-12.4c4.4-8,7.3-16.7,8.7-25.6
		c0.1-1,0.4-2.1,0.5-3.4v-0.1c0.3-2.8,0.5-5.6,0.5-8.5C718.4,105,717.3,97.6,715.2,90.6z"/>
	<g>
		<path class="st1" d="M670.5,36.8L670.5,36.8c-1.6-1.6-3.9-3-6.4-3.7c-0.3-0.1-0.5-0.1-0.9-0.3H663c-17.7-4.7-36.3-4.7-53.9,0
			c-0.4,0.1-0.8,0.1-1,0.3c-2.5,0.6-4.7,2-6.4,3.7l0,0c0-5.2,1.3-10,3.4-14.4c5.6-11.2,17.3-18.9,31.1-18.9s25.5,7.7,31.1,18.9
			C669.2,26.8,670.5,31.6,670.5,36.8z"/>
		<path class="st2" d="M674.3,45.7L674.3,45.7c-0.8-0.4-1.5-0.8-2.3-1.1c-0.8-0.4-1.5-0.8-2.3-1.1c-1.3-0.6-2.5-1.1-3.9-1.6
			c-1.3-0.5-2.7-1-4-1.5c-0.6-0.3-1.4-0.4-2-0.6c-7.6-2.3-15.5-3.5-23.9-3.5c-8.3,0-16.3,1.3-23.7,3.5c-0.6,0.3-1.4,0.4-2,0.6
			c-1.4,0.5-2.7,0.9-4,1.5l0,0c-1.3,0.5-2.7,1-3.9,1.6c-0.8,0.4-1.5,0.8-2.3,1.1c-0.8,0.4-1.5,0.8-2.3,1.1l0,0
			c0.1-3.4,1.5-6.6,3.8-9c1.6-1.8,3.9-3,6.4-3.7c0.4-0.1,0.6-0.1,1-0.3c17.7-4.7,36.3-4.7,53.9,0h0.1c0.3,0.1,0.5,0.1,0.9,0.3
			c2.5,0.6,4.7,2,6.4,3.7C672.8,39.2,674.1,42.3,674.3,45.7z"/>
		<path class="st1" d="M714.8,112.3c0,2.8-0.1,5.4-0.4,8.1c-3-20.6-21.2-36.4-43.3-36.4c-14.4,0-27.2,6.7-35.1,17.1
			C628,90.7,615.3,84,600.9,84c-12.4,0-23.6,5.1-31.6,13c-2.3,2.3-4.2,4.7-5.8,7.3c-0.6,1-1.3,2.1-1.9,3.3c-2,3.9-3.4,8.2-4,12.6
			c-0.3-2.7-0.4-5.3-0.4-8.1c0-28.7,16.3-53.7,40.5-66.6c1.5-0.8,3-1.5,4.5-2.3C612.5,38.7,624,36,636,36s23.5,2.7,33.7,7.3
			c1.5,0.8,3,1.5,4.5,2.3C698.4,58.7,714.8,83.6,714.8,112.3z"/>
		<path class="st3" d="M671.1,84c-14.4,0-27.2,6.7-35.1,17.1C628,90.7,615.3,84,600.9,84c-12.4,0-23.6,5.1-31.6,13
			c-2.3,2.3-4.2,4.7-5.8,7.3c-0.6,1-1.3,2.1-1.9,3.3c-0.5,1-1,2-1.4,3c-0.9,2-1.5,4.2-2,6.3c-0.3,1.1-0.5,2.1-0.6,3.3
			c1,9.2,3.7,17.9,7.8,25.9c0.5,0.9,0.9,1.8,1.4,2.7c2.3,3.9,4.8,7.6,7.6,11c14.4,17.4,36.6,28.5,61.5,28.5s47-11.1,61.5-28.5
			c3-3.7,5.8-7.6,8.1-11.9c4.2-7.5,7.1-15.7,8.3-24.4c0.1-1.1,0.4-2.3,0.5-3.4C711.4,99.8,693.1,84,671.1,84z M606.1,138.9
			c-5.6,0-10.1-4.9-10.1-11.1c0-6.2,4.5-11.1,10.1-11.1c5.6,0,10.1,4.9,10.1,11.1C616.2,133.9,611.6,138.9,606.1,138.9z
			 M665.9,138.9c-5.6,0-10.1-4.9-10.1-11.1c0-6.2,4.5-11.1,10.1-11.1c5.6,0,10.1,4.9,10.1,11.1C676,133.9,671.5,138.9,665.9,138.9z"
			/>
		<ellipse class="st3" cx="606.1" cy="127.8" rx="10.1" ry="11.1"/>
		<path class="st3" d="M676,127.8c0,6.1-4.5,11.1-10.1,11.1c-5.6,0-10.1-4.9-10.1-11.1c0-6.2,4.5-11.1,10.1-11.1
			C671.5,116.7,676,121.6,676,127.8z"/>
		<ellipse class="st4" cx="606.1" cy="127.8" rx="10.1" ry="11.1"/>
		<path class="st4" d="M646.1,162.2c0,6.1-4.5,11.1-10.1,11.1s-10.1-4.9-10.1-11.1"/>
		<path class="st4" d="M676,127.8c0,6.1-4.5,11.1-10.1,11.1c-5.6,0-10.1-4.9-10.1-11.1c0-6.2,4.5-11.1,10.1-11.1
			C671.5,116.7,676,121.6,676,127.8z"/>
	</g>
</g>
</svg>
