<?xml version="1.0" encoding="utf-8"?>
<!-- Generator: Adobe Illustrator 24.0.2, SVG Export Plug-In . SVG Version: 6.00 Build 0)  -->
<svg version="1.1" id="logo" xmlns="http://www.w3.org/2000/svg" xmlns:xlink="http://www.w3.org/1999/xlink" x="0px" y="0px"
	 viewBox="0 0 152 152" style="enable-background:new 0 0 152 152;" xml:space="preserve">
<style type="text/css">
	.st0{fill:#FFFFFF;}
	.st1{fill:#543E28;}
	.st2{fill:#147979;}
	.st3{fill:#F4E3D0;}
	.st4{fill:#090709;}
</style>
<g>
	<path class="st0" d="M-166.6,35.9c-0.8-2.7-1.9-5.3-3.4-7.7c-1.4-2.3-3.2-4.4-5.2-6.3c-1.9-1.8-4-3.3-6.2-4.6
		c-0.1-0.5-0.2-1.1-0.5-1.6c-0.2-0.6-0.6-1.1-1-1.6c0-0.9-0.2-1.8-0.4-2.7c-0.2-1-0.6-2.1-1.1-3c-0.6-1.2-1.4-2.4-2.3-3.4
		c-0.9-1-2-1.9-3.2-2.6c-2.4-1.5-5.2-2.3-8.1-2.3c-2.9,0-5.7,0.8-8.1,2.3c-1.2,0.7-2.2,1.6-3.2,2.6c-0.9,1-1.7,2.2-2.3,3.4
		c-0.5,1-0.8,2-1.1,3c-0.2,0.9-0.3,1.8-0.4,2.7c-0.4,0.5-0.7,1-1,1.6c-0.2,0.5-0.4,1-0.5,1.6c-2.3,1.3-4.4,2.8-6.2,4.6
		c-2,1.9-3.7,4-5.2,6.3c-1.5,2.4-2.6,5-3.4,7.7c-0.8,2.8-1.2,5.7-1.2,8.6c0,1.1,0.1,2.2,0.2,3.3c0,0,0,0.1,0,0.1
		c0.2,1.8,0.6,3.7,1.1,5.4c0.5,1.8,1.2,3.5,2.1,5.2c0.2,0.3,0.4,0.7,0.6,1.1c0,0,0,0,0,0v0l0,0l0,0c0.9,1.6,2,3.1,3.2,4.6
		c1.5,1.8,3.2,3.4,5,4.9c1.9,1.5,3.9,2.7,6,3.7c2.2,1,4.5,1.8,6.9,2.4c2.4,0.6,4.9,0.8,7.5,0.8c2.5,0,5-0.3,7.5-0.8
		c2.4-0.5,4.7-1.3,6.9-2.4c2.1-1,4.2-2.3,6-3.7c1.9-1.4,3.6-3.1,5-4.9c1.3-1.5,2.4-3.2,3.3-4.9c1.8-3.2,2.9-6.6,3.5-10.1
		c0.1-0.4,0.1-0.9,0.2-1.3c0,0,0,0,0-0.1c0.1-1.1,0.2-2.2,0.2-3.3C-165.4,41.5-165.8,38.6-166.6,35.9z"/>
	<g>
		<path class="st1" d="M-184.4,14.6L-184.4,14.6c-0.7-0.7-1.5-1.2-2.5-1.4c-0.1,0-0.2-0.1-0.3-0.1c0,0,0,0-0.1,0
			c-7-1.8-14.4-1.8-21.4,0c-0.1,0-0.3,0.1-0.4,0.1c-1,0.3-1.9,0.8-2.5,1.5v0c0-2,0.5-4,1.3-5.7c2.2-4.4,6.9-7.5,12.3-7.5
			c5.4,0,10.1,3.1,12.3,7.5C-184.8,10.6-184.4,12.5-184.4,14.6z"/>
		<path class="st2" d="M-182.9,18.1L-182.9,18.1c-0.3-0.2-0.6-0.3-0.9-0.5c-0.3-0.2-0.6-0.3-0.9-0.4c-0.5-0.2-1-0.5-1.5-0.7
			c-0.5-0.2-1.1-0.4-1.6-0.6c-0.3-0.1-0.5-0.2-0.8-0.3c-3-0.9-6.1-1.4-9.4-1.4c-3.3,0-6.4,0.5-9.4,1.4c-0.3,0.1-0.5,0.2-0.8,0.3
			c-0.5,0.2-1.1,0.4-1.6,0.6h0c-0.5,0.2-1,0.4-1.5,0.7c-0.3,0.1-0.6,0.3-0.9,0.4c-0.3,0.1-0.6,0.3-0.9,0.5h0c0-1.3,0.6-2.6,1.5-3.5
			c0.7-0.7,1.5-1.2,2.5-1.5c0.1,0,0.3-0.1,0.4-0.1c7-1.8,14.4-1.8,21.4,0c0,0,0,0,0.1,0c0.1,0,0.2,0.1,0.3,0.1
			c1,0.3,1.9,0.8,2.5,1.5C-183.4,15.5-182.9,16.8-182.9,18.1z"/>
		<path class="st1" d="M-166.8,44.5c0,1.1-0.1,2.1-0.2,3.2c-1.2-8.1-8.4-14.4-17.1-14.4c-5.7,0-10.7,2.7-13.9,6.7
			c-3.2-4.1-8.2-6.7-13.9-6.7c-4.9,0-9.3,2-12.5,5.2c-0.9,0.9-1.7,1.9-2.3,2.9c-0.3,0.4-0.5,0.9-0.7,1.3c-0.8,1.6-1.3,3.2-1.6,5
			c-0.1-1-0.2-2.1-0.2-3.2c0-11.3,6.5-21.2,16-26.4c0.6-0.3,1.2-0.6,1.8-0.9c4-1.9,8.6-2.9,13.4-2.9s9.3,1,13.4,2.9
			c0.6,0.3,1.2,0.6,1.8,0.9C-173.3,23.2-166.8,33.1-166.8,44.5z"/>
		<path class="st3" d="M-184.1,33.3c-5.7,0-10.7,2.7-13.9,6.7c-3.2-4.1-8.2-6.7-13.9-6.7c-4.9,0-9.3,2-12.5,5.2
			c-0.9,0.9-1.7,1.9-2.3,2.9c-0.3,0.4-0.5,0.9-0.7,1.3c-0.2,0.4-0.4,0.8-0.5,1.2c-0.3,0.8-0.6,1.6-0.8,2.5c-0.1,0.4-0.2,0.9-0.2,1.3
			c0.4,3.7,1.5,7.1,3.1,10.3c0.2,0.4,0.4,0.7,0.6,1.1c0.9,1.5,1.9,3,3,4.4c5.7,6.9,14.5,11.3,24.3,11.3s18.6-4.4,24.3-11.3
			c1.2-1.5,2.3-3,3.2-4.7c1.6-3,2.8-6.2,3.3-9.7c0.1-0.4,0.1-0.9,0.2-1.3C-168.2,39.5-175.4,33.3-184.1,33.3z M-209.8,55
			c-2.2,0-4-2-4-4.4c0-2.4,1.8-4.4,4-4.4c2.2,0,4,2,4,4.4C-205.8,53-207.6,55-209.8,55z M-186.2,55c-2.2,0-4-2-4-4.4
			c0-2.4,1.8-4.4,4-4.4s4,2,4,4.4C-182.2,53-183.9,55-186.2,55z"/>
		<ellipse class="st3" cx="-209.8" cy="50.6" rx="4" ry="4.4"/>
		<path class="st3" d="M-182.2,50.6c0,2.4-1.8,4.4-4,4.4c-2.2,0-4-2-4-4.4c0-2.4,1.8-4.4,4-4.4C-183.9,46.2-182.2,48.2-182.2,50.6z"
			/>
		<ellipse class="st4" cx="-209.8" cy="50.6" rx="4" ry="4.4"/>
		<path class="st4" d="M-194,64.2c0,2.4-1.8,4.4-4,4.4s-4-2-4-4.4"/>
		<path class="st4" d="M-182.2,50.6c0,2.4-1.8,4.4-4,4.4c-2.2,0-4-2-4-4.4c0-2.4,1.8-4.4,4-4.4C-183.9,46.2-182.2,48.2-182.2,50.6z"
			/>
	</g>
</g>
<g>
	<path class="st0" d="M-30.5,56.6c-1.2-4.3-3.1-8.3-5.4-12.1c-2.3-3.7-5-7-8.2-10c-3-2.8-6.3-5.3-9.9-7.3c-0.1-0.8-0.4-1.7-0.7-2.5
		c-0.4-0.9-0.9-1.8-1.5-2.5c-0.1-1.4-0.3-2.9-0.6-4.3c-0.4-1.7-1-3.3-1.7-4.8c-1-1.9-2.2-3.7-3.7-5.3c-1.5-1.6-3.1-3-5-4.1
		C-71,1.3-75.4,0-80,0c-4.6,0-9,1.3-12.8,3.6c-1.9,1.2-3.5,2.5-5,4.1c-1.5,1.6-2.7,3.4-3.7,5.3c-0.8,1.5-1.3,3.1-1.7,4.8
		c-0.3,1.4-0.5,2.8-0.6,4.3c-0.6,0.8-1.1,1.6-1.5,2.5c-0.3,0.8-0.6,1.6-0.7,2.5c-3.6,2-6.9,4.5-9.9,7.3c-3.2,3-5.9,6.3-8.2,10
		c-2.4,3.8-4.2,7.9-5.4,12.1c-1.3,4.4-1.9,8.9-1.9,13.5c0,1.7,0.1,3.5,0.3,5.3c0,0.1,0,0.1,0,0.2c0.3,2.9,0.9,5.8,1.8,8.6
		c0.9,2.8,2,5.6,3.3,8.2c0.3,0.5,0.6,1.1,0.9,1.7c0,0,0,0,0,0v0l0,0l0,0c1.4,2.5,3.1,5,5,7.2c2.4,2.8,5,5.4,8,7.7
		c2.9,2.3,6.2,4.3,9.5,5.9c3.4,1.6,7.1,2.9,10.8,3.7c3.8,0.9,7.8,1.3,11.8,1.3c4,0,7.9-0.4,11.8-1.3c3.7-0.8,7.4-2.1,10.8-3.7
		c3.4-1.6,6.6-3.6,9.5-5.9c2.9-2.3,5.6-4.9,8-7.7c2-2.4,3.8-5,5.3-7.7c2.8-5,4.6-10.4,5.5-16c0.1-0.7,0.2-1.3,0.3-2.1
		c0,0,0-0.1,0-0.1c0.2-1.7,0.3-3.5,0.3-5.3C-28.6,65.6-29.2,61-30.5,56.6z"/>
	<g>
		<path class="st1" d="M-58.5,23L-58.5,23c-1.1-1.1-2.4-1.9-4-2.3c-0.2-0.1-0.3-0.1-0.5-0.1c0,0-0.1,0-0.1,0
			c-11.1-2.9-22.7-2.9-33.7,0c-0.2,0.1-0.4,0.1-0.7,0.2c-1.6,0.4-2.9,1.2-4,2.3v0c0-3.2,0.8-6.3,2.1-9C-96,7-88.6,2.2-80,2.2
			c8.6,0,16,4.8,19.4,11.8C-59.2,16.7-58.5,19.8-58.5,23z"/>
		<path class="st2" d="M-56.1,28.6L-56.1,28.6c-0.5-0.2-0.9-0.5-1.4-0.7c-0.5-0.2-0.9-0.5-1.4-0.7c-0.8-0.4-1.6-0.7-2.4-1
			c-0.8-0.3-1.7-0.6-2.5-0.9c-0.4-0.1-0.8-0.3-1.3-0.4c-4.7-1.4-9.7-2.2-14.9-2.2c-5.2,0-10.2,0.8-14.9,2.2
			c-0.4,0.1-0.9,0.3-1.3,0.4c-0.8,0.3-1.7,0.6-2.5,0.9h0c-0.8,0.3-1.6,0.7-2.4,1c-0.5,0.2-1,0.5-1.4,0.7c-0.5,0.2-0.9,0.5-1.4,0.7h0
			c0-2.1,0.9-4.1,2.4-5.6c1.1-1.1,2.4-1.9,4-2.3c0.2-0.1,0.4-0.1,0.7-0.2c11.1-2.9,22.7-2.9,33.7,0c0,0,0.1,0,0.1,0
			c0.2,0.1,0.4,0.1,0.5,0.1c1.6,0.4,3,1.2,4,2.3C-57,24.5-56.1,26.5-56.1,28.6z"/>
		<path class="st1" d="M-30.8,70.2c0,1.7-0.1,3.4-0.3,5c-1.9-12.8-13.3-22.7-27.1-22.7c-9,0-16.9,4.2-21.9,10.7
			c-5-6.5-12.9-10.7-21.9-10.7c-7.8,0-14.8,3.1-19.7,8.1c-1.4,1.4-2.6,2.9-3.7,4.6c-0.4,0.7-0.8,1.3-1.2,2c-1.2,2.4-2.1,5.1-2.5,7.9
			c-0.2-1.7-0.3-3.3-0.3-5c0-17.9,10.2-33.5,25.3-41.6c0.9-0.5,1.9-1,2.8-1.4c6.4-2.9,13.5-4.6,21.1-4.6c7.5,0,14.7,1.6,21.1,4.6
			c1,0.4,1.9,0.9,2.8,1.4C-41,36.7-30.8,52.3-30.8,70.2z"/>
		<path class="st3" d="M-58.1,52.5c-9,0-16.9,4.2-21.9,10.7c-5-6.5-12.9-10.7-21.9-10.7c-7.8,0-14.8,3.1-19.7,8.1
			c-1.4,1.4-2.6,2.9-3.7,4.6c-0.4,0.7-0.8,1.3-1.2,2c-0.3,0.6-0.6,1.2-0.9,1.9c-0.5,1.3-0.9,2.6-1.3,4c-0.2,0.7-0.3,1.4-0.4,2.1
			c0.6,5.8,2.3,11.2,4.9,16.2c0.3,0.6,0.6,1.1,0.9,1.7c1.4,2.4,3,4.7,4.8,6.9c9,10.9,22.9,17.8,38.4,17.8s29.4-7,38.4-17.8
			c1.9-2.3,3.6-4.8,5-7.4c2.6-4.7,4.4-9.8,5.2-15.3c0.1-0.7,0.2-1.4,0.3-2.1C-32.9,62.4-44.3,52.5-58.1,52.5z M-98.7,86.8
			c-3.5,0-6.3-3.1-6.3-6.9c0-3.8,2.8-6.9,6.3-6.9c3.5,0,6.3,3.1,6.3,6.9C-92.4,83.7-95.2,86.8-98.7,86.8z M-61.3,86.8
			c-3.5,0-6.3-3.1-6.3-6.9c0-3.8,2.8-6.9,6.3-6.9c3.5,0,6.3,3.1,6.3,6.9C-55,83.7-57.8,86.8-61.3,86.8z"/>
		<ellipse class="st3" cx="-98.7" cy="79.9" rx="6.3" ry="6.9"/>
		<path class="st3" d="M-55,79.9c0,3.8-2.8,6.9-6.3,6.9c-3.5,0-6.3-3.1-6.3-6.9c0-3.8,2.8-6.9,6.3-6.9C-57.8,72.9-55,76-55,79.9z"/>
		<ellipse class="st4" cx="-98.7" cy="79.9" rx="6.3" ry="6.9"/>
		<path class="st4" d="M-73.7,101.3c0,3.8-2.8,6.9-6.3,6.9c-3.5,0-6.3-3.1-6.3-6.9"/>
		<path class="st4" d="M-55,79.9c0,3.8-2.8,6.9-6.3,6.9c-3.5,0-6.3-3.1-6.3-6.9c0-3.8,2.8-6.9,6.3-6.9C-57.8,72.9-55,76-55,79.9z"/>
	</g>
</g>
<g>
	<path class="st0" d="M138.7,71.7c-1.6-5.4-3.9-10.6-6.9-15.4c-2.9-4.6-6.4-8.9-10.4-12.7c-3.8-3.6-8-6.7-12.5-9.2
		c-0.2-1.1-0.5-2.1-0.9-3.1c-0.5-1.1-1.2-2.2-2-3.2c-0.1-1.8-0.3-3.7-0.7-5.4c-0.5-2.1-1.2-4.1-2.2-6.1c-1.2-2.5-2.8-4.7-4.6-6.8
		c-1.9-2-4-3.8-6.3-5.3C87.4,1.6,81.8,0,76,0c-5.8,0-11.4,1.6-16.3,4.6c-2.3,1.5-4.5,3.2-6.3,5.3c-1.9,2-3.4,4.3-4.6,6.8
		c-1,1.9-1.7,4-2.2,6.1c-0.4,1.8-0.7,3.6-0.7,5.4c-0.8,1-1.5,2-2,3.2c-0.4,1-0.7,2.1-0.9,3.1c-4.5,2.6-8.7,5.7-12.5,9.2
		c-4,3.8-7.5,8-10.4,12.7c-3,4.8-5.3,10-6.9,15.4c-1.6,5.6-2.4,11.3-2.4,17.2c0,2.2,0.1,4.4,0.4,6.7c0,0.1,0,0.2,0,0.3
		c0.4,3.7,1.2,7.3,2.2,10.9c1.1,3.6,2.5,7,4.2,10.3c0.3,0.7,0.7,1.4,1.2,2.2c0,0,0,0,0,0v0l0,0l0,0c1.8,3.2,4,6.3,6.3,9.1
		c3,3.6,6.4,6.9,10.1,9.8c3.7,2.9,7.8,5.4,12.1,7.4c4.4,2.1,9,3.7,13.7,4.7C66,151.4,71,152,76,152s10.1-0.6,14.9-1.7
		c4.7-1.1,9.3-2.7,13.7-4.7c4.3-2,8.4-4.5,12.1-7.4c3.7-2.9,7.1-6.2,10.1-9.8c2.6-3.1,4.8-6.4,6.7-9.8c3.5-6.3,5.8-13.2,6.9-20.3
		c0.1-0.8,0.3-1.7,0.4-2.7c0,0,0-0.1,0-0.1c0.2-2.2,0.4-4.4,0.4-6.7C141.2,83.1,140.4,77.3,138.7,71.7z"/>
	<g>
		<path class="st1" d="M103.3,29.1L103.3,29.1c-1.3-1.3-3.1-2.4-5.1-2.9c-0.2-0.1-0.4-0.1-0.7-0.2c0,0-0.1,0-0.1,0
			c-14-3.7-28.7-3.7-42.7,0c-0.3,0.1-0.6,0.1-0.8,0.2c-2,0.5-3.7,1.6-5.1,2.9v0c0-4.1,1-7.9,2.7-11.4c4.4-8.9,13.7-15,24.6-15
			c10.9,0,20.2,6.1,24.6,15C102.3,21.2,103.3,25,103.3,29.1z"/>
		<path class="st2" d="M106.3,36.2L106.3,36.2c-0.6-0.3-1.2-0.6-1.8-0.9c-0.6-0.3-1.2-0.6-1.8-0.9c-1-0.5-2-0.9-3.1-1.3
			c-1-0.4-2.1-0.8-3.2-1.2c-0.5-0.2-1.1-0.3-1.6-0.5c-6-1.8-12.3-2.8-18.9-2.8c-6.6,0-12.9,1-18.8,2.8c-0.5,0.2-1.1,0.3-1.6,0.5
			c-1.1,0.4-2.1,0.7-3.2,1.2h0c-1,0.4-2.1,0.8-3.1,1.3c-0.6,0.3-1.2,0.6-1.8,0.9c-0.6,0.3-1.2,0.6-1.8,0.9h0c0.1-2.7,1.2-5.2,3-7.1
			c1.3-1.4,3.1-2.4,5.1-2.9c0.3-0.1,0.5-0.1,0.8-0.2c14-3.7,28.7-3.7,42.7,0c0,0,0.1,0,0.1,0c0.2,0.1,0.4,0.1,0.7,0.2
			c2,0.5,3.7,1.6,5.1,2.9C105.1,31,106.2,33.5,106.3,36.2z"/>
		<path class="st1" d="M138.4,88.9c0,2.2-0.1,4.3-0.3,6.4c-2.4-16.3-16.8-28.8-34.3-28.8C92.4,66.5,82.3,71.8,76,80
			c-6.3-8.2-16.4-13.5-27.8-13.5c-9.8,0-18.7,4-25,10.3c-1.8,1.8-3.3,3.7-4.6,5.8c-0.5,0.8-1,1.7-1.5,2.6c-1.6,3.1-2.7,6.5-3.2,10
			c-0.2-2.1-0.3-4.2-0.3-6.4c0-22.7,12.9-42.5,32.1-52.7c1.2-0.6,2.4-1.2,3.6-1.8c8.1-3.7,17.2-5.8,26.7-5.8s18.6,2.1,26.7,5.8
			c1.2,0.6,2.4,1.2,3.6,1.8C125.4,46.5,138.4,66.2,138.4,88.9z"/>
		<path class="st3" d="M103.8,66.5C92.4,66.5,82.3,71.8,76,80c-6.3-8.2-16.4-13.5-27.8-13.5c-9.8,0-18.7,4-25,10.3
			c-1.8,1.8-3.3,3.7-4.6,5.8c-0.5,0.8-1,1.7-1.5,2.6c-0.4,0.8-0.8,1.6-1.1,2.4c-0.7,1.6-1.2,3.3-1.6,5c-0.2,0.9-0.4,1.7-0.5,2.6
			c0.8,7.3,2.9,14.2,6.2,20.5c0.4,0.7,0.7,1.4,1.1,2.1c1.8,3.1,3.8,6,6,8.7c11.4,13.8,29,22.6,48.7,22.6s37.2-8.8,48.7-22.6
			c2.4-2.9,4.6-6,6.4-9.4c3.3-5.9,5.6-12.4,6.6-19.3c0.1-0.9,0.3-1.8,0.4-2.7C135.7,79,121.2,66.5,103.8,66.5z M52.3,110
			c-4.4,0-8-3.9-8-8.8c0-4.9,3.6-8.8,8-8.8s8,3.9,8,8.8C60.3,106,56.7,110,52.3,110z M99.7,110c-4.4,0-8-3.9-8-8.8
			c0-4.9,3.6-8.8,8-8.8s8,3.9,8,8.8C107.7,106,104.1,110,99.7,110z"/>
		<ellipse class="st3" cx="52.3" cy="101.2" rx="8" ry="8.8"/>
		<path class="st3" d="M107.7,101.2c0,4.8-3.6,8.8-8,8.8c-4.4,0-8-3.9-8-8.8c0-4.9,3.6-8.8,8-8.8C104.1,92.4,107.7,96.3,107.7,101.2
			z"/>
		<ellipse class="st4" cx="52.3" cy="101.2" rx="8" ry="8.8"/>
		<path class="st4" d="M84,128.4c0,4.8-3.6,8.8-8,8.8c-4.4,0-8-3.9-8-8.8"/>
		<path class="st4" d="M107.7,101.2c0,4.8-3.6,8.8-8,8.8c-4.4,0-8-3.9-8-8.8c0-4.9,3.6-8.8,8-8.8C104.1,92.4,107.7,96.3,107.7,101.2
			z"/>
	</g>
</g>
<g>
	<path class="st0" d="M-261.2,28.3c-0.6-2.1-1.5-4.2-2.7-6.1c-1.1-1.8-2.5-3.5-4.1-5c-1.5-1.4-3.1-2.6-4.9-3.6
		c-0.1-0.4-0.2-0.8-0.4-1.2c-0.2-0.5-0.5-0.9-0.8-1.3c0-0.7-0.1-1.4-0.3-2.1c-0.2-0.8-0.5-1.6-0.9-2.4c-0.5-1-1.1-1.9-1.8-2.7
		c-0.7-0.8-1.6-1.5-2.5-2.1c-1.9-1.2-4.1-1.8-6.4-1.8c-2.3,0-4.5,0.6-6.4,1.8c-0.9,0.6-1.8,1.3-2.5,2.1c-0.7,0.8-1.4,1.7-1.8,2.7
		c-0.4,0.8-0.7,1.6-0.9,2.4c-0.2,0.7-0.3,1.4-0.3,2.1c-0.3,0.4-0.6,0.8-0.8,1.3c-0.2,0.4-0.3,0.8-0.4,1.2c-1.8,1-3.4,2.2-4.9,3.7
		c-1.6,1.5-3,3.2-4.1,5c-1.2,1.9-2.1,3.9-2.7,6.1c-0.6,2.2-1,4.5-1,6.8c0,0.9,0,1.7,0.1,2.6c0,0,0,0.1,0,0.1
		c0.2,1.5,0.5,2.9,0.9,4.3c0.4,1.4,1,2.8,1.7,4.1c0.1,0.3,0.3,0.5,0.5,0.9c0,0,0,0,0,0v0l0,0l0,0c0.7,1.3,1.6,2.5,2.5,3.6
		c1.2,1.4,2.5,2.7,4,3.9c1.5,1.1,3.1,2.1,4.8,2.9c1.7,0.8,3.5,1.4,5.4,1.9c1.9,0.4,3.9,0.7,5.9,0.7c2,0,4-0.2,5.9-0.7
		c1.9-0.4,3.7-1.1,5.4-1.9c1.7-0.8,3.3-1.8,4.8-2.9c1.5-1.1,2.8-2.4,4-3.9c1-1.2,1.9-2.5,2.6-3.9c1.4-2.5,2.3-5.2,2.7-8
		c0.1-0.3,0.1-0.7,0.1-1.1c0,0,0,0,0-0.1c0.1-0.9,0.1-1.7,0.1-2.6C-260.3,32.8-260.6,30.5-261.2,28.3z"/>
	<g>
		<path class="st1" d="M-275.2,11.5L-275.2,11.5c-0.5-0.5-1.2-0.9-2-1.1c-0.1,0-0.2,0-0.3-0.1c0,0,0,0,0,0c-5.5-1.4-11.3-1.4-16.9,0
			c-0.1,0-0.2,0.1-0.3,0.1c-0.8,0.2-1.5,0.6-2,1.2v0c0-1.6,0.4-3.1,1-4.5c1.7-3.5,5.4-5.9,9.7-5.9c4.3,0,8,2.4,9.7,5.9
			C-275.6,8.4-275.2,9.9-275.2,11.5z"/>
		<path class="st2" d="M-274,14.3L-274,14.3c-0.2-0.1-0.5-0.2-0.7-0.4c-0.2-0.1-0.5-0.2-0.7-0.3c-0.4-0.2-0.8-0.4-1.2-0.5
			c-0.4-0.2-0.8-0.3-1.2-0.5c-0.2-0.1-0.4-0.1-0.6-0.2c-2.3-0.7-4.8-1.1-7.4-1.1c-2.6,0-5.1,0.4-7.4,1.1c-0.2,0.1-0.4,0.1-0.6,0.2
			c-0.4,0.1-0.8,0.3-1.2,0.5h0c-0.4,0.2-0.8,0.3-1.2,0.5c-0.2,0.1-0.5,0.2-0.7,0.3c-0.2,0.1-0.5,0.2-0.7,0.4h0c0-1.1,0.5-2,1.2-2.8
			c0.5-0.5,1.2-0.9,2-1.2c0.1,0,0.2-0.1,0.3-0.1c5.5-1.4,11.3-1.4,16.9,0c0,0,0,0,0,0c0.1,0,0.2,0,0.3,0.1c0.8,0.2,1.5,0.6,2,1.2
			C-274.5,12.2-274.1,13.2-274,14.3z"/>
		<path class="st1" d="M-261.4,35.1c0,0.8,0,1.7-0.1,2.5c-0.9-6.4-6.6-11.4-13.5-11.4c-4.5,0-8.5,2.1-11,5.3
			c-2.5-3.2-6.5-5.3-11-5.3c-3.9,0-7.4,1.6-9.9,4.1c-0.7,0.7-1.3,1.5-1.8,2.3c-0.2,0.3-0.4,0.7-0.6,1c-0.6,1.2-1.1,2.6-1.3,4
			c-0.1-0.8-0.1-1.7-0.1-2.5c0-9,5.1-16.8,12.7-20.8c0.5-0.2,0.9-0.5,1.4-0.7c3.2-1.5,6.8-2.3,10.5-2.3c3.8,0,7.3,0.8,10.5,2.3
			c0.5,0.2,1,0.5,1.4,0.7C-266.5,18.3-261.4,26.1-261.4,35.1z"/>
		<path class="st3" d="M-275,26.3c-4.5,0-8.5,2.1-11,5.3c-2.5-3.2-6.5-5.3-11-5.3c-3.9,0-7.4,1.6-9.9,4.1c-0.7,0.7-1.3,1.5-1.8,2.3
			c-0.2,0.3-0.4,0.7-0.6,1c-0.2,0.3-0.3,0.6-0.4,0.9c-0.3,0.6-0.5,1.3-0.6,2c-0.1,0.3-0.1,0.7-0.2,1c0.3,2.9,1.2,5.6,2.4,8.1
			c0.1,0.3,0.3,0.6,0.5,0.8c0.7,1.2,1.5,2.4,2.4,3.4c4.5,5.4,11.4,8.9,19.2,8.9c7.8,0,14.7-3.5,19.2-8.9c1-1.2,1.8-2.4,2.5-3.7
			c1.3-2.3,2.2-4.9,2.6-7.6c0.1-0.3,0.1-0.7,0.1-1.1C-262.4,31.2-268.1,26.3-275,26.3z M-295.3,43.4c-1.7,0-3.2-1.6-3.2-3.5
			c0-1.9,1.4-3.5,3.2-3.5s3.2,1.6,3.2,3.5C-292.2,41.9-293.6,43.4-295.3,43.4z M-276.7,43.4c-1.7,0-3.2-1.6-3.2-3.5
			c0-1.9,1.4-3.5,3.2-3.5s3.2,1.6,3.2,3.5C-273.5,41.9-274.9,43.4-276.7,43.4z"/>
		<ellipse class="st3" cx="-295.3" cy="39.9" rx="3.2" ry="3.5"/>
		<path class="st3" d="M-273.5,39.9c0,1.9-1.4,3.5-3.2,3.5s-3.2-1.6-3.2-3.5c0-1.9,1.4-3.5,3.2-3.5C-274.9,36.5-273.5,38-273.5,39.9
			z"/>
		<ellipse class="st4" cx="-295.3" cy="39.9" rx="3.2" ry="3.5"/>
		<path class="st4" d="M-282.8,50.7c0,1.9-1.4,3.5-3.2,3.5c-1.7,0-3.2-1.6-3.2-3.5"/>
		<path class="st4" d="M-273.5,39.9c0,1.9-1.4,3.5-3.2,3.5s-3.2-1.6-3.2-3.5c0-1.9,1.4-3.5,3.2-3.5C-274.9,36.5-273.5,38-273.5,39.9
			z"/>
	</g>
</g>
</svg>
