<?xml version="1.0" encoding="utf-8"?>
<!-- Generator: Adobe Illustrator 24.2.3, SVG Export Plug-In . SVG Version: 6.00 Build 0)  -->
<!DOCTYPE svg PUBLIC "-//W3C//DTD SVG 1.1//EN" "http://www.w3.org/Graphics/SVG/1.1/DTD/svg11.dtd" [
	<!ENTITY st0 "fill:#E4B275;">
	<!ENTITY st1 "fill:#F4E3D0;">
	<!ENTITY st2 "opacity:0.4;fill:#E4B275;enable-background:new    ;">
	<!ENTITY st3 "fill:#543E28;">
	<!ENTITY st4 "fill:#147979;">
	<!ENTITY st5 "fill:#090709;">
]>
<svg version="1.1" id="logo" xmlns="http://www.w3.org/2000/svg" xmlns:xlink="http://www.w3.org/1999/xlink" x="0px" y="0px" width="6587.8px" height="7033px" viewBox="0 0 6587.8 7033" style="enable-background:new 0 0 6587.8 7033;" xml:space="preserve">
	<g>
		<g>
			<ellipse style="&st0;" cx="2490.4" cy="3242.7" rx="263.9" ry="289.5" />
			<path style="&st0;" d="M3787.1,3242.7c0-160,118.3-289.5,263.9-289.5c145.6,0,263.6,129.5,263.6,289.5
			c0,159.7-118,289.5-263.6,289.5S3787.1,3402.4,3787.1,3242.7z" />
			<path style="&st1;" d="M5144,3809l-59.9-34.9c-59.9,109.2-130.6,212.3-210.2,308.3c-376.7,453.9-954.7,744.2-1603.2,744.2
			s-1226.6-290.3-1603.2-744.2c-74.6-89.8-141.2-186.1-199-287.7L0,4642.5l571.3,989.3l580.4-335V7033h1142.6v-340.5h1999.5V7033
			h1142.6V5296.8l580.1,335l571.3-989.3L5144,3809z" />
		</g>
		<g>
			<ellipse style="&st0;" cx="2490.4" cy="3242.7" rx="263.9" ry="289.5" />
			<path style="&st0;" d="M3787.1,3242.7c0-160,118.3-289.5,263.9-289.5c145.6,0,263.6,129.5,263.6,289.5
			c0,159.7-118,289.5-263.6,289.5S3787.1,3402.4,3787.1,3242.7z" />
			<path style="&st2;" d="M5084.1,3774.1l-40.9,89.8c-216.3,474.3-614.9,846.9-1110,1009.8c-207.8,68.4-430.6,105.5-662.4,105.5
			c-347.4,0-674.6-83.3-961.4-230.5c-366.8-188.2-651.9-505.4-813.5-884.6c-12.6-29.5-22.3-53.9-27.3-69.5l0,0
			c57.8,101.6,124.5,197.9,199,287.7c376.7,453.9,954.7,744.2,1603.2,744.2s1226.6-290.3,1603.2-744.2
			C4953.5,3986.3,5024.2,3883.3,5084.1,3774.1L5084.1,3774.1z" />
		</g>
		<path style="&st3;" d="M4168.6,868.4v0.6c-44.3-44.9-101.6-79-167.6-96c-7-2.1-14.1-3.8-21.7-5.9c-1.2-0.3-2.6-0.6-3.8-0.9
		c-461.8-120.7-946.5-120.7-1408-0.3c-9.4,2.3-18.5,4.7-27.3,7c-65.8,17-123,51.1-167.3,96v-0.6c0-133.9,31.4-261,87.5-374.3
		C2604.7,202,2913.3,0,3270.6,0c357.6,0,666.1,202,810.6,494.1C4137.2,607.4,4168.6,734.5,4168.6,868.4z" />
		<path style="&st4;" d="M4268.1,1101.5v0.3c-19.1-10.3-38.5-20.6-58.1-30.2c-19.7-10-39.3-19.4-59.3-28.5
		c-33.5-15.3-67.2-29.7-101.6-43.4c-34.3-13.8-69.3-26.4-104.2-38.2c-17.6-5.9-35.2-11.4-53.1-17c-196.1-60.2-404.5-92.5-621.2-92.5
		c-216.4,0-424.8,32.3-620.6,92.5c-17.9,5.6-35.5,11.2-53.1,17c-35.2,11.7-69.9,24.4-104.2,38.2h-0.3
		c-34.1,13.5-68.1,27.9-101.3,43.2c-20,9.1-39.9,18.8-59.3,28.8c-19.7,9.7-39,20-58.4,30.2h-0.3c1.8-88.1,38.5-170.9,99.8-232.8
		c44.3-44.9,101.6-79,167.3-96c8.8-2.3,17.9-4.7,27.3-7c461.5-120.4,946.2-120.4,1408,0.3c1.2,0.3,2.6,0.6,3.8,0.9
		c7.6,2.1,14.7,3.8,21.7,5.9c66.1,17,123.3,51.1,167.6,96C4229.7,930.9,4266.7,1013.4,4268.1,1101.5z" />
		<path style="&st3;" d="M5325.7,2839.3c0,70.8-3.8,140.6-11.4,209.6c-77.8-535.8-553.4-948-1128.8-948
		c-374.6,0-706.9,174.7-914.8,444.5c-207.8-269.8-540.2-444.5-914.8-444.5c-323.5,0-615.9,130.3-823.2,340
		c-57.8,57.8-108.9,122.1-152.4,191.7c-17.6,27.6-33.8,56.1-48.4,85.4c-52,102.2-88.1,213.7-105.1,330.9
		c-7.3-69-11.2-138.9-11.2-209.6c0-747.4,426.6-1398.6,1057.5-1737.7c38.5-20.8,77.8-40.5,117.7-58.7
		c266.9-122.4,565.1-190.8,879.8-190.8s613,68.4,879.8,190.8c39.9,18.2,79.3,37.9,117.7,58.7
		C4899.2,1440.7,5325.7,2091.9,5325.7,2839.3z" />
		<path style="&st1;" d="M4185.5,2101c-374.6,0-706.9,174.7-914.8,444.5c-207.8-269.8-540.2-444.5-914.8-444.5
		c-323.5,0-615.9,130.3-823.2,340c-57.8,58.1-108.9,122.4-152.4,191.7c-17.3,27.6-33.5,56.1-48.4,85.4c-12.9,25.5-25,51.7-35.8,78.4
		c-22,53.1-39.6,108.6-52.8,165.9c-6.5,28.5-11.7,57.2-16.1,86.6c26.1,240.7,96.6,468.8,203.7,676.1c12,23.5,24.7,46.7,37.6,69.6
		c57.8,101.6,124.5,197.9,199,287.7c376.7,453.9,954.7,744.2,1603.2,744.2s1226.6-290.3,1603.2-744.2c79.6-96,150.3-199,210.2-308.3
		c108-195.2,183.2-409.8,218.4-637.4c4.7-29.1,8.5-58.4,11.7-87.8C5236.5,2513.2,4760.9,2101,4185.5,2101z M2490.4,3532.2
		c-145.6,0-263.9-129.8-263.9-289.5c0-160,118.3-289.5,263.9-289.5c145.6,0,263.9,129.5,263.9,289.5
		C2754.3,3402.4,2636,3532.2,2490.4,3532.2z M4051,3532.2c-145.6,0-263.9-129.8-263.9-289.5c0-160,118.3-289.5,263.9-289.5
		c145.6,0,263.6,129.5,263.6,289.5C4314.7,3402.4,4196.7,3532.2,4051,3532.2z" />
		<ellipse style="&st1;" cx="2490.4" cy="3242.7" rx="263.9" ry="289.5" />
		<path style="&st1;" d="M4314.7,3242.7c0,159.7-118,289.5-263.6,289.5s-263.9-129.8-263.9-289.5c0-160,118.3-289.5,263.9-289.5
		C4196.7,2953.2,4314.7,3082.7,4314.7,3242.7z" />
		<ellipse style="&st5;" cx="2490.4" cy="3242.7" rx="263.9" ry="289.5" />
		<path style="&st5;" d="M3534.6,4138.4c0,159.7-118.3,289.5-263.9,289.5c-145.6,0-263.9-129.8-263.9-289.5" />
		<path style="&st5;" d="M4314.7,3242.7c0,159.7-118,289.5-263.6,289.5s-263.9-129.8-263.9-289.5c0-160,118.3-289.5,263.9-289.5
		C4196.7,2953.2,4314.7,3082.7,4314.7,3242.7z" />
		<g>
			<rect x="1160.4" y="5850.7" style="&st4;" width="4274.5" height="446.2" />
			<rect x="2581.3" y="5850.7" style="&st4;" width="1432.6" height="844.1" />
		</g>
	</g>
</svg>
