<svg xmlns="http://www.w3.org/2000/svg" xmlns:xlink="http://www.w3.org/1999/xlink" width="680" height="411.59" viewBox="0 0 680 411.59">
  <defs>
    <clipPath id="clip-Web_1920_1">
      <rect width="680" height="411.59"/>
    </clipPath>
  </defs>
  <g id="Web_1920_1" data-name="Web 1920 – 1" clip-path="url(#clip-Web_1920_1)">
    <rect width="680" height="411.59" fill="#fff"/>
    <g id="Grupo_7" data-name="Grupo 7" transform="translate(-323 -193)">
      <path id="Caminho_18" data-name="Caminho 18" d="M140.32,201.68a12.2,12.2,0,0,1,2.13,1.83c1.25,1.18,2.94,2.85,4.78,4.72s3.48,3.58,4.64,4.84a11.859,11.859,0,0,1,1.78,2.14,11.359,11.359,0,0,1-2.12-1.82c-1.25-1.18-2.94-2.85-4.79-4.72s-3.48-3.59-4.64-4.86a11.64,11.64,0,0,1-1.78-2.13Z" transform="translate(288 139.52)" fill="#e0e0e0"/>
      <path id="Caminho_19" data-name="Caminho 19" d="M140.12,124.24a11.661,11.661,0,0,1,1.83-2.13c1.18-1.25,2.85-2.94,4.71-4.77s3.58-3.48,4.85-4.64a11.84,11.84,0,0,1,2.14-1.79,11,11,0,0,1-1.82,2.12c-1.18,1.25-2.85,3-4.72,4.79s-3.59,3.48-4.86,4.65a11.27,11.27,0,0,1-2.13,1.77Z" transform="translate(288 139.52)" fill="#e0e0e0"/>
      <rect id="Retângulo_9" data-name="Retângulo 9" width="22.2" height="23.55" transform="matrix(1, -0.005, 0.005, 1, 879.263, 255.78)" fill="#ebebeb"/>
      <rect id="Retângulo_11" data-name="Retângulo 11" width="40.33" height="19.19" transform="matrix(1, -0.005, 0.005, 1, 865.419, 279.025)" fill="#ebebeb"/>
      <rect id="Retângulo_14" data-name="Retângulo 14" width="6.34" height="23.46" transform="translate(875.94 301.56)" fill="#e0e0e0"/>
      <rect id="Retângulo_24" data-name="Retângulo 24" width="488.22" height="294.49" transform="translate(428.49 193.25)" fill="#fff"/>
      <path id="Caminho_51" data-name="Caminho 51" d="M628.71,348.22c0-1.64-.08-114.06-.2-294.49l.2.21L140.52,54h0l.26-.26V348.23l-.24-.24,488.22.24-488.22.24h-.24V53.48h.29l488.19.06h.2v.2C628.79,234.16,628.71,346.58,628.71,348.22Z" transform="translate(288 139.52)" fill="#263238"/>
      <path id="Caminho_52" data-name="Caminho 52" d="M204.36,103.69s-2.62,24,.75,37.16l32.09-1.4s-6.87-23.69-2.65-34.19Z" transform="translate(288 139.52)" fill="#e0e0e0"/>
      <path id="Caminho_53" data-name="Caminho 53" d="M204.12,103.71s.22,25.92,1.54,33.84L238.18,136s-2.86-25.49-1.76-32.3Z" transform="translate(288 139.52)" fill="#fee166"/>
      <path id="Caminho_54" data-name="Caminho 54" d="M231.52,114.6c0,.14-4.87.55-10.89.91s-10.92.54-10.93.4,4.87-.55,10.89-.92A108.371,108.371,0,0,1,231.52,114.6Z" transform="translate(288 139.52)" fill="#fff"/>
      <path id="Caminho_55" data-name="Caminho 55" d="M231.53,120.09c0,.14-4.87.55-10.9.92a108.253,108.253,0,0,1-10.92.39c-.01-.15,4.87-.55,10.89-.91S231.52,120,231.53,120.09Z" transform="translate(288 139.52)" fill="#fff"/>
      <path id="Caminho_56" data-name="Caminho 56" d="M226,125.48a38,38,0,0,1-6.2.64,38.5,38.5,0,0,1-6.23.11,37.369,37.369,0,0,1,6.2-.63,37.891,37.891,0,0,1,6.23-.12Z" transform="translate(288 139.52)" fill="#fff"/>
      <path id="Caminho_57" data-name="Caminho 57" d="M203.56,142.48s.22,25.93,1.54,33.84l32.52-1.54s-2.86-25.49-1.76-32.3Z" transform="translate(288 139.52)" fill="#fee166"/>
      <path id="Caminho_58" data-name="Caminho 58" d="M231,153.37c0,.14-4.87.55-10.89.92a108.372,108.372,0,0,1-10.93.39c-.01-.15,4.87-.55,10.9-.91S231,153.23,231,153.37Z" transform="translate(288 139.52)" fill="#fff"/>
      <path id="Caminho_59" data-name="Caminho 59" d="M231,158.86c0,.15-4.87.56-10.89.92s-10.92.54-10.93.39,4.87-.55,10.89-.91S231,158.72,231,158.86Z" transform="translate(288 139.52)" fill="#fff"/>
      <path id="Caminho_60" data-name="Caminho 60" d="M225.44,164.25a36.691,36.691,0,0,1-6.2.64A37.17,37.17,0,0,1,213,165a37.371,37.371,0,0,1,6.2-.63A37.886,37.886,0,0,1,225.44,164.25Z" transform="translate(288 139.52)" fill="#fff"/>
      <path id="Caminho_61" data-name="Caminho 61" d="M203.56,186.4s.22,25.92,1.54,33.84l32.52-1.54s-2.86-25.49-1.76-32.3Z" transform="translate(288 139.52)" fill="#263238"/>
      <path id="Caminho_62" data-name="Caminho 62" d="M231,197.29c0,.14-4.87.55-10.89.91s-10.92.54-10.93.4,4.87-.55,10.9-.92A108.308,108.308,0,0,1,231,197.29Z" transform="translate(288 139.52)" fill="#fff"/>
      <path id="Caminho_63" data-name="Caminho 63" d="M231,202.78c0,.14-4.87.55-10.89.91s-10.92.54-10.93.4,4.87-.55,10.89-.91S231,202.64,231,202.78Z" transform="translate(288 139.52)" fill="#fff"/>
      <path id="Caminho_64" data-name="Caminho 64" d="M225.44,208.17a37.371,37.371,0,0,1-6.2.63,37.892,37.892,0,0,1-6.23.12,37.369,37.369,0,0,1,6.2-.63,37.889,37.889,0,0,1,6.23-.12Z" transform="translate(288 139.52)" fill="#fff"/>
      <path id="Caminho_65" data-name="Caminho 65" d="M199.77,237.76s.22,25.93,1.54,33.84l32.52-1.54s-2.86-25.49-1.76-32.3Z" transform="translate(288 139.52)" fill="#2571b5"/>
      <path id="Caminho_66" data-name="Caminho 66" d="M227.17,248.65c0,.14-4.87.55-10.9.92a108.425,108.425,0,0,1-10.93.39c-.01-.15,4.87-.55,10.9-.91S227.16,248.51,227.17,248.65Z" transform="translate(288 139.52)" fill="#fff"/>
      <path id="Caminho_67" data-name="Caminho 67" d="M227.18,254.14c0,.15-4.87.56-10.9.92s-10.92.54-10.93.4,4.87-.56,10.9-.92S227.17,254,227.18,254.14Z" transform="translate(288 139.52)" fill="#fff"/>
      <path id="Caminho_68" data-name="Caminho 68" d="M221.65,259.54a38.689,38.689,0,0,1-6.2.63,35.888,35.888,0,0,1-6.23.11,38.514,38.514,0,0,1,6.2-.63A35.933,35.933,0,0,1,221.65,259.54Z" transform="translate(288 139.52)" fill="#fff"/>
      <path id="Caminho_69" data-name="Caminho 69" d="M242.88,238s.22,25.93,1.54,33.84l32.52-1.53s-2.86-25.49-1.76-32.31Z" transform="translate(288 139.52)" fill="#263238"/>
      <path id="Caminho_70" data-name="Caminho 70" d="M270.28,248.88c0,.14-4.87.55-10.9.91s-10.92.54-10.93.4,4.87-.56,10.9-.92S270.27,248.73,270.28,248.88Z" transform="translate(288 139.52)" fill="#fff"/>
      <path id="Caminho_71" data-name="Caminho 71" d="M270.29,254.37c0,.14-4.87.55-10.9.91s-10.92.54-10.93.4,4.87-.55,10.9-.92A108.424,108.424,0,0,1,270.29,254.37Z" transform="translate(288 139.52)" fill="#fff"/>
      <path id="Caminho_72" data-name="Caminho 72" d="M264.76,259.76a37.373,37.373,0,0,1-6.2.63,38,38,0,0,1-6.24.12,36.9,36.9,0,0,1,6.21-.64A38.5,38.5,0,0,1,264.76,259.76Z" transform="translate(288 139.52)" fill="#fff"/>
      <path id="Caminho_73" data-name="Caminho 73" d="M278.94,239.84s.22,25.93,1.54,33.84L313,272.15s-2.86-25.49-1.76-32.31Z" transform="translate(288 139.52)" fill="#ff725e"/>
      <path id="Caminho_74" data-name="Caminho 74" d="M306.34,250.73c0,.15-4.87.56-10.9.92s-10.92.54-10.93.4,4.87-.56,10.9-.92S306.33,250.59,306.34,250.73Z" transform="translate(288 139.52)" fill="#fff"/>
      <path id="Caminho_75" data-name="Caminho 75" d="M306.35,256.23c0,.14-4.87.55-10.9.91s-10.92.54-10.93.4,4.87-.55,10.9-.92A108.4,108.4,0,0,1,306.35,256.23Z" transform="translate(288 139.52)" fill="#fff"/>
      <path id="Caminho_76" data-name="Caminho 76" d="M300.82,261.62a37.374,37.374,0,0,1-6.2.63,38,38,0,0,1-6.24.12,36.9,36.9,0,0,1,6.21-.64A38.5,38.5,0,0,1,300.82,261.62Z" transform="translate(288 139.52)" fill="#fff"/>
      <path id="Caminho_77" data-name="Caminho 77" d="M236.8,284.18s.22,25.93,1.54,33.84l32.52-1.54S268,291,269.1,284.18Z" transform="translate(288 139.52)" fill="#2571b5"/>
      <path id="Caminho_78" data-name="Caminho 78" d="M264.2,295.07c0,.14-4.87.55-10.89.92a108.364,108.364,0,0,1-10.93.39c-.01-.15,4.87-.55,10.9-.91S264.19,294.93,264.2,295.07Z" transform="translate(288 139.52)" fill="#fff"/>
      <path id="Caminho_79" data-name="Caminho 79" d="M264.21,300.56c0,.15-4.87.56-10.89.92s-10.92.54-10.93.39,4.87-.55,10.89-.91S264.2,300.42,264.21,300.56Z" transform="translate(288 139.52)" fill="#fff"/>
      <path id="Caminho_80" data-name="Caminho 80" d="M258.68,306a36.52,36.52,0,0,1-6.2.64,37.171,37.171,0,0,1-6.23.11,37.366,37.366,0,0,1,6.2-.63A37.889,37.889,0,0,1,258.68,306Z" transform="translate(288 139.52)" fill="#fff"/>
      <path id="Caminho_81" data-name="Caminho 81" d="M341.18,224.63s.22,25.93,1.54,33.84l32.52-1.54s-2.86-25.49-1.76-32.3Z" transform="translate(288 139.52)" fill="#263238"/>
      <path id="Caminho_82" data-name="Caminho 82" d="M368.58,235.52c0,.14-4.87.55-10.9.91s-10.91.54-10.92.4,4.87-.55,10.89-.92A108.367,108.367,0,0,1,368.58,235.52Z" transform="translate(288 139.52)" fill="#fff"/>
      <path id="Caminho_83" data-name="Caminho 83" d="M368.59,241c0,.14-4.87.55-10.9.92a108.308,108.308,0,0,1-10.92.39c0-.15,4.86-.55,10.89-.91S368.58,240.87,368.59,241Z" transform="translate(288 139.52)" fill="#fff"/>
      <path id="Caminho_84" data-name="Caminho 84" d="M363.06,246.4a36.689,36.689,0,0,1-6.2.64,38.5,38.5,0,0,1-6.23.11,37.368,37.368,0,0,1,6.2-.63,37.889,37.889,0,0,1,6.23-.12Z" transform="translate(288 139.52)" fill="#fff"/>
      <path id="Caminho_85" data-name="Caminho 85" d="M411.78,285.49s.22,25.93,1.54,33.84l32.52-1.53s-2.85-25.49-1.76-32.31Z" transform="translate(288 139.52)" fill="#fee166"/>
      <path id="Caminho_86" data-name="Caminho 86" d="M439.18,296.38c0,.15-4.87.56-10.89.92s-10.92.54-10.93.4,4.87-.56,10.9-.92S439.17,296.24,439.18,296.38Z" transform="translate(288 139.52)" fill="#fff"/>
      <path id="Caminho_87" data-name="Caminho 87" d="M439.19,301.88c0,.14-4.87.55-10.89.91s-10.92.54-10.93.4,4.87-.55,10.9-.92A108.242,108.242,0,0,1,439.19,301.88Z" transform="translate(288 139.52)" fill="#fff"/>
      <path id="Caminho_88" data-name="Caminho 88" d="M433.66,307.27a37.19,37.19,0,0,1-6.2.63,37.893,37.893,0,0,1-6.23.12,36.688,36.688,0,0,1,6.2-.64A38.469,38.469,0,0,1,433.66,307.27Z" transform="translate(288 139.52)" fill="#fff"/>
      <path id="Caminho_89" data-name="Caminho 89" d="M451.92,286.05s.22,25.93,1.54,33.84L486,318.35s-2.86-25.49-1.76-32.3Z" transform="translate(288 139.52)" fill="#fee166"/>
      <path id="Caminho_90" data-name="Caminho 90" d="M479.32,296.94c0,.14-4.87.55-10.9.91s-10.91.54-10.92.4,4.87-.55,10.89-.92A108.358,108.358,0,0,1,479.32,296.94Z" transform="translate(288 139.52)" fill="#fff"/>
      <path id="Caminho_91" data-name="Caminho 91" d="M479.33,302.43c0,.14-4.87.55-10.9.92a108.3,108.3,0,0,1-10.92.39c0-.15,4.86-.55,10.89-.91S479.32,302.29,479.33,302.43Z" transform="translate(288 139.52)" fill="#fff"/>
      <path id="Caminho_92" data-name="Caminho 92" d="M473.8,307.82a36.691,36.691,0,0,1-6.2.64,38.5,38.5,0,0,1-6.23.11,37.193,37.193,0,0,1,6.2-.63A37.889,37.889,0,0,1,473.8,307.82Z" transform="translate(288 139.52)" fill="#fff"/>
      <path id="Caminho_93" data-name="Caminho 93" d="M492.06,286.6s.22,25.93,1.54,33.84l32.52-1.54s-2.86-25.49-1.76-32.3Z" transform="translate(288 139.52)" fill="#fee166"/>
      <path id="Caminho_94" data-name="Caminho 94" d="M519.46,297.49c0,.14-4.87.55-10.9.92a108.417,108.417,0,0,1-10.93.39c-.01-.15,4.87-.55,10.9-.91S519.45,297.35,519.46,297.49Z" transform="translate(288 139.52)" fill="#fff"/>
      <path id="Caminho_95" data-name="Caminho 95" d="M519.47,303c0,.15-4.87.56-10.9.92s-10.92.54-10.93.39,4.87-.55,10.9-.91S519.46,302.84,519.47,303Z" transform="translate(288 139.52)" fill="#fff"/>
      <path id="Caminho_96" data-name="Caminho 96" d="M513.94,308.37a36.694,36.694,0,0,1-6.2.64,37.28,37.28,0,0,1-6.24.11,76.224,76.224,0,0,1,12.44-.75Z" transform="translate(288 139.52)" fill="#fff"/>
      <path id="Caminho_97" data-name="Caminho 97" d="M540.31,285.08s.22,25.93,1.54,33.84l32.52-1.53s-2.85-25.49-1.76-32.31Z" transform="translate(288 139.52)" fill="#455a64"/>
      <path id="Caminho_98" data-name="Caminho 98" d="M567.71,296c0,.14-4.87.55-10.89.91s-10.92.54-10.93.4,4.87-.56,10.9-.92S567.7,295.83,567.71,296Z" transform="translate(288 139.52)" fill="#fff"/>
      <path id="Caminho_99" data-name="Caminho 99" d="M567.72,301.47c0,.14-4.87.55-10.89.91s-10.92.54-10.93.4,4.87-.55,10.89-.92A108.359,108.359,0,0,1,567.72,301.47Z" transform="translate(288 139.52)" fill="#fff"/>
      <path id="Caminho_100" data-name="Caminho 100" d="M562.19,306.86a37.186,37.186,0,0,1-6.2.63,37.889,37.889,0,0,1-6.23.12A36.688,36.688,0,0,1,556,307,38.472,38.472,0,0,1,562.19,306.86Z" transform="translate(288 139.52)" fill="#fff"/>
      <path id="Caminho_101" data-name="Caminho 101" d="M575.29,288.83s.22,25.93,1.54,33.84l32.52-1.54s-2.85-25.49-1.75-32.3Z" transform="translate(288 139.52)" fill="#fee166"/>
      <path id="Caminho_102" data-name="Caminho 102" d="M602.69,299.72c0,.14-4.87.55-10.89.91s-10.92.54-10.93.4,4.87-.55,10.9-.92A108.294,108.294,0,0,1,602.69,299.72Z" transform="translate(288 139.52)" fill="#fff"/>
      <path id="Caminho_103" data-name="Caminho 103" d="M602.7,305.21c0,.14-4.87.55-10.89.92a108.364,108.364,0,0,1-10.93.39c-.01-.15,4.87-.55,10.9-.91S602.69,305.07,602.7,305.21Z" transform="translate(288 139.52)" fill="#fff"/>
      <path id="Caminho_104" data-name="Caminho 104" d="M597.17,310.6a36.524,36.524,0,0,1-6.2.64,38.5,38.5,0,0,1-6.23.11,37.369,37.369,0,0,1,6.2-.63,37.849,37.849,0,0,1,6.23-.12Z" transform="translate(288 139.52)" fill="#fff"/>
      <path id="Caminho_105" data-name="Caminho 105" d="M411.64,238.37s.22,25.93,1.53,33.84l32.53-1.54s-2.86-25.49-1.76-32.3Z" transform="translate(288 139.52)" fill="#2571b5"/>
      <path id="Caminho_106" data-name="Caminho 106" d="M439,249.26c0,.15-4.87.56-10.9.92s-10.92.54-10.93.39,4.87-.55,10.9-.91S439,249.12,439,249.26Z" transform="translate(288 139.52)" fill="#fff"/>
      <path id="Caminho_107" data-name="Caminho 107" d="M439.05,254.75c0,.15-4.87.56-10.9.92s-10.92.54-10.93.4,4.87-.56,10.9-.92S439,254.61,439.05,254.75Z" transform="translate(288 139.52)" fill="#fff"/>
      <path id="Caminho_108" data-name="Caminho 108" d="M433.52,260.15a38.689,38.689,0,0,1-6.2.63,36,36,0,0,1-6.24.11,38.919,38.919,0,0,1,6.21-.63,35.928,35.928,0,0,1,6.23-.11Z" transform="translate(288 139.52)" fill="#fff"/>
      <path id="Caminho_109" data-name="Caminho 109" d="M454.09,238.5s.22,25.93,1.54,33.84l32.52-1.54s-2.85-25.49-1.75-32.3Z" transform="translate(288 139.52)" fill="#ff725e"/>
      <path id="Caminho_110" data-name="Caminho 110" d="M481.49,249.39c0,.14-4.87.55-10.89.91s-10.92.54-10.93.4,4.87-.55,10.9-.92A108.308,108.308,0,0,1,481.49,249.39Z" transform="translate(288 139.52)" fill="#fff"/>
      <path id="Caminho_111" data-name="Caminho 111" d="M481.5,254.88c0,.14-4.87.55-10.89.92a108.378,108.378,0,0,1-10.93.39c-.01-.15,4.87-.55,10.9-.91S481.49,254.74,481.5,254.88Z" transform="translate(288 139.52)" fill="#fff"/>
      <path id="Caminho_112" data-name="Caminho 112" d="M476,260.27a36.9,36.9,0,0,1-6.21.64,38.5,38.5,0,0,1-6.23.11,37.37,37.37,0,0,1,6.2-.63,38,38,0,0,1,6.24-.12Z" transform="translate(288 139.52)" fill="#fff"/>
      <path id="Caminho_113" data-name="Caminho 113" d="M537.77,238.51s.22,25.93,1.54,33.84l32.52-1.54s-2.86-25.49-1.76-32.3Z" transform="translate(288 139.52)" fill="#455a64"/>
      <path id="Caminho_114" data-name="Caminho 114" d="M565.17,249.4c0,.15-4.87.56-10.9.92s-10.92.54-10.92.4,4.87-.56,10.89-.92S565.16,249.26,565.17,249.4Z" transform="translate(288 139.52)" fill="#fff"/>
      <path id="Caminho_115" data-name="Caminho 115" d="M565.18,254.9c0,.14-4.87.55-10.9.91s-10.92.54-10.93.4,4.87-.56,10.9-.92S565.17,254.75,565.18,254.9Z" transform="translate(288 139.52)" fill="#fff"/>
      <path id="Caminho_116" data-name="Caminho 116" d="M559.65,260.29a37.371,37.371,0,0,1-6.2.63,37.892,37.892,0,0,1-6.23.12,36.521,36.521,0,0,1,6.2-.64,37.171,37.171,0,0,1,6.23-.11Z" transform="translate(288 139.52)" fill="#fff"/>
      <path id="Caminho_117" data-name="Caminho 117" d="M254.05,186.4s.22,25.92,1.54,33.84l32.52-1.54s-2.86-25.49-1.76-32.3Z" transform="translate(288 139.52)" fill="#263238"/>
      <path id="Caminho_118" data-name="Caminho 118" d="M281.45,197.29c0,.14-4.87.55-10.9.91s-10.92.54-10.92.4,4.86-.55,10.89-.92A108.425,108.425,0,0,1,281.45,197.29Z" transform="translate(288 139.52)" fill="#fff"/>
      <path id="Caminho_119" data-name="Caminho 119" d="M281.46,202.78c0,.14-4.87.55-10.9.91s-10.92.54-10.93.4,4.87-.55,10.9-.91S281.45,202.64,281.46,202.78Z" transform="translate(288 139.52)" fill="#fff"/>
      <path id="Caminho_120" data-name="Caminho 120" d="M275.93,208.17a37.372,37.372,0,0,1-6.2.63,37.852,37.852,0,0,1-6.23.12,37.193,37.193,0,0,1,6.2-.63,37.889,37.889,0,0,1,6.23-.12Z" transform="translate(288 139.52)" fill="#fff"/>
      <path id="Caminho_121" data-name="Caminho 121" d="M241.13,103.71s.22,25.92,1.54,33.84L275.19,136s-2.86-25.49-1.76-32.3Z" transform="translate(288 139.52)" fill="#fee166"/>
      <path id="Caminho_122" data-name="Caminho 122" d="M268.53,114.6c0,.14-4.87.55-10.9.91s-10.92.54-10.93.4,4.87-.55,10.9-.92A108.423,108.423,0,0,1,268.53,114.6Z" transform="translate(288 139.52)" fill="#fff"/>
      <path id="Caminho_123" data-name="Caminho 123" d="M268.54,120.09c0,.14-4.87.55-10.9.92a108.422,108.422,0,0,1-10.93.39c-.01-.15,4.87-.55,10.9-.91S268.53,120,268.54,120.09Z" transform="translate(288 139.52)" fill="#fff"/>
      <path id="Caminho_124" data-name="Caminho 124" d="M263,125.48a38,38,0,0,1-6.2.64,38.611,38.611,0,0,1-6.24.11,37.583,37.583,0,0,1,6.21-.63,37.891,37.891,0,0,1,6.23-.12Z" transform="translate(288 139.52)" fill="#fff"/>
      <path id="Caminho_125" data-name="Caminho 125" d="M241.84,142.62s.22,25.93,1.54,33.84l32.52-1.53s-2.86-25.49-1.76-32.31Z" transform="translate(288 139.52)" fill="#fee166"/>
      <path id="Caminho_126" data-name="Caminho 126" d="M269.24,153.51c0,.15-4.87.56-10.9.92s-10.92.54-10.92.4,4.87-.56,10.89-.92S269.23,153.37,269.24,153.51Z" transform="translate(288 139.52)" fill="#fff"/>
      <path id="Caminho_127" data-name="Caminho 127" d="M269.25,159c0,.14-4.87.55-10.9.91s-10.92.54-10.93.4,4.87-.55,10.9-.92S269.24,158.86,269.25,159Z" transform="translate(288 139.52)" fill="#fff"/>
      <path id="Caminho_128" data-name="Caminho 128" d="M263.72,164.4a37.373,37.373,0,0,1-6.2.63,37.891,37.891,0,0,1-6.23.12,36.52,36.52,0,0,1,6.2-.64A38.5,38.5,0,0,1,263.72,164.4Z" transform="translate(288 139.52)" fill="#fff"/>
      <path id="Caminho_129" data-name="Caminho 129" d="M281.66,103.71s.22,25.92,1.54,33.84L315.72,136s-2.86-25.49-1.76-32.3Z" transform="translate(288 139.52)" fill="#fee166"/>
      <path id="Caminho_130" data-name="Caminho 130" d="M309.06,114.6c0,.14-4.87.55-10.9.91s-10.92.54-10.93.4,4.87-.55,10.9-.92A108.423,108.423,0,0,1,309.06,114.6Z" transform="translate(288 139.52)" fill="#fff"/>
      <path id="Caminho_131" data-name="Caminho 131" d="M309.07,120.09c0,.14-4.87.55-10.9.92a108.422,108.422,0,0,1-10.93.39c-.01-.15,4.87-.55,10.9-.91S309.06,120,309.07,120.09Z" transform="translate(288 139.52)" fill="#fff"/>
      <path id="Caminho_132" data-name="Caminho 132" d="M303.54,125.48a38,38,0,0,1-6.2.64,38.61,38.61,0,0,1-6.24.11,37.582,37.582,0,0,1,6.21-.63,37.891,37.891,0,0,1,6.23-.12Z" transform="translate(288 139.52)" fill="#fff"/>
      <path id="Caminho_133" data-name="Caminho 133" d="M322.19,103.71s.22,25.92,1.53,33.84L356.25,136s-2.86-25.49-1.76-32.3Z" transform="translate(288 139.52)" fill="#2cb4c7"/>
      <path id="Caminho_134" data-name="Caminho 134" d="M349.59,114.6c0,.14-4.87.55-10.9.91s-10.92.54-10.93.4,4.87-.55,10.9-.92A108.423,108.423,0,0,1,349.59,114.6Z" transform="translate(288 139.52)" fill="#fff"/>
      <path id="Caminho_135" data-name="Caminho 135" d="M349.6,120.09c0,.14-4.87.55-10.9.92a108.422,108.422,0,0,1-10.93.39c-.01-.15,4.87-.55,10.9-.91S349.59,120,349.6,120.09Z" transform="translate(288 139.52)" fill="#fff"/>
      <path id="Caminho_136" data-name="Caminho 136" d="M344.07,125.48a38,38,0,0,1-6.2.64,38.611,38.611,0,0,1-6.24.11,76.221,76.221,0,0,1,12.44-.75Z" transform="translate(288 139.52)" fill="#fff"/>
      <path id="Caminho_137" data-name="Caminho 137" d="M362.72,103.71s.22,25.92,1.53,33.84L396.78,136s-2.86-25.49-1.76-32.3Z" transform="translate(288 139.52)" fill="#2cb4c7"/>
      <path id="Caminho_138" data-name="Caminho 138" d="M390.12,114.6c0,.14-4.87.55-10.9.91s-10.92.54-10.93.4,4.87-.55,10.9-.92A108.423,108.423,0,0,1,390.12,114.6Z" transform="translate(288 139.52)" fill="#fff"/>
      <path id="Caminho_139" data-name="Caminho 139" d="M390.13,120.09c0,.14-4.87.55-10.9.92a108.422,108.422,0,0,1-10.93.39c-.01-.15,4.87-.55,10.9-.91S390.12,120,390.13,120.09Z" transform="translate(288 139.52)" fill="#fff"/>
      <path id="Caminho_140" data-name="Caminho 140" d="M384.6,125.48a38,38,0,0,1-6.2.64,38.61,38.61,0,0,1-6.24.11,37.41,37.41,0,0,1,6.21-.63A37.891,37.891,0,0,1,384.6,125.48Z" transform="translate(288 139.52)" fill="#fff"/>
      <path id="Caminho_141" data-name="Caminho 141" d="M416.89,109.45s.22,25.93,1.54,33.84L451,141.75s-2.86-25.49-1.76-32.3Z" transform="translate(288 139.52)" fill="#ff725e"/>
      <path id="Caminho_142" data-name="Caminho 142" d="M444.29,120.34c0,.14-4.87.55-10.9.92a108.253,108.253,0,0,1-10.92.39c-.01-.15,4.87-.55,10.89-.91S444.28,120.2,444.29,120.34Z" transform="translate(288 139.52)" fill="#fff"/>
      <path id="Caminho_143" data-name="Caminho 143" d="M444.3,125.83c0,.15-4.87.56-10.9.92s-10.92.54-10.92.39,4.86-.55,10.89-.91S444.29,125.69,444.3,125.83Z" transform="translate(288 139.52)" fill="#fff"/>
      <path id="Caminho_144" data-name="Caminho 144" d="M438.77,131.22a36.691,36.691,0,0,1-6.2.64,37.169,37.169,0,0,1-6.23.11,37.369,37.369,0,0,1,6.2-.63,37.888,37.888,0,0,1,6.23-.12Z" transform="translate(288 139.52)" fill="#fff"/>
      <path id="Caminho_145" data-name="Caminho 145" d="M453.18,110s.22,25.93,1.54,33.84l32.52-1.53s-2.86-25.49-1.76-32.31Z" transform="translate(288 139.52)" fill="#2cb4c7"/>
      <path id="Caminho_146" data-name="Caminho 146" d="M480.58,120.89c0,.15-4.87.56-10.9.92s-10.92.54-10.93.4,4.87-.56,10.9-.92S480.57,120.75,480.58,120.89Z" transform="translate(288 139.52)" fill="#fff"/>
      <path id="Caminho_147" data-name="Caminho 147" d="M480.59,126.39c0,.14-4.87.55-10.9.91s-10.92.54-10.93.4,4.87-.55,10.9-.92A108.423,108.423,0,0,1,480.59,126.39Z" transform="translate(288 139.52)" fill="#fff"/>
      <path id="Caminho_148" data-name="Caminho 148" d="M475.06,131.78a37.371,37.371,0,0,1-6.2.63,38,38,0,0,1-6.24.12,36.9,36.9,0,0,1,6.21-.64,38.5,38.5,0,0,1,6.23-.11Z" transform="translate(288 139.52)" fill="#fff"/>
      <path id="Caminho_149" data-name="Caminho 149" d="M493.26,111.17s.22,25.92,1.53,33.84l32.53-1.54s-2.86-25.49-1.76-32.3Z" transform="translate(288 139.52)" fill="#fee166"/>
      <path id="Caminho_150" data-name="Caminho 150" d="M520.66,122.06c0,.14-4.87.55-10.9.91s-10.92.54-10.93.4,4.87-.55,10.9-.92A108.426,108.426,0,0,1,520.66,122.06Z" transform="translate(288 139.52)" fill="#fff"/>
      <path id="Caminho_151" data-name="Caminho 151" d="M520.67,127.55c0,.14-4.87.55-10.9.91s-10.92.55-10.93.4,4.87-.55,10.9-.91S520.66,127.41,520.67,127.55Z" transform="translate(288 139.52)" fill="#fff"/>
      <path id="Caminho_152" data-name="Caminho 152" d="M515.14,132.94a37.37,37.37,0,0,1-6.2.63,38,38,0,0,1-6.24.12A76.222,76.222,0,0,1,515.14,132.94Z" transform="translate(288 139.52)" fill="#fff"/>
      <path id="Caminho_153" data-name="Caminho 153" d="M540.89,109.82s.22,25.93,1.54,33.84L575,142.12s-2.85-25.49-1.76-32.3Z" transform="translate(288 139.52)" fill="#ff725e"/>
      <path id="Caminho_154" data-name="Caminho 154" d="M568.29,120.71c0,.15-4.87.56-10.89.92s-10.92.54-10.93.4,4.87-.56,10.9-.92S568.28,120.57,568.29,120.71Z" transform="translate(288 139.52)" fill="#fff"/>
      <path id="Caminho_155" data-name="Caminho 155" d="M568.3,126.21c0,.14-4.87.55-10.89.91s-10.92.54-10.93.4,4.87-.56,10.89-.92S568.29,126.06,568.3,126.21Z" transform="translate(288 139.52)" fill="#fff"/>
      <path id="Caminho_156" data-name="Caminho 156" d="M562.77,131.6a37.191,37.191,0,0,1-6.2.63,37.891,37.891,0,0,1-6.23.12,36.69,36.69,0,0,1,6.2-.64A37.172,37.172,0,0,1,562.77,131.6Z" transform="translate(288 139.52)" fill="#fff"/>
      <path id="Caminho_157" data-name="Caminho 157" d="M544.85,152.09s.22,25.93,1.54,33.84l32.52-1.54s-2.85-25.49-1.75-32.3Z" transform="translate(288 139.52)" fill="#fee166"/>
      <path id="Caminho_158" data-name="Caminho 158" d="M572.25,163c0,.15-4.87.56-10.89.92s-10.92.54-10.93.4,4.87-.56,10.9-.92S572.25,162.84,572.25,163Z" transform="translate(288 139.52)" fill="#fff"/>
      <path id="Caminho_159" data-name="Caminho 159" d="M572.26,168.48c0,.14-4.87.55-10.89.91s-10.92.54-10.93.4,4.87-.56,10.9-.92S572.26,168.33,572.26,168.48Z" transform="translate(288 139.52)" fill="#fff"/>
      <path id="Caminho_160" data-name="Caminho 160" d="M566.74,173.87a76.22,76.22,0,0,1-12.44.75,36.689,36.689,0,0,1,6.2-.64A37.28,37.28,0,0,1,566.74,173.87Z" transform="translate(288 139.52)" fill="#fff"/>
      <path id="Caminho_161" data-name="Caminho 161" d="M569.47,113.45s.22,25.93,1.54,33.84l32.52-1.54s-2.86-25.49-1.76-32.3Z" transform="translate(288 139.52)" fill="#2571b5"/>
      <path id="Caminho_162" data-name="Caminho 162" d="M596.87,124.34c0,.14-4.87.55-10.9.91s-10.92.54-10.93.4,4.87-.55,10.9-.92A108.426,108.426,0,0,1,596.87,124.34Z" transform="translate(288 139.52)" fill="#fff"/>
      <path id="Caminho_163" data-name="Caminho 163" d="M596.88,129.83c0,.14-4.87.55-10.9.92a108.425,108.425,0,0,1-10.93.39c-.01-.15,4.87-.55,10.9-.91S596.87,129.69,596.88,129.83Z" transform="translate(288 139.52)" fill="#fff"/>
      <path id="Caminho_164" data-name="Caminho 164" d="M591.35,135.22a36.687,36.687,0,0,1-6.2.64,38.61,38.61,0,0,1-6.24.11A76.221,76.221,0,0,1,591.35,135.22Z" transform="translate(288 139.52)" fill="#fff"/>
      <path id="Caminho_165" data-name="Caminho 165" d="M425.68,130.62s.22,25.93,1.53,33.84l32.53-1.54s-2.86-25.49-1.76-32.3Z" transform="translate(288 139.52)" fill="#2571b5"/>
      <path id="Caminho_166" data-name="Caminho 166" d="M453.08,141.51c0,.14-4.87.56-10.9.92s-10.92.54-10.93.39,4.87-.55,10.9-.91S453.07,141.37,453.08,141.51Z" transform="translate(288 139.52)" fill="#fff"/>
      <path id="Caminho_167" data-name="Caminho 167" d="M453.09,147c0,.15-4.87.56-10.9.92s-10.92.54-10.93.4,4.87-.56,10.9-.92S453.08,146.86,453.09,147Z" transform="translate(288 139.52)" fill="#fff"/>
      <path id="Caminho_168" data-name="Caminho 168" d="M447.56,152.4a38.69,38.69,0,0,1-6.2.63,36,36,0,0,1-6.24.11,38.919,38.919,0,0,1,6.21-.63,35.929,35.929,0,0,1,6.23-.11Z" transform="translate(288 139.52)" fill="#fff"/>
      <path id="Caminho_169" data-name="Caminho 169" d="M421.59,188.17s.21,25.93,1.53,33.84l32.53-1.54s-2.86-25.49-1.76-32.3Z" transform="translate(288 139.52)" fill="#fee166"/>
      <path id="Caminho_170" data-name="Caminho 170" d="M449,199.06c0,.14-4.87.55-10.9.91s-10.92.54-10.93.4,4.87-.55,10.9-.92A108.477,108.477,0,0,1,449,199.06Z" transform="translate(288 139.52)" fill="#fff"/>
      <path id="Caminho_171" data-name="Caminho 171" d="M449,204.55c0,.14-4.87.55-10.89.92a108.372,108.372,0,0,1-10.93.39c-.01-.15,4.87-.55,10.9-.91S449,204.41,449,204.55Z" transform="translate(288 139.52)" fill="#fff"/>
      <path id="Caminho_172" data-name="Caminho 172" d="M443.47,209.94a36.688,36.688,0,0,1-6.2.64,38.61,38.61,0,0,1-6.24.11,37.37,37.37,0,0,1,6.2-.63,38,38,0,0,1,6.24-.12Z" transform="translate(288 139.52)" fill="#fff"/>
      <path id="Caminho_173" data-name="Caminho 173" d="M319.66,131.85s2.63,24-.75,37.16l-32.09-1.4s6.88-23.69,2.66-34.19Z" transform="translate(288 139.52)" fill="#ebebeb"/>
      <path id="Caminho_174" data-name="Caminho 174" d="M286.65,127.77s-2,27.24-3.78,32.73l29.23,3.08,4.39-4.18s3.11-24,2.67-30.83Z" transform="translate(288 139.52)" fill="#2571b5"/>
      <path id="Caminho_175" data-name="Caminho 175" d="M312.76,159.18l-.66,4.39,4.39-4.17Z" transform="translate(288 139.52)" fill="#263238"/>
      <path id="Caminho_176" data-name="Caminho 176" d="M313.09,141.53a23.481,23.481,0,0,1-3.28-.39L302,140l-7.89-1a24.21,24.21,0,0,1-3.26-.48,18.812,18.812,0,0,1,3.3.11c2,.15,4.83.43,7.91.83s5.86.88,7.86,1.27A18.69,18.69,0,0,1,313.09,141.53Z" transform="translate(288 139.52)" fill="#fff"/>
      <path id="Caminho_177" data-name="Caminho 177" d="M311.81,147.53a17.241,17.241,0,0,1-3.16-.11c-1.94-.14-4.63-.4-7.58-.78s-5.62-.79-7.54-1.13a17.441,17.441,0,0,1-3.09-.68,21.162,21.162,0,0,1,3.14.32l7.55,1,7.56.92A20.618,20.618,0,0,1,311.81,147.53Z" transform="translate(288 139.52)" fill="#fff"/>
      <path id="Caminho_178" data-name="Caminho 178" d="M310,153.06a94.146,94.146,0,0,1-9.83-1.06,93.327,93.327,0,0,1-9.75-1.57,94.118,94.118,0,0,1,9.82,1.06,93.256,93.256,0,0,1,9.76,1.57Z" transform="translate(288 139.52)" fill="#fff"/>
      <path id="Caminho_179" data-name="Caminho 179" d="M217.14,160.59s-2,27.24-3.78,32.73l29.23,3.08,4.39-4.18s3.11-24,2.67-30.83Z" transform="translate(288 139.52)" fill="#2571b5"/>
      <path id="Caminho_180" data-name="Caminho 180" d="M243.25,192l-.66,4.4,4.39-4.18Z" transform="translate(288 139.52)" fill="#263238"/>
      <path id="Caminho_181" data-name="Caminho 181" d="M243.58,174.35a20.209,20.209,0,0,1-3.28-.39l-7.86-1.11-7.89-1a20.75,20.75,0,0,1-3.26-.48,18.82,18.82,0,0,1,3.3.11c2,.15,4.83.43,7.91.84s5.86.87,7.86,1.26a19.941,19.941,0,0,1,3.22.77Z" transform="translate(288 139.52)" fill="#fff"/>
      <path id="Caminho_182" data-name="Caminho 182" d="M242.31,180.36a18.092,18.092,0,0,1-3.17-.12c-1.94-.14-4.63-.4-7.58-.77s-5.62-.79-7.54-1.14a19.422,19.422,0,0,1-3.09-.67,18.72,18.72,0,0,1,3.14.31l7.55,1,7.56.93a19.429,19.429,0,0,1,3.13.46Z" transform="translate(288 139.52)" fill="#fff"/>
      <path id="Caminho_183" data-name="Caminho 183" d="M240.48,185.88a95.623,95.623,0,0,1-9.83-1,91.654,91.654,0,0,1-9.75-1.58,93.844,93.844,0,0,1,9.82,1.06,93.256,93.256,0,0,1,9.76,1.52Z" transform="translate(288 139.52)" fill="#fff"/>
      <rect id="Retângulo_25" data-name="Retângulo 25" width="24.42" height="5.58" transform="translate(449.99 248.53)" fill="#ff725e"/>
      <rect id="Retângulo_26" data-name="Retângulo 26" width="24.42" height="5.58" transform="translate(449.99 381.84)" fill="#263238"/>
      <rect id="Retângulo_27" data-name="Retângulo 27" width="24.42" height="5.58" transform="translate(449.99 426.95)" fill="#263238"/>
      <rect id="Retângulo_28" data-name="Retângulo 28" width="84.3" height="5.58" transform="translate(543.17 215.57)" fill="#e0e0e0"/>
      <rect id="Retângulo_29" data-name="Retângulo 29" width="84.3" height="5.58" transform="translate(711.09 215.57)" fill="#e0e0e0"/>
      <rect id="Retângulo_30" data-name="Retângulo 30" width="40.26" height="5.58" transform="translate(836.26 215.57)" fill="#e0e0e0"/>
      <path id="Caminho_184" data-name="Caminho 184" d="M599.28,100c0,.15-98.83.27-220.73.27S157.8,100.13,157.8,100s98.82-.26,220.75-.26S599.28,99.84,599.28,100Z" transform="translate(288 139.52)" fill="#263238"/>
      <path id="Caminho_185" data-name="Caminho 185" d="M599.28,232.68c0,.15-98.83.26-220.73.26s-220.75-.11-220.75-.26,98.82-.26,220.75-.26S599.28,232.54,599.28,232.68Z" transform="translate(288 139.52)" fill="#263238"/>
      <path id="Caminho_186" data-name="Caminho 186" d="M599.28,323.76c0,.15-98.83.26-220.73.26s-220.75-.11-220.75-.26,98.82-.26,220.75-.26S599.28,323.62,599.28,323.76Z" transform="translate(288 139.52)" fill="#263238"/>
      <path id="Caminho_187" data-name="Caminho 187" d="M599.28,279.36c0,.14-98.83.26-220.73.26s-220.75-.12-220.75-.26,98.82-.26,220.75-.26S599.28,279.21,599.28,279.36Z" transform="translate(288 139.52)" fill="#263238"/>
      <path id="Caminho_188" data-name="Caminho 188" d="M195.22,325c-.15,0-.26-56.39-.26-125.95s.11-126,.26-126,.26,56.39.26,126S195.36,325,195.22,325Z" transform="translate(288 139.52)" fill="#263238"/>
      <path id="Caminho_189" data-name="Caminho 189" d="M399.19,326.27c-.14,0-.26-56.31-.26-125.75s.12-125.75.26-125.75.26,56.29.26,125.75S399.33,326.27,399.19,326.27Z" transform="translate(288 139.52)" fill="#263238"/>
      <path id="Caminho_190" data-name="Caminho 190" d="M531.28,327.59c-.14,0-.26-56.31-.26-125.76s.12-125.78.26-125.78.26,56.31.26,125.78S531.43,327.59,531.28,327.59Z" transform="translate(288 139.52)" fill="#263238"/>
      <path id="Caminho_191" data-name="Caminho 191" d="M450.15,182.62l.39.14,1.16.48a22.311,22.311,0,0,1,4.07,2.51,23.27,23.27,0,0,1,5.16,5.53,25.531,25.531,0,0,1,2.28,4.16,26.121,26.121,0,0,1,1.53,5.09,23.73,23.73,0,0,1-1.06,12.06A26.22,26.22,0,0,1,455.74,224a25.4,25.4,0,0,1-14.19,5.7,27.73,27.73,0,0,1-16.06-3.44,27.2,27.2,0,0,1-11.11-12.09A23.77,23.77,0,0,1,412.57,199a24.09,24.09,0,0,1,6.7-12.13,20.649,20.649,0,0,1,5.18-3.66,22,22,0,0,1,5.52-2,34.45,34.45,0,0,1,10-.63,63,63,0,0,1,7.5,1c2,.38,3.61.75,4.68,1l1.2.29a2.56,2.56,0,0,1,.41.12l-.42-.06-1.22-.25c-1.07-.22-2.64-.55-4.68-.9a63.211,63.211,0,0,0-7.49-.92,34.241,34.241,0,0,0-9.9.69,22.38,22.38,0,0,0-5.42,1.95,20.67,20.67,0,0,0-5.06,3.62A23.59,23.59,0,0,0,413,199.07a23.33,23.33,0,0,0,1.8,14.85,26.81,26.81,0,0,0,10.91,11.86,27.35,27.35,0,0,0,15.76,3.38,24.92,24.92,0,0,0,13.93-5.56,25.94,25.94,0,0,0,7.84-11.16,23.34,23.34,0,0,0,1.09-11.84,25,25,0,0,0-1.46-5,26.3,26.3,0,0,0-2.22-4.13,23.65,23.65,0,0,0-5-5.53,24.142,24.142,0,0,0-4-2.58l-1.13-.52a2.05,2.05,0,0,1-.37-.22Z" transform="translate(288 139.52)" fill="#263238"/>
      <path id="Caminho_192" data-name="Caminho 192" d="M460.66,185.74c-.09-.12,3.91-3.45,8.93-7.45s9.17-7.14,9.26-7-3.91,3.44-8.93,7.44S460.75,185.85,460.66,185.74Z" transform="translate(288 139.52)" fill="#263238"/>
      <path id="Caminho_193" data-name="Caminho 193" d="M476.45,186.35a6.321,6.321,0,0,1-1.28.18l-3.52.3c-3,.24-7.1.53-11.68.82h-.38l.11-.36a1.6,1.6,0,0,1,.14-.44,45.379,45.379,0,0,1,5-10.93c.83-1.3,1.56-2.31,2.09-3a6.129,6.129,0,0,1,.88-1,7.653,7.653,0,0,1-.71,1.13c-.48.71-1.16,1.74-1.95,3.06a51.128,51.128,0,0,0-4.85,10.9l-.13.43-.26-.34c4.58-.29,8.7-.52,11.69-.66l3.53-.14A5.87,5.87,0,0,1,476.45,186.35Z" transform="translate(288 139.52)" fill="#263238"/>
      <path id="Caminho_194" data-name="Caminho 194" d="M589,248.76a21.777,21.777,0,0,1,.86-2.12,37.49,37.49,0,0,0-10.2-43,38.892,38.892,0,0,0-5-3.69c-1.25-.77-2-1.17-2-1.21a3.371,3.371,0,0,1,.54.24c.35.18.88.41,1.51.79a33.909,33.909,0,0,1,5.14,3.59,36.817,36.817,0,0,1,6.34,6.81,36.626,36.626,0,0,1,5.85,30.62,34.488,34.488,0,0,1-2,5.92c-.29.68-.58,1.18-.75,1.53a3.948,3.948,0,0,1-.29.52Z" transform="translate(288 139.52)" fill="#263238"/>
      <path id="Caminho_195" data-name="Caminho 195" d="M598.22,243.09a23.126,23.126,0,0,1-2.64,2.31l-3,2.39-1.75,1.39a3.74,3.74,0,0,1-2.27,1.14,1.45,1.45,0,0,1-1.17-.8,5,5,0,0,1-.41-1.18c-.19-.75-.37-1.48-.55-2.17-.34-1.36-.64-2.6-.91-3.69a22.551,22.551,0,0,1-.71-3.43,22.643,22.643,0,0,1,1.06,3.33c.31,1.09.65,2.32,1,3.66.19.7.38,1.42.59,2.17s.43,1.56,1.11,1.59a3.43,3.43,0,0,0,1.92-1l1.78-1.37,3-2.3A24.663,24.663,0,0,1,598.22,243.09Z" transform="translate(288 139.52)" fill="#263238"/>
      <path id="Caminho_196" data-name="Caminho 196" d="M343.34,182.33c0,.14-9.93,2.8-22.26,5.94s-22.36,5.56-22.4,5.42,9.93-2.79,22.27-5.93S343.31,182.19,343.34,182.33Z" transform="translate(288 139.52)" fill="#263238"/>
      <path id="Caminho_197" data-name="Caminho 197" d="M349.79,187.63c0,.14-10.92,3.31-24.47,7.09s-24.58,6.73-24.61,6.59,10.91-3.31,24.47-7.09S349.76,187.49,349.79,187.63Z" transform="translate(288 139.52)" fill="#263238"/>
      <path id="Caminho_198" data-name="Caminho 198" d="M353.73,196.39c0,.14-10.45,2.77-23.41,5.88s-23.49,5.5-23.53,5.36,10.45-2.76,23.41-5.87S353.7,196.25,353.73,196.39Z" transform="translate(288 139.52)" fill="#263238"/>
      <path id="Caminho_199" data-name="Caminho 199" d="M298.32,287.96l7.95,42.02,79.43-15.04-13.81-40.91Z" transform="translate(288 139.52)" fill="#ebebeb"/>
      <rect id="Retângulo_31" data-name="Retângulo 31" width="76.56" height="37.88" transform="translate(584.669 427.786) rotate(-10.72)" fill="#fff"/>
      <path id="Caminho_200" data-name="Caminho 200" d="M378.94,311.25s-.06-.23-.15-.67-.22-1.1-.39-1.94c-.34-1.72-.83-4.22-1.45-7.43-1.25-6.43-3-15.71-5.25-27.14l.23.15-75.21,14.31h0l.21-.3c2.48,13.12,4.86,25.71,7,37.22l-.28-.2,54-10.1,15.6-2.89,4.18-.76,1.09-.19.38-.06a2.852,2.852,0,0,1-.35.09l-1,.21-4.12.81-15.53,3-54.13,10.37h-.24v-.24c-2.18-11.51-4.57-24.1-7.06-37.22l-.05-.25.26-.05h0l75.24-14.18h.19v.19l5.06,27.3c.59,3.19,1,5.68,1.36,7.4.14.83.26,1.46.34,1.91A3.373,3.373,0,0,1,378.94,311.25Z" transform="translate(288 139.52)" fill="#263238"/>
      <rect id="Retângulo_32" data-name="Retângulo 32" width="21.17" height="21.17" transform="translate(593.71 434.592) rotate(-10.72)" fill="#fff"/>
      <path id="Caminho_201" data-name="Caminho 201" d="M330.44,311.93a3.671,3.671,0,0,1-.1-.4c-.06-.3-.14-.67-.24-1.13-.21-1-.5-2.45-.86-4.24-.72-3.67-1.74-8.82-3-15l.27.18-20.79,4c-.05.07.39-.57.2-.3h0v.33l.07.36.13.71.27,1.41c.17.94.35,1.86.52,2.78q.525,2.76,1,5.38c.65,3.49,1.27,6.79,1.83,9.82l-.26-.18,15-2.73,4.26-.75L330,312a2.32,2.32,0,0,1,.41-.05,1.353,1.353,0,0,1-.35.09l-1.09.24-4.19.85-15.12,3h-.23v-.22l-1.88-9.81c-.33-1.74-.68-3.54-1-5.37-.17-.92-.35-1.85-.52-2.78l-.27-1.41-.14-.71-.06-.36v-.33h0l.21-.31,20.8-3.9h.23v.22c1.13,6.24,2.08,11.46,2.75,15.17.31,1.78.56,3.19.74,4.21.07.45.13.81.18,1.1A1.439,1.439,0,0,1,330.44,311.93Z" transform="translate(288 139.52)" fill="#263238"/>
      <path id="Caminho_202" data-name="Caminho 202" d="M330.44,311.93s-.11-.54-.41-1.49a7.33,7.33,0,0,0-2.2-3.49h0a7.69,7.69,0,0,0-2.58-1.56,8,8,0,0,0-3.49-.4h-.47l.25-.39a5.26,5.26,0,0,0,.19-5,4.77,4.77,0,0,0-1.84-2.07,5,5,0,0,0-2.82-.65A5.3,5.3,0,0,0,314,298a4.56,4.56,0,0,0-1.62,2.63,5.33,5.33,0,0,0,1.71,5.19l.25.2-.27.16a9.19,9.19,0,0,0-3.14,3.2,9.791,9.791,0,0,0-1.2,3.28,13.559,13.559,0,0,0-.08,3.06,4.468,4.468,0,0,1-.18-.8,8.739,8.739,0,0,1,0-2.3,9.62,9.62,0,0,1,1.14-3.41,9.25,9.25,0,0,1,3.22-3.4v.36a5.75,5.75,0,0,1-1.92-5.65,5,5,0,0,1,1.77-2.92,5.81,5.81,0,0,1,3.35-1.25,5.48,5.48,0,0,1,3.11.73,5.26,5.26,0,0,1,2,2.3,5.73,5.73,0,0,1-.26,5.44l-.22-.35a8.339,8.339,0,0,1,3.68.48,7.81,7.81,0,0,1,2.67,1.7h0a7.24,7.24,0,0,1,2.19,3.72,7.718,7.718,0,0,1,.21,1.14Q330.47,311.93,330.44,311.93Z" transform="translate(288 139.52)" fill="#263238"/>
      <path id="Caminho_203" data-name="Caminho 203" d="M334.44,290.4l18-3.41" transform="translate(288 139.52)" fill="#fff"/>
      <path id="Caminho_204" data-name="Caminho 204" d="M352.48,287a81.63,81.63,0,0,1-9,2,81.9,81.9,0,0,1-9.07,1.45,80.994,80.994,0,0,1,9-2A76.6,76.6,0,0,1,352.48,287Z" transform="translate(288 139.52)" fill="#263238"/>
      <path id="Caminho_205" data-name="Caminho 205" d="M335.23,294.59l3.65-.69" transform="translate(288 139.52)" fill="#fff"/>
      <path id="Caminho_206" data-name="Caminho 206" d="M338.88,293.9c0,.14-.77.41-1.77.6s-1.85.23-1.88.09.77-.41,1.78-.6S338.85,293.76,338.88,293.9Z" transform="translate(288 139.52)" fill="#263238"/>
      <path id="Caminho_207" data-name="Caminho 207" d="M368.86,295.77c0,.14-7.17,1.63-16.07,3.31s-16.15,2.94-16.18,2.8,7.17-1.63,16.08-3.31S368.83,295.63,368.86,295.77Z" transform="translate(288 139.52)" fill="#263238"/>
      <path id="Caminho_208" data-name="Caminho 208" d="M369.73,299.38c0,.14-7.21,1.63-16.16,3.33s-16.24,3-16.27,2.81,7.21-1.63,16.17-3.32S369.71,299.24,369.73,299.38Z" transform="translate(288 139.52)" fill="#263238"/>
      <path id="Caminho_209" data-name="Caminho 209" d="M370,303.68a6.378,6.378,0,0,1-1.24.33l-3.4.73c-2.87.59-6.85,1.38-11.25,2.21s-8.4,1.56-11.29,2.06l-3.43.56a5.22,5.22,0,0,1-1.27.14,6.769,6.769,0,0,1,1.23-.34l3.4-.72c2.88-.6,6.86-1.38,11.26-2.21s8.39-1.56,11.29-2.06l3.43-.57a5.421,5.421,0,0,1,1.27-.13Z" transform="translate(288 139.52)" fill="#263238"/>
      <path id="Caminho_210" data-name="Caminho 210" d="M337.19,286.31a.769.769,0,0,1,.2-.12l.6-.31a20.774,20.774,0,0,1,2.43-1A22.14,22.14,0,0,1,350,284a20.36,20.36,0,0,1,6.41,1.84,8.73,8.73,0,0,1,2.95,2.33,4.46,4.46,0,0,1,.9,3.88,6.49,6.49,0,0,1-2.47,3.39,20.14,20.14,0,0,1-3.73,2.21,35.17,35.17,0,0,1-8.58,2.94,20.83,20.83,0,0,1-9.07-.12,13.33,13.33,0,0,1-4-1.66,6.59,6.59,0,0,1-2.74-3.19,4.64,4.64,0,0,1,.44-4,9.63,9.63,0,0,1,2.55-2.75,25.119,25.119,0,0,1,5.86-3.18,26,26,0,0,1,9.45-1.69,21.9,21.9,0,0,1,2.61.2l.67.1.23.06h-.23l-.68-.06c-.59-.05-1.47-.1-2.6-.09a26.451,26.451,0,0,0-9.32,1.82,25.24,25.24,0,0,0-5.72,3.18,9.3,9.3,0,0,0-2.43,2.64,4.22,4.22,0,0,0-.38,3.57,6.18,6.18,0,0,0,2.56,2.93,12.669,12.669,0,0,0,3.88,1.58,20.39,20.39,0,0,0,8.84.11,35,35,0,0,0,8.45-2.89,19.77,19.77,0,0,0,3.65-2.14,6,6,0,0,0,2.31-3.12,4,4,0,0,0-.79-3.48,8.27,8.27,0,0,0-2.79-2.22,20.33,20.33,0,0,0-6.26-1.87,22.841,22.841,0,0,0-9.44.72A23.373,23.373,0,0,0,338,286l-.62.26A.507.507,0,0,1,337.19,286.31Z" transform="translate(288 139.52)" fill="#ff725e"/>
      <path id="Caminho_211" data-name="Caminho 211" d="M358.76,285.77a48,48,0,0,1,5.35-4.68,48.589,48.589,0,0,1,5.67-4.28,48,48,0,0,1-5.35,4.68,49.59,49.59,0,0,1-5.67,4.28Z" transform="translate(288 139.52)" fill="#ff725e"/>
      <path id="Caminho_212" data-name="Caminho 212" d="M365.51,284.86a40.8,40.8,0,0,1-6.24,1.55l-.75.15-.4.08.09-.4a13.46,13.46,0,0,1,2.26-5.2c.13.06-1,2.25-1.76,5.33l-.3-.32.75-.15A39.407,39.407,0,0,1,365.51,284.86Z" transform="translate(288 139.52)" fill="#ff725e"/>
      <path id="Caminho_213" data-name="Caminho 213" d="M354.29,289.41a97.782,97.782,0,0,1-9.9,1.78,99.365,99.365,0,0,1-10,1.27,95.992,95.992,0,0,1,9.9-1.79,94.178,94.178,0,0,1,10-1.26Z" transform="translate(288 139.52)" fill="#ff725e"/>
      <path id="Caminho_214" data-name="Caminho 214" d="M331.74,281.41a4.62,4.62,0,1,1-5.4-3.68A4.62,4.62,0,0,1,331.74,281.41Z" transform="translate(288 139.52)" fill="#ff725e"/>
      <path id="Caminho_215" data-name="Caminho 215" d="M327.19,286.92a4.64,4.64,0,0,1-3.82-7.26,4.56,4.56,0,0,1,3-2,4.241,4.241,0,0,1,.86-.08,4.64,4.64,0,0,1,4.56,3.78h0a4.64,4.64,0,0,1-3.69,5.42,4.462,4.462,0,0,1-.91.14Zm0-9.24a4.082,4.082,0,0,0-.85.08,4.59,4.59,0,1,0,5.37,3.66h0a4.61,4.61,0,0,0-4.51-3.74Z" transform="translate(288 139.52)" fill="#263238"/>
      <path id="Caminho_216" data-name="Caminho 216" d="M559.57,174.18c0,5.94,7.82,9.8,7.53,15.73-.13,2.55-1.78,4.79-2.17,7.31-.53,3.38,1.27,6.66,1.86,10,1.22,7-3,14.12-9.11,17.71s-13.59,4.07-20.55,2.89" transform="translate(288 139.52)" fill="#263238"/>
      <path id="Caminho_217" data-name="Caminho 217" d="M511.83,171.19c.13,3.19-2.06,6-4.26,8.29s-4.64,4.74-5.2,7.89c-1,5.58,4.33,11,3,16.47-.7,2.95-3.21,5.26-3.74,8.25s1,5.79,2.81,8.06,4.1,2,5.73,4.47a24.239,24.239,0,0,0,7.19,6.82c6,3.56,13.58-1.07,16.58-1.85" transform="translate(288 139.52)" fill="#263238"/>
      <path id="Caminho_218" data-name="Caminho 218" d="M560.65,177.64c.17-2.89-2.43-5.21-5.08-6.35s-5.64-1.64-8-3.34c-2.08-1.49-3.44-3.77-5.17-5.65a17.81,17.81,0,0,0-30.2,7.2c-1.16,4.09-.61,9,2.54,11.81,3.67,3.3,9.27,2.77,14.13,1.94s10.35-1.63,14.28,1.33c2.38,1.79,3.68,4.61,5.08,7.23s3.18,5.31,6,6.37,6.64-.49,6.85-3.46" transform="translate(288 139.52)" fill="#263238"/>
      <path id="Caminho_219" data-name="Caminho 219" d="M549.67,176.57l-25.44-7.37c-8.19-1.15-14,8.78-14.8,17-.9,9.15-1.63,20.34-.78,27.22,1.72,13.82,12.19,15.93,12.19,15.93s-.12,4-.26,8.93a14.76,14.76,0,0,0,14,15.18h0a14.77,14.77,0,0,0,15.45-13.79l3.74-58.06a4.84,4.84,0,0,0-4.1-5.04Z" transform="translate(288 139.52)" fill="#ffbe9d"/>
      <path id="Caminho_220" data-name="Caminho 220" d="M511.19,196.25a1.76,1.76,0,0,0,1.63,1.84,1.7,1.7,0,0,0,1.88-1.53,1.77,1.77,0,0,0-1.64-1.84,1.69,1.69,0,0,0-1.87,1.53Z" transform="translate(288 139.52)" fill="#263238"/>
      <path id="Caminho_221" data-name="Caminho 221" d="M511.22,193.42c.21.24,1.58-.71,3.48-.64s3.25,1.07,3.47.85-.11-.53-.7-1a4.85,4.85,0,0,0-2.76-1,4.67,4.67,0,0,0-2.78.8C511.33,192.9,511.12,193.31,511.22,193.42Z" transform="translate(288 139.52)" fill="#263238"/>
      <path id="Caminho_222" data-name="Caminho 222" d="M529.69,196.75a1.76,1.76,0,0,0,1.64,1.83,1.67,1.67,0,0,0,1.87-1.52,1.76,1.76,0,0,0-1.64-1.84,1.69,1.69,0,0,0-1.87,1.53Z" transform="translate(288 139.52)" fill="#263238"/>
      <path id="Caminho_223" data-name="Caminho 223" d="M529.86,194.41c.21.24,1.58-.7,3.48-.63s3.25,1.07,3.47.84-.11-.52-.7-1a4.78,4.78,0,0,0-2.77-1,4.68,4.68,0,0,0-2.77.79C530,193.9,529.76,194.31,529.86,194.41Z" transform="translate(288 139.52)" fill="#263238"/>
      <path id="Caminho_224" data-name="Caminho 224" d="M522.49,208.25a12.531,12.531,0,0,0-3.06-.66c-.48-.07-.94-.18-1-.52a2.49,2.49,0,0,1,.37-1.42l1.56-3.64c2.17-5.18,3.76-9.45,3.55-9.54s-2.14,4.05-4.31,9.23l-1.5,3.67a2.76,2.76,0,0,0-.31,1.89,1.19,1.19,0,0,0,.77.73,3.5,3.5,0,0,0,.82.15A12.1,12.1,0,0,0,522.49,208.25Z" transform="translate(288 139.52)" fill="#263238"/>
      <path id="Caminho_225" data-name="Caminho 225" d="M520.84,229.36a33.2,33.2,0,0,0,18.4-4.09c-.16,0-5.38,9.4-18.51,7.53Z" transform="translate(288 139.52)" fill="#eb996e"/>
      <path id="Caminho_226" data-name="Caminho 226" d="M523.14,212.85a3.43,3.43,0,0,1,3.1-1.17,3.18,3.18,0,0,1,2.12,1.23,2,2,0,0,1,.07,2.27,2.29,2.29,0,0,1-2.51.54,7.089,7.089,0,0,1-2.37-1.53,2,2,0,0,1-.52-.58.63.63,0,0,1,0-.7" transform="translate(288 139.52)" fill="#ff725e"/>
      <path id="Caminho_227" data-name="Caminho 227" d="M528,209.75c-.31,0-.38,2-2.2,3.43s-4,1.1-4,1.39c0,.13.48.42,1.4.47a5.08,5.08,0,0,0,3.36-1,4.48,4.48,0,0,0,1.7-2.88C528.38,210.26,528.17,209.75,528,209.75Z" transform="translate(288 139.52)" fill="#263238"/>
      <path id="Caminho_228" data-name="Caminho 228" d="M529.12,191.06c.17.53,2.07.35,4.29.69s4,1,4.31.56c.14-.21-.16-.71-.87-1.23a7.18,7.18,0,0,0-3.16-1.24,7.3,7.3,0,0,0-3.39.28C529.47,190.42,529.05,190.82,529.12,191.06Z" transform="translate(288 139.52)" fill="#263238"/>
      <path id="Caminho_229" data-name="Caminho 229" d="M512.11,188c.32.44,1.64,0,3.21.08s2.9.38,3.22-.06c.14-.21-.06-.65-.62-1.08a4.47,4.47,0,0,0-2.59-.79,4.33,4.33,0,0,0-2.59.78C512.17,187.3,512,187.74,512.11,188Z" transform="translate(288 139.52)" fill="#263238"/>
      <path id="Caminho_230" data-name="Caminho 230" d="M553.57,224.05c-3.8.64-4.08-1.3-6.82-4a12.39,12.39,0,0,1-3.46-10.59c.53-3.37,2.47-6.74,1.4-10-1.41-4.27-7.3-5.76-8.73-10-.84-2.48.08-5.32-.88-7.75s-3.24-3.67-5.52-4.58-4.75-1.57-6.64-3.14-3-4.46-1.7-6.54A130.129,130.129,0,0,1,551,175.69c2.22.91,4.54,2,5.81,4s1.18,4.88,1,7.41q-1.47,18.48-2.92,37" transform="translate(288 139.52)" fill="#263238"/>
      <path id="Caminho_231" data-name="Caminho 231" d="M563.12,196.28a10.56,10.56,0,0,1,20.09-3c1.79,3.94,1,8.64-.94,12.53-2.27,4.62-6.75,8.76-11.88,8.36-4.83-.37-8.58-4.74-9.82-9.42s-.53-9.63.2-14.42" transform="translate(288 139.52)" fill="#263238"/>
      <path id="Caminho_232" data-name="Caminho 232" d="M565.21,215.19a2.381,2.381,0,0,0,.75-.77,6.8,6.8,0,0,0,1.11-2.72,13.4,13.4,0,0,0,0-4.35c-.23-1.62-.72-3.34-1.06-5.15a12.82,12.82,0,0,1-.14-5.1c.33-1.52,1.09-2.8,1.45-4a5.2,5.2,0,0,0,.18-2.94,1.77,1.77,0,0,0-.51-1,4.673,4.673,0,0,1,.28,1,5.5,5.5,0,0,1-.36,2.75,34.65,34.65,0,0,0-1.58,4,12.809,12.809,0,0,0,.08,5.33c.35,1.85.86,3.56,1.1,5.13a13.671,13.671,0,0,1,.12,4.19,8.75,8.75,0,0,1-1.42,3.63Z" transform="translate(288 139.52)" fill="#455a64"/>
      <path id="Caminho_233" data-name="Caminho 233" d="M565.94,198.69a6.69,6.69,0,0,0,2,2.13,12.09,12.09,0,0,0,13.58.68,6.74,6.74,0,0,0,2.25-1.92c-.07-.08-.89.7-2.46,1.54a12.543,12.543,0,0,1-13.12-.65C566.75,199.48,566,198.62,565.94,198.69Z" transform="translate(288 139.52)" fill="#455a64"/>
      <path id="Caminho_234" data-name="Caminho 234" d="M566.55,200.87a6.28,6.28,0,0,0,1.1,2.19,15,15,0,0,0,9.77,6.31,6.41,6.41,0,0,0,2.45.1,22.1,22.1,0,0,0-2.37-.51,17.26,17.26,0,0,1-9.51-6.15,20.156,20.156,0,0,0-1.44-1.94Z" transform="translate(288 139.52)" fill="#455a64"/>
      <path id="Caminho_235" data-name="Caminho 235" d="M562.48,219.71a1.83,1.83,0,0,0,.16-.16A4.069,4.069,0,0,0,563,219a7.311,7.311,0,0,0,1-2.37,8.561,8.561,0,0,0-.09-4.07,7.79,7.79,0,0,0-3.06-4.41c-1.6-1.2-3.7-2.07-5-3.94a4.16,4.16,0,0,1-.64-3.26,18.6,18.6,0,0,1,1.31-3.53,10.27,10.27,0,0,0,.09-8.21,9,9,0,0,0-2.68-3.56,11,11,0,0,0-4.16-1.88c-1.48-.39-3-.63-4.32-1.09a8.59,8.59,0,0,1-3.58-2.11,6,6,0,0,1-1.47-3.66,29.844,29.844,0,0,0-.52-4,13.709,13.709,0,0,0-3.5-6.62,10.83,10.83,0,0,0-5.75-3.09,8.74,8.74,0,0,0-5.34.63,8.42,8.42,0,0,0-3.16,2.57,7.131,7.131,0,0,0-1.15,2.3,3.582,3.582,0,0,0-.16.88,8.842,8.842,0,0,1,1.5-3,8.27,8.27,0,0,1,8.23-2.92,10.43,10.43,0,0,1,5.47,3,13.38,13.38,0,0,1,3.32,6.39,32.385,32.385,0,0,1,.49,4,6.59,6.59,0,0,0,1.6,4,9.08,9.08,0,0,0,3.83,2.28c1.43.48,2.91.72,4.36,1.11a10.311,10.311,0,0,1,3.94,1.77,8.44,8.44,0,0,1,2.5,3.31,9.71,9.71,0,0,1-.05,7.77,17.918,17.918,0,0,0-1.32,3.65,4.65,4.65,0,0,0,.75,3.63c1.44,2,3.6,2.86,5.14,4a7.37,7.37,0,0,1,3,4.15,8.39,8.39,0,0,1,.19,3.93A9.2,9.2,0,0,1,562.48,219.71Z" transform="translate(288 139.52)" fill="#455a64"/>
      <path id="Caminho_236" data-name="Caminho 236" d="M562.8,181.3a1.671,1.671,0,0,0,.19-.63,3,3,0,0,0-.4-1.84,4.71,4.71,0,0,0-2.24-2,7.14,7.14,0,0,0-3.94-.25c-1.45.22-3,.75-4.61,1a6.09,6.09,0,0,1-4.95-.94c-1.42-1.16-2.1-3.1-2.78-5a20.529,20.529,0,0,0-3-5.77,19,19,0,0,0-10.19-7.06,10.91,10.91,0,0,0-5.5,0,8.52,8.52,0,0,0-4.1,2.47,6.33,6.33,0,0,0-1.64,3.59,6.12,6.12,0,0,0,.36,3,4.77,4.77,0,0,0,1,1.61,2.08,2.08,0,0,0,.5.43,6.5,6.5,0,0,1-1.26-2.12,6.17,6.17,0,0,1,1.37-6.18,8.22,8.22,0,0,1,3.92-2.28,10.49,10.49,0,0,1,5.24.09,18.66,18.66,0,0,1,9.84,6.89,20.13,20.13,0,0,1,2.92,5.6c.7,1.92,1.38,4,3,5.28a5.21,5.21,0,0,0,2.68,1.1,9.29,9.29,0,0,0,2.7-.1c1.71-.3,3.2-.85,4.6-1.09a6.83,6.83,0,0,1,3.74.15,4.45,4.45,0,0,1,2.17,1.78,3.049,3.049,0,0,1,.48,1.71C562.85,181.08,562.76,181.29,562.8,181.3Z" transform="translate(288 139.52)" fill="#455a64"/>
      <path id="Caminho_237" data-name="Caminho 237" d="M452.21,289s-7.61-11.9-8.94-12.9-13.15-5.1-14.15-4.77-15.19,3-13.53,4.67,11.56-.34,11.56-.34l1.34.64s-8.55,1.51-10.34,2.59c-1.64,1-1,3,.53,2.82s9-1.75,9.44-1.46-8.07,2.15-9,2.71c-1.23.75-1.31,3,.25,2.82.92-.08,8.94-2.29,8.94-2.29s-6.35,2.56-6.93,3.13c-.95.94-.16,2.31,1.22,2,.95-.23,5.43-2.46,6.7-2.76,0,0,1.19.3,2.31,2.69.52,1.12,2.93,8.08,7.13,7.92,3.71-.14,7.41,2.86,7.41,2.86Z" transform="translate(288 139.52)" fill="#ffbe9d"/>
      <path id="Caminho_238" data-name="Caminho 238" d="M415.62,276a6.7,6.7,0,0,0,2.61.68,15.281,15.281,0,0,0,2.93.07c1.09-.14,2.27-.33,3.52-.52l2.65-.43h-.16a38.582,38.582,0,0,0,6.17,1.82,38.928,38.928,0,0,0-6-2.43h-.17l-2.62.4-3.48.57a19.907,19.907,0,0,1-2.84.06C416.64,276.15,415.65,275.93,415.62,276Z" transform="translate(288 139.52)" fill="#eb996e"/>
      <path id="Caminho_239" data-name="Caminho 239" d="M520.6,246s-8.07,4.89-11,10.93-18.46,46.53-18.46,46.53L452.2,284.17l-9.76,16.65L479.13,330a24.11,24.11,0,0,0,16.32,3.35h0c8.78-1.32,13.09-1.52,16.11-9.87l9.76-27-2.08-49.53" transform="translate(288 139.52)" fill="#742365"/>
      <g id="Grupo_2" data-name="Grupo 2" transform="translate(288 139.52)" opacity="0.3">
        <path id="Caminho_240" data-name="Caminho 240" d="M509.67,269.66c-9,13-10.46,19.14-11.41,34.92-.32,5.24,0,10.89,3.12,15.08,1.14,1.53,3.37,2.84,4.84,1.62s.41-3.39-.07-5.2c-2.79-10.61-3.78-18.78-1.8-28.12s1.47-9.17,5.32-17.91"/>
      </g>
      <path id="Caminho_241" data-name="Caminho 241" d="M495.82,319.68a36.8,36.8,0,0,0-4.89-16.21,8.4,8.4,0,0,1,1.46,2.06,26.33,26.33,0,0,1,3.5,11.62,8.769,8.769,0,0,1-.07,2.53Z" transform="translate(288 139.52)" fill="#263238"/>
      <path id="Caminho_242" data-name="Caminho 242" d="M508.7,366.67,503,464.49h93.23s-2.76-49-6.23-69.93c-3.63-37-15.17-42.48-23.27-60.33l4.57-86.55-19.73-9.13-.8-4.55-30.64,3.71-.9,9.21s-2.81,8.13-4.4,12.33c-4.94,13-11.7,28.62-10.71,40,.45,5.17,7.53,39.55,7.53,39.55l-2.73,27.78Z" transform="translate(288 139.52)" fill="#742365"/>
      <path id="Caminho_243" data-name="Caminho 243" d="M516,254.55a4.432,4.432,0,0,1-.24.76c-.2.53-.47,1.23-.8,2.12-.7,1.84-1.78,4.47-3.12,7.73s-2.92,7.12-4.34,11.54a84.2,84.2,0,0,0-3.33,14.69,47.761,47.761,0,0,0,.17,15c.78,4.56,2,8.58,2.8,12s1.33,6.23,1.64,8.18c.12.94.22,1.68.29,2.25a4.554,4.554,0,0,1,.07.78,3.581,3.581,0,0,1-.17-.77c-.1-.56-.23-1.3-.39-2.23-.37-1.93-.91-4.72-1.79-8.12s-2.1-7.42-2.93-12a47.78,47.78,0,0,1-.2-15.15A82,82,0,0,1,507,276.55c1.46-4.43,3.09-8.3,4.46-11.54l3.28-7.66c.36-.87.66-1.56.88-2.08A4.887,4.887,0,0,1,516,254.55Z" transform="translate(288 139.52)" fill="#263238"/>
      <g id="Grupo_3" data-name="Grupo 3" transform="translate(288 139.52)" opacity="0.3">
        <path id="Caminho_244" data-name="Caminho 244" d="M512.2,344.5c-1,4.79,2.9,9.49,7.48,11.19s9.66,1.15,14.51.58l33.84-4c1.79-.21,3.87-.63,4.64-2.25a4.1,4.1,0,0,0,0-2.89,10.85,10.85,0,0,0-5.69-6.28,24,24,0,0,0-8.41-2.1c-11.65-1.17-23.35.9-34.87,3"/>
      </g>
      <path id="Caminho_245" data-name="Caminho 245" d="M485.81,327.35l8.61.78,3.76,1.9s-.9-1-1.68-1.95a29.943,29.943,0,0,0-3.82-3.17l-6.41-.66s-3.6-.27-3.83-2.76l4.9-.47s-5.07-.35-5-2.88l3.71-.66a1.16,1.16,0,0,1-1.16-1.35L495.15,315l9.77,6.93,9.44,8.35,2.13.09.74,13.64s-8.37-1-10.66-2.16-12.44-10.3-12.44-10.3-5.32-.47-6.79-1.74a3.87,3.87,0,0,1-1.53-2.46Z" transform="translate(288 139.52)" fill="#ffbe9d"/>
      <path id="Caminho_246" data-name="Caminho 246" d="M519.3,344.2h-.53l-1.54-.17c-1.34-.16-3.32-.41-5.83-.83a34.286,34.286,0,0,1-4.14-.92,6.79,6.79,0,0,1-2.13-1.18c-.68-.49-1.36-1-2.05-1.59-2.79-2.25-5.85-4.9-9.16-7.86l.11.05a28.373,28.373,0,0,1-4.81-.83,9.262,9.262,0,0,1-1.22-.42,5.827,5.827,0,0,1-.6-.32l-.28-.2-.25-.23a4.829,4.829,0,0,1-.85-1.05,3.24,3.24,0,0,1-.5-1.32v-.26h.27l8.6.77h0l3.77,1.9-.28.37-1.2-1.4-.6-.7a7.88,7.88,0,0,0-.66-.63c-.93-.83-2-1.6-3-2.37l.12.05-3.85-.4-2-.2a5.921,5.921,0,0,1-1-.12,7.062,7.062,0,0,1-1-.24,4.55,4.55,0,0,1-1.7-.92,2.65,2.65,0,0,1-.9-1.75v-.24h.23l4.89-.47v.47a10.931,10.931,0,0,1-3.14-.71,4.411,4.411,0,0,1-1.39-.86,2.1,2.1,0,0,1-.64-1.56v-.19h.19l3.93-.57v.46a1.9,1.9,0,0,1-1.09-.48,1.42,1.42,0,0,1-.42-1.14v-.19h.18L495,314.71h.09l.06.05L505,321.7h0c3.62,3.23,6.77,6,9.41,8.38h-.09l8.71.49,2.31.14.59.05h-.6L523,330.7l-8.71-.36h0L504.72,322h0L495,315.1h.14L485,316.35l.2-.21a.93.93,0,0,0,.28.78,1.53,1.53,0,0,0,.82.35l1.67.22-1.66.24-3.93.57.2-.22a1.55,1.55,0,0,0,.51,1.2,3.77,3.77,0,0,0,1.23.77,10.821,10.821,0,0,0,3,.67v.47l-4.89.48.22-.26a2.14,2.14,0,0,0,.74,1.43,3.931,3.931,0,0,0,1.52.82,5.259,5.259,0,0,0,.95.23,9.782,9.782,0,0,0,1,.11l2,.21,3.85.39h.11c1.06.77,2.09,1.55,3.05,2.39.24.22.47.44.69.68l.61.71,1.19,1.38.77.9-1.05-.53-3.76-1.91h.08l-8.6-.79.23-.23a3.139,3.139,0,0,0,.43,1.13,4.32,4.32,0,0,0,3,2,28,28,0,0,0,4.73.84h.07q4.95,4.5,9.1,7.9c.68.57,1.36,1.11,2,1.6a6.651,6.651,0,0,0,2,1.16,34.73,34.73,0,0,0,4.09.95c2.5.46,4.47.74,5.81.94l1.53.23.39.06Z" transform="translate(288 139.52)" fill="#eb996e"/>
      <path id="Caminho_247" data-name="Caminho 247" d="M499.81,325.19a9.233,9.233,0,0,1-1.76-1.09c-1-.73-2.47-1.75-4-2.91l-.43-.32.15.05c-1.81.07-3.44.11-4.61.12a7.83,7.83,0,0,1-1.88-.08,7.481,7.481,0,0,1,1.87-.25c1.17-.09,2.79-.19,4.6-.27h.09l.06.05.43.32c1.56,1.15,2.95,2.22,3.95,3A8.868,8.868,0,0,1,499.81,325.19Z" transform="translate(288 139.52)" fill="#eb996e"/>
      <path id="Caminho_248" data-name="Caminho 248" d="M498.72,320.63a7.69,7.69,0,0,1-1.61-1c-1-.67-2.28-1.62-3.74-2.7l.17.05-.57.06c-1.94.2-3.71.35-5,.44a8.441,8.441,0,0,1-2.08,0,10.124,10.124,0,0,1,2-.38c1.27-.17,3-.38,5-.58l.57-.06h.09l.08.06c1.45,1.09,2.74,2.08,3.65,2.81A8.432,8.432,0,0,1,498.72,320.63Z" transform="translate(288 139.52)" fill="#eb996e"/>
      <path id="Caminho_249" data-name="Caminho 249" d="M587.88,335.76a24.25,24.25,0,0,0,3.72-16.46l-7.45-43.77c-.85-7.32-1.89-17.32-7-22.66-3.49-3.67-7.73-6.88-11.9-6.84l-8.94,25.36,3.36,49-45.36,8.12v19.88s34.66-1.15,53.95-1.68a24.19,24.19,0,0,0,19.58-10.95Z" transform="translate(288 139.52)" fill="#742365"/>
      <path id="Caminho_250" data-name="Caminho 250" d="M587.88,335.76l-.21.33-.63,1a26.056,26.056,0,0,1-2.91,3.3,24.521,24.521,0,0,1-5.75,4,24.072,24.072,0,0,1-9,2.48c-13.86.53-33.16,1.12-55,1.82h-.27v-20.4h.22l45.36-8.07-.17.23c-1.19-11.32-2.18-20.64-2.87-27.16-.32-3.23-.58-5.77-.76-7.52-.08-.85-.14-1.5-.18-2a2.7,2.7,0,0,1,0-.68,3.4,3.4,0,0,0,.1.67c.1.44.14,1.12.25,2,.2,1.75.5,4.28.87,7.5.73,6.52,1.78,15.83,3,27.14v.2h-.19l-45.35,8.17.21-.25V348.4l-.27-.26,55-1.65a24.14,24.14,0,0,0,8.89-2.38,24.6,24.6,0,0,0,5.74-3.89,27.136,27.136,0,0,0,3-3.23c.29-.39.51-.69.67-.92a2,2,0,0,1,.25-.31Z" transform="translate(288 139.52)" fill="#263238"/>
      <path id="Caminho_251" data-name="Caminho 251" d="M570.33,247.68c0,.1-1.53.68-3.79,2.13a26,26,0,0,0-3.69,2.89,29.612,29.612,0,0,0-3.76,4.33,30.009,30.009,0,0,0-2.75,5,26.009,26.009,0,0,0-1.42,4.47c-.57,2.62-.58,4.3-.68,4.29a4.676,4.676,0,0,1,0-1.17,9.209,9.209,0,0,1,.1-1.38,13.585,13.585,0,0,1,.26-1.81,24.3,24.3,0,0,1,1.33-4.58,28.391,28.391,0,0,1,2.78-5.15,27.919,27.919,0,0,1,3.85-4.39,24.513,24.513,0,0,1,3.83-2.84,15.8,15.8,0,0,1,1.61-.88,9.7,9.7,0,0,1,1.26-.56,4.459,4.459,0,0,1,1.07-.35Z" transform="translate(288 139.52)" fill="#263238"/>
      <path id="Caminho_252" data-name="Caminho 252" d="M551.72,238.41a3.381,3.381,0,0,1-1.1.76,34.184,34.184,0,0,1-3.37,1.36c-2.85,1.08-6.61,3-10.9,4.86a33.29,33.29,0,0,1-11.57,3,16.92,16.92,0,0,1-3.64-.2c-.43-.06-.75-.14-1-.19s-.33-.1-.33-.12a31,31,0,0,0,4.92.14,35.8,35.8,0,0,0,11.39-3.13c4.26-1.85,8.07-3.72,11-4.72,1.45-.52,2.64-.85,3.41-1.2A11.8,11.8,0,0,1,551.72,238.41Z" transform="translate(288 139.52)" fill="#263238"/>
      <path id="Caminho_253" data-name="Caminho 253" d="M442.44,314.09l-4.5-35.33-30.78,1.51,2.15,35.46Z" transform="translate(288 139.52)" fill="#ff725e"/>
      <path id="Caminho_254" data-name="Caminho 254" d="M446.63,287.67a2.83,2.83,0,0,1-3.31.05c-1-.59-1.81-1.52-2.79-2.18-2.93-2-7.09-1.44-9.92-3.57-.4-.29-.79-.78-.58-1.23s.74-.48,1.2-.47l11.73.09" transform="translate(288 139.52)" fill="#ffbe9d"/>
      <path id="Caminho_255" data-name="Caminho 255" d="M443,280.36a4.239,4.239,0,0,0-1.27-.14c-.81-.05-2-.09-3.46-.14l-5.12-.11h-1.49a2.31,2.31,0,0,0-1.71.39,1,1,0,0,0-.18,1.09,2.07,2.07,0,0,0,.6.75,7.479,7.479,0,0,0,1.49.88c2.13.95,4.3,1.09,6.1,1.64a8.68,8.68,0,0,1,2.43,1.06c.69.45,1.27,1,1.85,1.46a4.14,4.14,0,0,0,3.32,1.11c.86-.18,1.14-.66,1.11-.66a3.551,3.551,0,0,1-1.15.4,4,4,0,0,1-3-1.22c-.55-.46-1.11-1-1.84-1.55a9.121,9.121,0,0,0-2.56-1.19c-1.87-.6-4-.77-6-1.65a7.512,7.512,0,0,1-1.35-.8c-.38-.3-.58-.71-.37-.87a2.441,2.441,0,0,1,1.24-.2h6.61c1.46,0,2.64-.05,3.46-.08A5.44,5.44,0,0,0,443,280.36Z" transform="translate(288 139.52)" fill="#eb996e"/>
      <path id="Caminho_256" data-name="Caminho 256" d="M433.93,290.66a4.069,4.069,0,0,1-.87.43,20.639,20.639,0,0,1-2.51.88,10.881,10.881,0,0,1-3.95.43,7.691,7.691,0,0,1-2.31-.58,9.73,9.73,0,0,1-2.1-1.4,1.92,1.92,0,0,0-1-.4,1.43,1.43,0,0,0-.94.37,8,8,0,0,0-1.3,1.81,2.47,2.47,0,0,1-1.84,1.24,2.68,2.68,0,0,1-1.82-.65,4.54,4.54,0,0,1-1.3-2.36,3.11,3.11,0,0,1-.16-1,4,4,0,0,1,.36.9,4.55,4.55,0,0,0,1.33,2.13,2.35,2.35,0,0,0,1.56.51,2,2,0,0,0,1.47-1.08A7.919,7.919,0,0,1,419.9,290a1.89,1.89,0,0,1,1.29-.5,2.39,2.39,0,0,1,1.3.5,9.57,9.57,0,0,0,2,1.35,7.071,7.071,0,0,0,2.15.57,11.159,11.159,0,0,0,3.81-.31C432.6,291.08,433.9,290.57,433.93,290.66Z" transform="translate(288 139.52)" fill="#fff"/>
      <path id="Caminho_257" data-name="Caminho 257" d="M435.38,296c0,.14-4.64.46-10.39.71a100,100,0,0,1-10.41.2c0-.14,4.64-.46,10.39-.72A101.547,101.547,0,0,1,435.38,296Z" transform="translate(288 139.52)" fill="#fff"/>
      <path id="Caminho_258" data-name="Caminho 258" d="M433.25,301a12,12,0,0,1-2.34.61c-1.46.31-3.49.68-5.74,1s-4.29.6-5.78.74a10.478,10.478,0,0,1-2.41.12,11.88,11.88,0,0,1,2.36-.48l5.75-.9,5.75-.87a10.491,10.491,0,0,1,2.41-.22Z" transform="translate(288 139.52)" fill="#fff"/>
      <path id="Caminho_259" data-name="Caminho 259" d="M555.15,291.08a2.259,2.259,0,0,1-.43.39l-1.28,1c-1.13.87-2.77,2.14-4.93,3.52a29.371,29.371,0,0,1-8.16,3.77,17.18,17.18,0,0,1-10.94-.37c-3.69-1.49-6.54-4-9.28-5.93a20.51,20.51,0,0,0-7.92-3.84,10.23,10.23,0,0,0-5.87.29,16.747,16.747,0,0,0-1.95,1,6,6,0,0,1,1.87-1.21,10.14,10.14,0,0,1,6-.46,20.54,20.54,0,0,1,8.13,3.81c2.77,1.92,5.61,4.4,9.19,5.84a16.89,16.89,0,0,0,10.62.39,30.34,30.34,0,0,0,8.1-3.62c2.16-1.34,3.83-2.55,5-3.38l1.34-.94a2.528,2.528,0,0,1,.51-.26Z" transform="translate(288 139.52)" fill="#fafafa"/>
      <path id="Caminho_260" data-name="Caminho 260" d="M583.65,271.31c0,.1-1.54-.36-4-.73a34.2,34.2,0,0,0-4.43-.35,38.5,38.5,0,0,0-5.41.34,37.322,37.322,0,0,0-5.3,1.21,33.5,33.5,0,0,0-4.14,1.59c-2.3,1.06-3.62,1.93-3.67,1.84a4.781,4.781,0,0,1,.89-.66,23.279,23.279,0,0,1,2.62-1.52,31.151,31.151,0,0,1,4.16-1.71,31.589,31.589,0,0,1,10.86-1.57,29.681,29.681,0,0,1,4.47.47,22.2,22.2,0,0,1,3,.71A4.66,4.66,0,0,1,583.65,271.31Z" transform="translate(288 139.52)" fill="#fafafa"/>
      <path id="Caminho_261" data-name="Caminho 261" d="M589.25,307.63a10.47,10.47,0,0,0-4.63.49,27.647,27.647,0,0,0-4.62,2.19,21.613,21.613,0,0,1-5.87,2.47,16.79,16.79,0,0,1-11.31-1.56,16.23,16.23,0,0,1-2.88-2,5.809,5.809,0,0,1-.88-.93,25.663,25.663,0,0,0,3.93,2.6,17,17,0,0,0,11,1.38,22.469,22.469,0,0,0,5.76-2.38,25.251,25.251,0,0,1,4.74-2.12,9.819,9.819,0,0,1,3.49-.42,3.14,3.14,0,0,1,1.27.28Z" transform="translate(288 139.52)" fill="#fafafa"/>
      <path id="Caminho_262" data-name="Caminho 262" d="M548.32,347.43c-.09,0,.57-1.32,1.15-3.53a20.79,20.79,0,0,0-2.84-17c-1.27-1.91-2.31-2.9-2.24-3a3.528,3.528,0,0,1,.76.66,16.647,16.647,0,0,1,1.78,2.1,19.8,19.8,0,0,1,2.9,17.34,18,18,0,0,1-1,2.56A3.559,3.559,0,0,1,548.32,347.43Z" transform="translate(288 139.52)" fill="#fafafa"/>
      <path id="Caminho_263" data-name="Caminho 263" d="M509.94,266.53c-.14.06-.59-.79-1.58-1.34a14.589,14.589,0,0,0-2-.66c-.06-.15,1.06-.45,2.21.21S510.08,266.51,509.94,266.53Z" transform="translate(288 139.52)" fill="#fafafa"/>
      <path id="Caminho_264" data-name="Caminho 264" d="M563.22,245.08c0,.06-.75-.09-2.09,0a12.28,12.28,0,0,0-5.27,2,20.8,20.8,0,0,0-3.09,2.41c-1,1-2.07,2.08-3.14,3.27-2.15,2.33-4.54,5.1-8,6.77a20.76,20.76,0,0,1-10.28,1.84,35.9,35.9,0,0,1-8.39-1.65c-2.32-.73-4.15-1.45-5.41-1.95l-1.44-.6a1.809,1.809,0,0,1-.49-.24,2,2,0,0,1,.53.14l1.47.51c1.28.44,3.13,1.1,5.45,1.78a36.079,36.079,0,0,0,8.3,1.53,20.59,20.59,0,0,0,10-1.83c3.29-1.6,5.66-4.3,7.83-6.63,1.09-1.17,2.14-2.29,3.2-3.26a21.626,21.626,0,0,1,3.19-2.4,12,12,0,0,1,5.45-1.85,7.117,7.117,0,0,1,1.57.06A2.36,2.36,0,0,1,563.22,245.08Z" transform="translate(288 139.52)" fill="#fafafa"/>
      <path id="Caminho_265" data-name="Caminho 265" d="M549.92,235.91a6,6,0,0,1-1.09.53c-.7.32-1.75.74-3.05,1.22a75.715,75.715,0,0,1-10.43,3,76.769,76.769,0,0,1-10.75,1.47c-1.39.09-2.51.12-3.29.12a4.751,4.751,0,0,1-1.2-.06,6.571,6.571,0,0,1,1.2-.15c.77-.05,1.89-.14,3.26-.28a98.872,98.872,0,0,0,10.67-1.61,97.543,97.543,0,0,0,10.42-2.82c1.31-.44,2.37-.8,3.1-1.06a4.641,4.641,0,0,1,1.16-.36Z" transform="translate(288 139.52)" fill="#fafafa"/>
      <path id="Caminho_266" data-name="Caminho 266" d="M468.93,321.75a1.2,1.2,0,0,1-.12-.28,4.753,4.753,0,0,1-.18-.82,8.93,8.93,0,0,1,.11-3.12,16.86,16.86,0,0,1,1.59-4.33c.79-1.55,1.83-3.14,2.82-4.85a18.891,18.891,0,0,0,2.17-5.06,10.52,10.52,0,0,0,.09-4.45,14.56,14.56,0,0,0-1.48-3.88,3.24,3.24,0,0,1,.68.92,9.73,9.73,0,0,1,1.16,2.89,10.56,10.56,0,0,1,0,4.63,18.539,18.539,0,0,1-2.19,5.21c-1,1.73-2.05,3.3-2.85,4.81a17.8,17.8,0,0,0-1.65,4.19,11.52,11.52,0,0,0-.15,4.14Z" transform="translate(288 139.52)" fill="#fafafa"/>
      <path id="Caminho_267" data-name="Caminho 267" d="M581.76,360a5.259,5.259,0,0,1-.68-.36c-.43-.26-1.1-.58-2-1a22.251,22.251,0,0,0-7.83-1.72,38.19,38.19,0,0,0-11.82,1.49c-4.35,1.18-9,3.08-13.91,4.79a46.33,46.33,0,0,1-14.45,3,34.391,34.391,0,0,1-11.88-1.94,33.419,33.419,0,0,1-7.28-3.61c-.8-.54-1.4-1-1.79-1.3a4.749,4.749,0,0,1-.59-.49c0-.05.86.61,2.49,1.62a35.772,35.772,0,0,0,7.29,3.43,35,35,0,0,0,11.76,1.81,46.57,46.57,0,0,0,14.28-3c4.93-1.7,9.56-3.59,14-4.76a37.53,37.53,0,0,1,12-1.4,21.8,21.8,0,0,1,7.89,1.9,14.809,14.809,0,0,1,1.93,1.09,3.191,3.191,0,0,1,.59.45Z" transform="translate(288 139.52)" fill="#fafafa"/>
      <path id="Caminho_268" data-name="Caminho 268" d="M588.83,396.77a14.125,14.125,0,0,1-2.74,2,22.509,22.509,0,0,1-8.76,2.77,32,32,0,0,1-6.38.08,43.91,43.91,0,0,1-7.2-1.31c-5-1.29-10.24-3.46-15.82-5.41s-11.1-3.3-16.21-3.28a26.691,26.691,0,0,0-7.15,1c-2.19.59-4.21,1.3-6.12,1.72a12.42,12.42,0,0,1-9.05-.78,6.81,6.81,0,0,1-1.94-1.6,4.092,4.092,0,0,1-.49-.73,8.569,8.569,0,0,1,.57.66,7.071,7.071,0,0,0,2,1.49,12.35,12.35,0,0,0,8.87.6c1.88-.44,3.88-1.16,6.09-1.78a26.89,26.89,0,0,1,7.25-1c5.2-.05,10.8,1.32,16.39,3.27s10.82,4.13,15.77,5.43a43.471,43.471,0,0,0,7.12,1.35,33.048,33.048,0,0,0,6.3,0,23,23,0,0,0,8.7-2.59,12.887,12.887,0,0,0,1.24-.72c.36-.22.65-.42.88-.59A5.318,5.318,0,0,1,588.83,396.77Z" transform="translate(288 139.52)" fill="#fafafa"/>
      <path id="Caminho_269" data-name="Caminho 269" d="M593.38,426.24a1.37,1.37,0,0,1-.21-.11l-.61-.36a23.771,23.771,0,0,0-2.37-1.26,29.38,29.38,0,0,0-9.51-2.51,49,49,0,0,0-14.57,1c-5.42,1.08-11.24,2.91-17.47,4.41a74.315,74.315,0,0,1-9.21,1.68,62.45,62.45,0,0,1-23.3-1.88,59.62,59.62,0,0,1-9.33-3.42c-1.07-.48-1.87-.92-2.42-1.21-.24-.13-.45-.24-.61-.34s-.21-.12-.2-.13a1.209,1.209,0,0,1,.22.09l.64.29c.56.26,1.37.66,2.45,1.11a63.275,63.275,0,0,0,9.35,3.25,62.42,62.42,0,0,0,14.49,2.09,64.087,64.087,0,0,0,8.65-.36,75.585,75.585,0,0,0,9.15-1.67c6.2-1.5,12-3.32,17.5-4.38a48.122,48.122,0,0,1,14.7-.86,28.111,28.111,0,0,1,9.56,2.69A17.078,17.078,0,0,1,593.38,426.24Z" transform="translate(288 139.52)" fill="#fafafa"/>
      <path id="Caminho_270" data-name="Caminho 270" d="M541.07,323.32c-.05.09-1.74-.85-4.67-1.87a38.251,38.251,0,0,0-5.25-1.38,37.547,37.547,0,0,0-18.49,1.34c-2.93,1-4.63,1.92-4.68,1.83a6.911,6.911,0,0,1,1.17-.69,15.332,15.332,0,0,1,1.44-.69c.57-.25,1.21-.55,1.95-.8a33.555,33.555,0,0,1,5.3-1.47,35.119,35.119,0,0,1,13.4.05,33,33,0,0,1,5.28,1.51c.75.25,1.38.56,2,.81a13.75,13.75,0,0,1,1.43.7,6.473,6.473,0,0,1,1.12.66Z" transform="translate(288 139.52)" fill="#fafafa"/>
      <path id="Caminho_271" data-name="Caminho 271" d="M593.67,457.34a.466.466,0,0,1-.22-.09l-.6-.33c-.26-.15-.59-.33-1-.52s-.85-.42-1.37-.64a32.319,32.319,0,0,0-9.29-2.46,56.39,56.39,0,0,0-14.27.29c-5.36.66-11.18,1.89-17.4,2.62a102.8,102.8,0,0,1-31.88-1.29,96.131,96.131,0,0,1-9.4-2.36c-1.1-.32-1.93-.63-2.51-.82l-.64-.23a.73.73,0,0,1-.22-.09.61.61,0,0,1,.24,0l.66.18c.58.16,1.42.44,2.53.73,2.19.62,5.4,1.43,9.41,2.19a106.178,106.178,0,0,0,31.75,1.13c6.19-.72,12-1.94,17.4-2.58a55.409,55.409,0,0,1,14.38-.18,31.761,31.761,0,0,1,9.32,2.64,15.263,15.263,0,0,1,1.36.7,10.655,10.655,0,0,1,1,.56l.57.37Z" transform="translate(288 139.52)" fill="#fafafa"/>
      <path id="Caminho_272" data-name="Caminho 272" d="M196.66,464.5l2-91.36-71-5.92s-3.78,36.57-3.69,41.46c0,2.33,10.71,25.08,10.71,25.08l-.12,30.74Z" transform="translate(288 139.52)" fill="#263238"/>
      <path id="Caminho_273" data-name="Caminho 273" d="M172.55,384a7.381,7.381,0,0,1-.59,1.32c-.41.83-1.05,2-1.9,3.46a39,39,0,0,1-8.24,10.06,23.3,23.3,0,0,1-11.77,5.4,16.761,16.761,0,0,1-4,.07,10.288,10.288,0,0,1-1.06-.17,1.371,1.371,0,0,1-.37-.09,27.279,27.279,0,0,0,5.34-.17,24.2,24.2,0,0,0,11.49-5.44,42,42,0,0,0,8.26-9.86c.89-1.4,1.56-2.56,2-3.36a8.137,8.137,0,0,1,.84-1.22Z" transform="translate(288 139.52)" fill="#455a64"/>
      <path id="Caminho_274" data-name="Caminho 274" d="M146.12,233.09l32,8.34,1.09-27.91s13.53-1.52,14.27-15-.28-44.39-.28-44.39h0a46.76,46.76,0,0,0-47.18,3.89l-2.02,1.5Z" transform="translate(288 139.52)" fill="#b78876"/>
      <path id="Caminho_275" data-name="Caminho 275" d="M179.28,213.32A31.28,31.28,0,0,1,162,207.6s3.73,9.85,17.19,9.21Z" transform="translate(288 139.52)" fill="#aa6550"/>
      <path id="Caminho_276" data-name="Caminho 276" d="M145.06,173.51c-.22-.11-9.11-3.12-9.21,6.08S145,187,145,186.73,145.06,173.51,145.06,173.51Z" transform="translate(288 139.52)" fill="#b78876"/>
      <path id="Caminho_277" data-name="Caminho 277" d="M142.25,183.21a2.931,2.931,0,0,1-.43.23,1.57,1.57,0,0,1-1.2,0c-1-.36-1.77-1.91-1.8-3.57a5.24,5.24,0,0,1,.48-2.29,1.82,1.82,0,0,1,1.22-1.22.82.82,0,0,1,.94.45c.12.26.06.44.11.46s.19-.16.12-.54a1,1,0,0,0-.35-.58,1.24,1.24,0,0,0-.89-.24,2.23,2.23,0,0,0-1.68,1.41,5.43,5.43,0,0,0-.59,2.56c0,1.85,1,3.6,2.3,4a1.73,1.73,0,0,0,1.47-.22C142.23,183.43,142.28,183.23,142.25,183.21Z" transform="translate(288 139.52)" fill="#aa6550"/>
      <path id="Caminho_278" data-name="Caminho 278" d="M189.39,174.88a1.92,1.92,0,0,1-1.93,1.86,1.85,1.85,0,0,1-1.91-1.82,1.93,1.93,0,0,1,1.94-1.86,1.83,1.83,0,0,1,1.9,1.82Z" transform="translate(288 139.52)" fill="#263238"/>
      <path id="Caminho_279" data-name="Caminho 279" d="M189.89,173c-.25.24-1.65-.89-3.72-1s-3.62.89-3.84.63.16-.56.84-1a5.22,5.22,0,0,1,3.09-.81,5.1,5.1,0,0,1,3,1.09C189.82,172.4,190,172.87,189.89,173Z" transform="translate(288 139.52)" fill="#263238"/>
      <path id="Caminho_280" data-name="Caminho 280" d="M169.14,174.74a1.93,1.93,0,0,1-1.94,1.85,1.83,1.83,0,0,1-1.9-1.81,1.92,1.92,0,0,1,1.93-1.86,1.85,1.85,0,0,1,1.91,1.82Z" transform="translate(288 139.52)" fill="#263238"/>
      <path id="Caminho_281" data-name="Caminho 281" d="M169.58,172.49c-.25.24-1.66-.9-3.73-1s-3.62.89-3.83.63.15-.56.83-1a5.22,5.22,0,0,1,3.09-.81,5.07,5.07,0,0,1,2.95,1.09C169.5,171.92,169.7,172.39,169.58,172.49Z" transform="translate(288 139.52)" fill="#263238"/>
      <path id="Caminho_282" data-name="Caminho 282" d="M176.42,188.13a13.169,13.169,0,0,1,3.38-.46c.53,0,1-.12,1.14-.47a2.69,2.69,0,0,0-.29-1.58c-.44-1.3-.9-2.66-1.39-4.09-1.92-5.81-3.29-10.57-3-10.65s2,4.57,3.9,10.38l1.32,4.11a3,3,0,0,1,.19,2.08,1.3,1.3,0,0,1-.9.73,3.8,3.8,0,0,1-.9.09,13.5,13.5,0,0,1-3.45-.14Z" transform="translate(288 139.52)" fill="#263238"/>
      <path id="Caminho_283" data-name="Caminho 283" d="M170.45,164.42c-.22.55-2.27.2-4.71.39s-4.42.77-4.72.25c-.14-.25.23-.76,1-1.27a7.76,7.76,0,0,1,3.54-1.07,7.92,7.92,0,0,1,3.65.58C170.12,163.7,170.55,164.16,170.45,164.42Z" transform="translate(288 139.52)" fill="#263238"/>
      <path id="Caminho_284" data-name="Caminho 284" d="M189.39,167c-.38.46-1.79-.09-3.5-.19s-3.17.18-3.48-.32c-.14-.24.11-.7.76-1.12a4.87,4.87,0,0,1,2.88-.65,4.93,4.93,0,0,1,2.75,1.06C189.38,166.25,189.56,166.74,189.39,167Z" transform="translate(288 139.52)" fill="#263238"/>
      <path id="Caminho_285" data-name="Caminho 285" d="M200.15,146a5,5,0,0,0-1.64-4.51,3.51,3.51,0,0,0-4.57.15,4.11,4.11,0,0,0-3.32-5.13c-2.19-.24-4.13,1.34-6.27,1.83a10,10,0,0,1-6.24-1c-2-.89-3.77-2.07-5.75-2.89A17.18,17.18,0,0,0,150,143.58a7.728,7.728,0,0,0-8.23,2.72,12.55,12.55,0,0,0-2.29,8.73,28.43,28.43,0,0,0,1.28,6.1v.51c-.17,7.4.29,16.12,3.44,16.3,5.5.32,4.63-10.09,4.63-10.09,6.85-2.32,4.77-12.53,6.52-14s5.43-4.87,19.25,2.94c5.36,3,12.65,3.26,16.67,2.53l.36-.06h.2a13,13,0,0,0,3.68-1.38,7.15,7.15,0,0,0,3.13-3.19,3.93,3.93,0,0,0-.59-4.24,8.6,8.6,0,0,0,2.1-4.45Z" transform="translate(288 139.52)" fill="#263238"/>
      <path id="Caminho_286" data-name="Caminho 286" d="M177.5,194.54a9.15,9.15,0,0,1-1.3,2.3,3.14,3.14,0,0,1-2.27,1.19,2.81,2.81,0,0,1-2.31-1.39,4.44,4.44,0,0,1-.54-2.72c.07-.85.5-1.85,1.35-1.91a2,2,0,0,1,1,.27l4.36,2" transform="translate(288 139.52)" fill="#aa6550"/>
      <path id="Caminho_287" data-name="Caminho 287" d="M175.58,198.11a6.33,6.33,0,0,1-2.36-.39,3.4,3.4,0,0,1-1.71-1.7,3.54,3.54,0,0,1,.06-2.9,2.9,2.9,0,0,1,.42-.65c.18-.18.15-.17.34-.13a5.552,5.552,0,0,1,.69.31l.72.32c.93.43,1.78.8,2.49,1.1a7.91,7.91,0,0,0,2.38.83,7.86,7.86,0,0,0-2.14-1.33c-.68-.37-1.5-.8-2.41-1.26l-.71-.35c-.25-.11-.45-.24-.79-.37a1.06,1.06,0,0,0-.66,0,1.19,1.19,0,0,0-.51.36,4,4,0,0,0-.53.82,4.12,4.12,0,0,0,0,3.55,3.82,3.82,0,0,0,2.17,1.92,3.51,3.51,0,0,0,1.92.15C175.38,198.3,175.59,198.16,175.58,198.11Z" transform="translate(288 139.52)" fill="#263238"/>
      <path id="Caminho_288" data-name="Caminho 288" d="M154.47,152.57a9.09,9.09,0,0,1,.07-1.63,6.28,6.28,0,0,1,2.26-3.68,8.5,8.5,0,0,1,6.13-1.74,26,26,0,0,1,7.79,2.09,41.273,41.273,0,0,0,4,1.35,21.11,21.11,0,0,0,10.57.06,20.13,20.13,0,0,0,4.21-1.58,11.169,11.169,0,0,0,1.07-.6,2,2,0,0,0,.36-.24s-.53.27-1.49.7a23.08,23.08,0,0,1-4.22,1.45,21.33,21.33,0,0,1-10.4-.16c-1.31-.35-2.63-.84-4-1.35a25.9,25.9,0,0,0-7.91-2.09,8.78,8.78,0,0,0-6.33,1.89,6.37,6.37,0,0,0-2.24,3.88A3.77,3.77,0,0,0,154.47,152.57Z" transform="translate(288 139.52)" fill="#455a64"/>
      <path id="Caminho_289" data-name="Caminho 289" d="M143.05,174.83a1.418,1.418,0,0,0,.19-.27c.11-.19.27-.47.46-.84a17.329,17.329,0,0,0,1.21-3.29,18.281,18.281,0,0,0,.57-5.18,47.293,47.293,0,0,0-.93-6.3,12.15,12.15,0,0,1,.25-6.18,6.19,6.19,0,0,1,1.38-2.28,4.81,4.81,0,0,1,2-1.19,4.41,4.41,0,0,1,3.31.23,5.559,5.559,0,0,1,1,.77,2.57,2.57,0,0,0-.92-.9,4.47,4.47,0,0,0-3.47-.37,5,5,0,0,0-2.14,1.23,6.54,6.54,0,0,0-1.5,2.39,12.42,12.42,0,0,0-.3,6.36,47.722,47.722,0,0,1,1,6.25,18.841,18.841,0,0,1-.47,5.1,20.849,20.849,0,0,1-1.08,3.3A7.189,7.189,0,0,0,143.05,174.83Z" transform="translate(288 139.52)" fill="#455a64"/>
      <path id="Caminho_290" data-name="Caminho 290" d="M153.23,151.43a3.251,3.251,0,0,0,0-.54v-1.55a18.239,18.239,0,0,1,.86-5.55,10.11,10.11,0,0,1,1.94-3.31,7,7,0,0,1,3.71-2.23,9.06,9.06,0,0,1,4.8.4,22.069,22.069,0,0,1,4.72,2.39,39.621,39.621,0,0,0,4.66,2.65,14.55,14.55,0,0,0,4.87,1.2,15.851,15.851,0,0,0,4.53-.36,17.15,17.15,0,0,0,3.71-1.35,14.74,14.74,0,0,0,4.48-3.51,9.138,9.138,0,0,0,.94-1.24,3,3,0,0,0,.28-.46,2.4,2.4,0,0,0-.35.42,11.88,11.88,0,0,1-1,1.18,15.59,15.59,0,0,1-4.49,3.36,17.64,17.64,0,0,1-3.66,1.28,15.63,15.63,0,0,1-4.43.32,14.44,14.44,0,0,1-4.74-1.19,40.288,40.288,0,0,1-4.62-2.64,22.531,22.531,0,0,0-4.8-2.42,9.46,9.46,0,0,0-5-.39,7.23,7.23,0,0,0-3.87,2.37,10.11,10.11,0,0,0-2,3.44,17.09,17.09,0,0,0-.75,5.64,9.241,9.241,0,0,0,.07,1.55,2.64,2.64,0,0,0,.14.54Z" transform="translate(288 139.52)" fill="#455a64"/>
      <path id="Caminho_291" data-name="Caminho 291" d="M213.77,269.49l40.45-45.42,5.74-8s14-17.32,15.13-19.15c1.31-2.12,2.64-2,3.39-1.46,1.17.83,1.1,2.86,0,4.72-.36.64-6.59,10.51-6.59,10.51a27.486,27.486,0,0,1,3.58-1.49c2.62-1,6.72.13,10.19,2.43s4.23,3.26,3.4,4.64a2.06,2.06,0,0,1-1.52.91,5.85,5.85,0,0,1-3.33-.79c-6.85-4.09-8.5-1.38-8.5-1.38l-.92,1s5.13-.3,7.23,2.44a4.089,4.089,0,0,1,.68,1.35,5.21,5.21,0,0,1-.26,9,2.15,2.15,0,0,1-2.46,0,2.78,2.78,0,0,1-.63-1.23,4,4,0,0,0-.27-.68l-2.52,2.64s-6,5.64-8.29,8.39l-35.71,44.63c-4.65,6.73-11.67,12.31-18.32,7.55h0C207,284.92,207.63,275.92,213.77,269.49Z" transform="translate(288 139.52)" fill="#b78876"/>
      <path id="Caminho_292" data-name="Caminho 292" d="M256.27,224.4a3,3,0,0,0,3.54.25c1.13-.57,2-1.51,3.12-2.16,3.25-2,7.67-1.11,10.82-3.22.44-.29.89-.79.7-1.28s-.77-.55-1.26-.58l-12.55-.61" transform="translate(288 139.52)" fill="#b78876"/>
      <path id="Caminho_293" data-name="Caminho 293" d="M260.64,216.8a5.071,5.071,0,0,1,1.36-.07c.88,0,2.15,0,3.71.06l5.49.19,1.59.07a2.46,2.46,0,0,1,1.81.52,1,1,0,0,1,.12,1.18,2.13,2.13,0,0,1-.69.76,8,8,0,0,1-1.64.86c-2.34.88-4.66.9-6.63,1.38a9.459,9.459,0,0,0-2.65,1c-.77.44-1.42,1-2.08,1.45a4.43,4.43,0,0,1-3.61,1c-.91-.25-1.18-.77-1.15-.77a4,4,0,0,0,1.21.5,4.32,4.32,0,0,0,3.26-1.13,25,25,0,0,1,2.06-1.55,9.59,9.59,0,0,1,2.81-1.11c2-.53,4.36-.59,6.52-1.41a8,8,0,0,0,1.48-.77c.43-.29.67-.72.46-.91a2.657,2.657,0,0,0-1.32-.29l-1.58-.09-5.49-.34c-1.56-.11-2.82-.21-3.69-.3a4.94,4.94,0,0,1-1.35-.23Z" transform="translate(288 139.52)" fill="#aa6550"/>
      <path id="Caminho_294" data-name="Caminho 294" d="M274.82,216a5.12,5.12,0,0,1,1.83-1.51,4,4,0,0,1,2.5-.18,10.21,10.21,0,0,1,2.92,1.27,16.1,16.1,0,0,0,3,1.49,5.24,5.24,0,0,0,2.72.25,2.06,2.06,0,0,0,1.47-1.12,1.14,1.14,0,0,0,.15-.66s-.1.22-.31.58a1.92,1.92,0,0,1-1.37.88,5.17,5.17,0,0,1-2.52-.33,17.49,17.49,0,0,1-2.86-1.49,10.12,10.12,0,0,0-3.07-1.29,4.24,4.24,0,0,0-2.72.3,3.82,3.82,0,0,0-1.41,1.2,1.42,1.42,0,0,0-.33.61Z" transform="translate(288 139.52)" fill="#aa6550"/>
      <path id="Caminho_295" data-name="Caminho 295" d="M278.91,199.43a14.819,14.819,0,0,0-1.25,2c-.82,1.36-1.8,3-2.89,4.78s-2.11,3.39-3,4.74a14.8,14.8,0,0,0-1.18,2,10.29,10.29,0,0,0,1.46-1.81c.83-1.17,1.93-2.81,3.08-4.68s2.12-3.59,2.78-4.86a9.9,9.9,0,0,0,1-2.17Z" transform="translate(288 139.52)" fill="#aa6550"/>
      <path id="Caminho_296" data-name="Caminho 296" d="M275.68,219.63s.25.06.71.13a2.19,2.19,0,0,1,1.57.87,1.17,1.17,0,0,1,0,1.15,5.69,5.69,0,0,1-.89,1.22,2.66,2.66,0,0,0-.72,1.7,2.2,2.2,0,0,0,1,1.72,2.52,2.52,0,0,0,2,.29,3.13,3.13,0,0,0,1.59-.93,10.151,10.151,0,0,0,1.53-2.56,5.93,5.93,0,0,0,.51-1.94,1.39,1.39,0,0,0-.1-.74c-.05,0,0,.27-.08.72a6.841,6.841,0,0,1-.63,1.83,11,11,0,0,1-1.54,2.41,2.49,2.49,0,0,1-3,.53,1.77,1.77,0,0,1-.83-1.35,2.25,2.25,0,0,1,.61-1.41,5.939,5.939,0,0,0,.9-1.34,1.5,1.5,0,0,0-.07-1.47,2.27,2.27,0,0,0-1.83-.88A1.89,1.89,0,0,0,275.68,219.63Z" transform="translate(288 139.52)" fill="#aa6550"/>
      <path id="Caminho_297" data-name="Caminho 297" d="M279.37,226.31a1.013,1.013,0,0,0-.3.59,2,2,0,0,0,.53,1.73,2.68,2.68,0,0,0,2.58.68,4.4,4.4,0,0,0,2.59-2,5.37,5.37,0,0,0,.79-3.18,5.061,5.061,0,0,0-.89-2.51,4.84,4.84,0,0,0-1.26-1.27,1.6,1.6,0,0,0-.59-.29,8.54,8.54,0,0,1,1.58,1.74,4.95,4.95,0,0,1,0,5.26,4.14,4.14,0,0,1-2.3,1.85,2.38,2.38,0,0,1-2.25-.5,1.9,1.9,0,0,1-.58-1.47A4.946,4.946,0,0,1,279.37,226.31Z" transform="translate(288 139.52)" fill="#aa6550"/>
      <path id="Caminho_298" data-name="Caminho 298" d="M268.43,228.71a1.93,1.93,0,0,0-1-.57,4.29,4.29,0,0,0-2.84,0l.28.3a14.272,14.272,0,0,0,.6-1.46,10,10,0,0,0,.52-5.4,26.329,26.329,0,0,1-1,5.25,15.037,15.037,0,0,1-.56,1.42l-.22.48.49-.18a4.57,4.57,0,0,1,2.61-.12C268,228.56,268.4,228.76,268.43,228.71Z" transform="translate(288 139.52)" fill="#aa6550"/>
      <path id="Caminho_299" data-name="Caminho 299" d="M279.07,211.94a2.063,2.063,0,0,0,.46,1.85c.64.91,1.54,1.2,1.58,1.08s-.65-.54-1.2-1.34S279.21,211.93,279.07,211.94Z" transform="translate(288 139.52)" fill="#aa6550"/>
      <path id="Caminho_300" data-name="Caminho 300" d="M173.5,228.45,211,265.58l27.48-28.27,5.23-2.29,6.92-7,16,18.05L232.7,290.42A31.79,31.79,0,0,1,215.15,302h0a31.78,31.78,0,0,1-29.86-8.15l-28.88-28.31" transform="translate(288 139.52)" fill="#e89d5a"/>
      <path id="Caminho_301" data-name="Caminho 301" d="M214.65,287.14a25.1,25.1,0,0,1-.08-3.23,55.321,55.321,0,0,0-.61-7.74,46.3,46.3,0,0,0-1.9-7.52,19.726,19.726,0,0,1-1-3.07,2.7,2.7,0,0,1,.43.76c.25.5.58,1.25.95,2.18a37,37,0,0,1,2.06,7.56,42.659,42.659,0,0,1,.47,7.83,21.057,21.057,0,0,1-.15,2.37A2.8,2.8,0,0,1,214.65,287.14Z" transform="translate(288 139.52)" fill="#263238"/>
      <g id="Grupo_4" data-name="Grupo 4" transform="translate(288 139.52)" opacity="0.3">
        <path id="Caminho_302" data-name="Caminho 302" d="M184.93,240.63c5.94,5.66,7.42,13,10.73,20.51,3.89,8.84,10.92,17.44,13.62,26.72a13.93,13.93,0,0,1,.1,8.52c-1,2.71-3.83,6-6.71,6.17l-6-1.59Z"/>
      </g>
      <path id="Caminho_303" data-name="Caminho 303" d="M259.07,255.91c-.11.09-3.58-4.13-7.75-9.43s-7.45-9.66-7.34-9.75,3.58,4.13,7.75,9.43S259.18,255.82,259.07,255.91Z" transform="translate(288 139.52)" fill="#263238"/>
      <path id="Caminho_304" data-name="Caminho 304" d="M243.73,330.42l-10.95,33.37,28.92-13.12,9.38-30.53Z" transform="translate(288 139.52)" fill="#455a64"/>
      <path id="Caminho_305" data-name="Caminho 305" d="M145.4,209.09l-4.24,10.25S135.68,231,129.54,239c-6.66,8.66-8.25,36.68-8.25,36.68l6.33,85.93-2.17,4.2c-1,1.92-.47,8.91,1.68,9l71.23,3.31c1.72.08,2.86-6,2.77-7.67l-5.74-103.8L183.84,238.3l-3.71-5.55-.08-7-24.79-7.67a15.68,15.68,0,0,1-9.86-9Z" transform="translate(288 139.52)" fill="#e89d5a"/>
      <g id="Grupo_5" data-name="Grupo 5" transform="translate(288 139.52)" opacity="0.3">
        <path id="Caminho_306" data-name="Caminho 306" d="M129,341.38c10.82,6.89,21.74,13.84,33.76,18.33s25.61,6.21,38,2.75l-.39-8.94L132.3,334.64Z"/>
      </g>
      <path id="Caminho_307" data-name="Caminho 307" d="M148.49,241.31S129,239.63,125,264s2.46,77.13,4.34,77.57c0,0,34.86,14.88,71.12,18.42l25.45-4.67-3-24.19-18.73,1s-.82-4.67-7.88-6.64c-10.17-2.84-30.65-7.56-30.65-7.56s.91-24.27,1.11-31.38,2.66-38-13.6-43.81" transform="translate(288 139.52)" fill="#e89d5a"/>
      <path id="Caminho_308" data-name="Caminho 308" d="M183.84,238.3a5.178,5.178,0,0,1,.36.73l.93,2.12,3.31,7.83c1.39,3.33,3,7.27,4.86,11.64.46,1.1.93,2.22,1.4,3.37a18.38,18.38,0,0,1,1.2,3.65,22.611,22.611,0,0,1,.41,3.95c.08,1.33.15,2.68.23,4.05.63,10.94,1.21,20.85,1.49,28,.14,3.59.23,6.5.25,8.51v2.31a5.632,5.632,0,0,1,0,.81,3.7,3.7,0,0,1-.07-.81c0-.57-.07-1.34-.11-2.31-.1-2.06-.24-4.94-.42-8.49-.42-7.21-1-17.09-1.64-28-.08-1.37-.15-2.72-.23-4.05a22.279,22.279,0,0,0-.39-3.88,17.868,17.868,0,0,0-1.16-3.56l-1.38-3.38c-1.79-4.38-3.4-8.34-4.76-11.68s-2.39-6-3.16-7.89l-.84-2.16A7.248,7.248,0,0,1,183.84,238.3Z" transform="translate(288 139.52)" fill="#263238"/>
      <path id="Caminho_309" data-name="Caminho 309" d="M179.89,225.71a5.871,5.871,0,0,1-.22,1c-.17.66-.44,1.63-.85,2.85a50.32,50.32,0,0,1-4.4,9.58l-.14.23-.21-.17a40.59,40.59,0,0,0-10.71-6c-3.43-1.42-6.77-2.62-9.7-4a37.44,37.44,0,0,1-7.37-4.42,20.93,20.93,0,0,1-4-4.16,12.571,12.571,0,0,1-.85-1.33,2,2,0,0,1-.24-.49c.05,0,.41.64,1.26,1.7a21.92,21.92,0,0,0,4.09,4,38.46,38.46,0,0,0,7.34,4.27c2.92,1.35,6.25,2.54,9.7,4a40.22,40.22,0,0,1,10.81,6.11l-.35.06a55.74,55.74,0,0,0,4.55-9.43c.44-1.2.75-2.15,1-2.8A5.541,5.541,0,0,1,179.89,225.71Z" transform="translate(288 139.52)" fill="#263238"/>
      <path id="Caminho_310" data-name="Caminho 310" d="M153.1,242.69s.46.16,1.35.52c.43.2,1,.5,1.57.84a15.265,15.265,0,0,1,2,1.48,19.58,19.58,0,0,1,4.21,5.38,36.07,36.07,0,0,1,3.16,8.74c1.61,6.81,2,15.39,1.58,25.18s-.71,20.88-1.12,33.06l-.17-.21c6.21,1.44,12.77,3,19.62,4.68,3.42.85,6.92,1.73,10.46,2.69a13.22,13.22,0,0,1,8.62,6.93l-.23-.14,18.73-1h.23v.23c1,7.71,2,15.86,3,24.19v.24h-.24l-23.67,4.35-1.77.32h-.08c-6.52-.7-12.94-1.63-19.21-2.86s-12.39-2.66-18.34-4.29a289.327,289.327,0,0,1-33.63-11.3h0a.45.45,0,0,1-.19-.11.441.441,0,0,1-.09-.11.71.71,0,0,1-.12-.2,2.2,2.2,0,0,1-.17-.39c-.09-.25-.17-.51-.24-.77q-.21-.76-.36-1.53c-.22-1-.41-2-.58-3.06-.35-2-.64-4-.91-6-.53-4-1-7.93-1.34-11.76q-1.125-11.52-1.53-21.93c-.28-6.93-.32-13.43-.08-19.45a79.181,79.181,0,0,1,2.06-16.49A28,28,0,0,1,132,248.06a20.92,20.92,0,0,1,8.3-5.49,22,22,0,0,1,6.09-1.27,15.744,15.744,0,0,1,1.61,0,4.431,4.431,0,0,1,.54,0h-.55a15.063,15.063,0,0,0-1.59.07,22.33,22.33,0,0,0-6,1.34,20.81,20.81,0,0,0-8.19,5.5A27.8,27.8,0,0,0,126,260a79.22,79.22,0,0,0-2,16.42c-.23,6-.16,12.51.13,19.42s.81,14.23,1.57,21.9c.38,3.84.82,7.76,1.36,11.75.27,2,.56,4,.91,6,.17,1,.36,2,.58,3,.11.51.23,1,.36,1.51.07.25.14.49.23.73a1.768,1.768,0,0,0,.14.33.58.58,0,0,0,.08.14h0a.21.21,0,0,0,0,.12l.06-.11A291.809,291.809,0,0,0,163,352.56c5.94,1.62,12.06,3,18.3,4.27s12.7,2.17,19.15,2.86h-.07l1.77-.32L225.83,355l-.21.29c-1-8.32-2.06-16.48-3-24.18l.26.22-18.73,1H204l-.08-.15a12.77,12.77,0,0,0-8.3-6.67c-3.54-1-7-1.85-10.45-2.7-6.84-1.71-13.4-3.27-19.6-4.72h-.17v-.17c.45-12.18.85-23.27,1.21-33.07s.09-18.32-1.48-25.11A35.381,35.381,0,0,0,162,251a19.59,19.59,0,0,0-4.12-5.38,17.48,17.48,0,0,0-1.93-1.49c-.61-.35-1.12-.65-1.55-.86C153.55,242.9,153.1,242.69,153.1,242.69Z" transform="translate(288 139.52)" fill="#263238"/>
      <path id="Caminho_311" data-name="Caminho 311" d="M202.8,357.36c-.14,0,.1-5.1.55-11.37s.91-11.34,1.06-11.33-.1,5.1-.55,11.37S203,357.37,202.8,357.36Z" transform="translate(288 139.52)" fill="#263238"/>
      <path id="Caminho_312" data-name="Caminho 312" d="M149.82,331a2.142,2.142,0,0,1,.23-.8,12.89,12.89,0,0,1,1-2,20,20,0,0,1,5.16-5.4,38.732,38.732,0,0,1,6.47-3.71,16.278,16.278,0,0,1,2.85-1.18,19.926,19.926,0,0,1-2.69,1.5,52.8,52.8,0,0,0-6.32,3.81,22.16,22.16,0,0,0-5.16,5.18C150.32,329.92,149.9,331,149.82,331Z" transform="translate(288 139.52)" fill="#263238"/>
      <path id="Caminho_313" data-name="Caminho 313" d="M178.37,365.77a1.38,1.38,0,0,1-.48.11l-1.41.23c-1.22.2-3,.41-5.21.58s-4.85.28-7.78.26a90.909,90.909,0,0,1-9.51-.59c-3.36-.38-6.53-1-9.4-1.58a73.477,73.477,0,0,1-7.51-2c-2.11-.66-3.8-1.28-4.95-1.75l-1.31-.54a2.23,2.23,0,0,1-.45-.22,1.441,1.441,0,0,1,.48.12l1.35.45c1.17.41,2.87,1,5,1.58s4.66,1.29,7.5,1.91,6,1.14,9.36,1.53,6.55.56,9.46.63,5.54,0,7.75-.15,4-.27,5.21-.41l1.41-.13A1.891,1.891,0,0,1,178.37,365.77Z" transform="translate(288 139.52)" fill="#263238"/>
      <path id="Caminho_314" data-name="Caminho 314" d="M265.9,326.84c-.75-1.07-2-.9-3.06-.13l-3.54,2.35a14.809,14.809,0,0,1-3.13,1.31l-1.51.27a11.51,11.51,0,0,1-8.48-1.8l-.61-.41s9.69-2.2,11.16-3.46h0a2,2,0,0,0-1.74-3.45l-12.2,1.87A25.06,25.06,0,0,0,231.76,328c-3.07,2.27-8.28,5.67-8.6,5.63l2.12,18.49,3.47-.86,6.32.56a22.59,22.59,0,0,0,12.35-2.45c2.35-1.21,4.55-2.43,4.78-2.83a34.43,34.43,0,0,0,1.46-4.61s2.4-1.49,2.49-2.51a16.359,16.359,0,0,0-.19-2.87s6.13-3.64,7.73-4.9C266.54,329.35,266.58,327.81,265.9,326.84Z" transform="translate(288 139.52)" fill="#b78876"/>
      <path id="Caminho_315" data-name="Caminho 315" d="M248.77,340.13a13,13,0,0,0,3.95-1.42,12.789,12.789,0,0,0,3.51-2.28c-.06-.1-1.63.91-3.69,1.93S248.73,340,248.77,340.13Z" transform="translate(288 139.52)" fill="#aa6550"/>
      <path id="Caminho_316" data-name="Caminho 316" d="M250.07,343.68a4.14,4.14,0,0,0,2.17-.61,4.09,4.09,0,0,0,1.78-1.39,16.478,16.478,0,0,0-2,1A15.082,15.082,0,0,0,250.07,343.68Z" transform="translate(288 139.52)" fill="#aa6550"/>
      <path id="Caminho_317" data-name="Caminho 317" d="M243.73,327.33a6.609,6.609,0,0,0,1.47,1.05,20.56,20.56,0,0,0,3.94,1.88,14.171,14.171,0,0,0,4.31.72,5.76,5.76,0,0,0,1.81-.18,23.061,23.061,0,0,1-6-.92,27.719,27.719,0,0,1-3.93-1.75A9.273,9.273,0,0,0,243.73,327.33Z" transform="translate(288 139.52)" fill="#aa6550"/>
      <g id="Grupo_6" data-name="Grupo 6" transform="translate(288 139.52)" opacity="0.3">
        <path id="Caminho_318" data-name="Caminho 318" d="M144,222.51c2.74,4.57,6.89,8.05,11.29,11.06a108.772,108.772,0,0,0,14,7.67c2.21,1.06,4.55,2.14,7,1.95a3.23,3.23,0,0,0,1.86-.66,4,4,0,0,0,1-2.52,82.344,82.344,0,0,0,.72-14.3,51.281,51.281,0,0,1-5.73,13.45s-3.86-3.35-15.78-8.17C146.27,226.1,144,222.51,144,222.51Z"/>
      </g>
      <path id="Caminho_319" data-name="Caminho 319" d="M158.63,433.76c-.15,0-.34-7.26-.43-16.21s0-16.21.1-16.21.34,7.26.42,16.21S158.77,433.75,158.63,433.76Z" transform="translate(288 139.52)" fill="#455a64"/>
      <path id="Caminho_320" data-name="Caminho 320" d="M715,464.81c0,.14-152.23.26-340,.26S35,465,35,464.81s152.19-.27,340-.27S715,464.66,715,464.81Z" transform="translate(288 139.52)" fill="#263238"/>
    </g>
  </g>
</svg>
